{
.formatVersion = 3;
axes = (
{
name = Weight;
tag = wght;
}
);
classes = (
{
code = "Kacyr kacyr vecyr zhecyr yucyr Elcyr Decyr gecyr decyr elcyr icyr ishortcyr shacyr shchacyr tsecyr igravecyr hardcyr softcyr zecyr";
name = locl;
},
{
code = "Kacyr.loclBGR kacyr.loclBGR vecyr.loclBGR zhecyr.loclBGR yucyr.loclBGR Elcyr.loclBGR Decyr.loclBGR gecyr.loclBGR decyr.loclBGR elcyr.loclBGR icyr.loclBGR ishortcyr.loclBGR shacyr.loclBGR shchacyr.loclBGR tsecyr.loclBGR igravecyr.loclBGR hardcyr.loclBGR softcyr.loclBGR zecyr.loclBGR";
name = locl2;
}
);
familyName = Ruzland;
customParameters = (
{
name = glyphOrder;
value = (
.notdef,
.null,
CR,
space,
exclam,
quotedbl,
numbersign,
dollar,
percent,
ampersand,
quotesingle,
parenleft,
parenright,
asterisk,
plus,
comma,
hyphen,
period,
slash,
zero,
one,
two,
three,
four,
five,
six,
seven,
eight,
nine,
colon,
semicolon,
less,
equal,
greater,
question,
at,
A,
B,
C,
D,
E,
F,
G,
H,
I,
J,
K,
L,
M,
N,
O,
P,
Q,
R,
S,
T,
U,
V,
W,
X,
Y,
Z,
bracketleft,
backslash,
bracketright,
asciicircum,
underscore,
grave,
a,
b,
c,
d,
e,
f,
g,
h,
i,
j,
k,
l,
m,
n,
o,
p,
q,
r,
s,
t,
u,
v,
w,
x,
y,
z,
braceleft,
bar,
braceright,
asciitilde,
exclamdown,
cent,
sterling,
currency,
yen,
brokenbar,
section,
dieresis,
copyright,
ordfeminine,
guillemotleft,
logicalnot,
registered,
macron,
degree,
plusminus,
twosuperior,
threesuperior,
acute,
mu,
paragraph,
periodcentered,
cedilla,
onesuperior,
ordmasculine,
guillemotright,
onequarter,
onehalf,
threequarters,
questiondown,
Agrave,
Aacute,
Acircumflex,
Atilde,
Adieresis,
Aring,
AE,
Ccedilla,
Egrave,
Eacute,
Ecircumflex,
Edieresis,
Igrave,
Iacute,
Icircumflex,
Idieresis,
Eth,
Ntilde,
Ograve,
Oacute,
Ocircumflex,
Otilde,
Odieresis,
multiply,
Oslash,
Ugrave,
Uacute,
Ucircumflex,
Udieresis,
Yacute,
Thorn,
germandbls,
agrave,
aacute,
acircumflex,
atilde,
adieresis,
aring,
ae,
ccedilla,
egrave,
eacute,
ecircumflex,
edieresis,
igrave,
iacute,
icircumflex,
idieresis,
eth,
ntilde,
ograve,
oacute,
ocircumflex,
otilde,

glyphs = (
{
glyphname = .notdef;
layers = (
{
layerId = "01BBB9D0-923D-4A6C-8EB0-69AD5A5509C5";
shapes = (
{
closed = 1;
nodes = (
(269,0,l),
(1237,0,l),
(1237,1210,l),
(269,1210,l)
);
},
{
closed = 1;
nodes = (
(299,30,l),
(299,1180,l),
(1207,1180,l),
(1207,30,l)
);
}
);
width = 1593;
},
{
layerId = "2CC194DC-208A-46E6-9B56-B5536ADC1FAA";
shapes = (
{
closed = 1;
nodes = (
(269,0,l),
(1237,0,l),
(1237,1210,l),
(269,1210,l)
);
},
{
closed = 1;
nodes = (
(299,30,l),
(299,1180,l),
(1207,1180,l),
(1207,30,l)
);
}
);
width = 1593;
},
{
layerId = "7CF7CDD4-0A84-4151-8A85-E5A01EE42E23";
shapes = (
{
closed = 1;
nodes = (
(269,0,l),
(1237,0,l),
(1237,1210,l),
(269,1210,l)
);
},
{
closed = 1;
nodes = (
(299,30,l),
(299,1180,l),
(1207,1180,l),
(1207,30,l)
);
}
);
width = 1593;
},
{
layerId = "2C98FBFB-9C5A-4FF8-8654-E7A0DF5B1F27";
shapes = (
{
closed = 1;
nodes = (
(269,0,l),
(1237,0,l),
(1237,1210,l),
(269,1210,l)
);
},
{
closed = 1;
nodes = (
(299,30,l),
(299,1180,l),
(1207,1180,l),
(1207,30,l)
);
}
);
width = 1593;
}
);
},
{
glyphname = exclam;
layers = (
{
layerId = "7CF7CDD4-0A84-4151-8A85-E5A01EE42E23";
shapes = (
{
closed = 1;
nodes = (
(212,1356,l),
(212,714,l),
(263,397,l),
(423,397,l),
(473,714,l),
(473,1356,l)
);
},
{
closed = 1;
nodes = (
(182,34,o),
(252,-23,o),
(341,-23,cs),
(429,-23,o),
(503,32,o),
(501,123,c),
(501,214,o),
(438,269,o),
(341,269,cs),
(246,269,o),
(182,214,o),
(182,123,cs)
);
}
);
width = 682;
},
{
layerId = "2C98FBFB-9C5A-4FF8-8654-E7A0DF5B1F27";
shapes = (
{
closed = 1;
nodes = (
(258,1356,l),
(258,683,l),
(293,342,l),
(394,342,l),
(429,683,l),
(429,1356,l)
);
},
{
closed = 1;
nodes = (
(223,28,o),
(266,-25,o),
(343,-25,cs),
(415,-25,o),
(460,30,o),
(461,90,c),
(461,160,o),
(412,203,o),
(343,203,cs),
(268,203,o),
(223,160,o),
(223,90,cs)
);
}
);
width = 682;
},
{
layerId = "01BBB9D0-923D-4A6C-8EB0-69AD5A5509C5";
shapes = (
{
closed = 1;
nodes = (
(273,1356,l),
(273,673,l),
(303,324,l),
(384,324,l),
(414,673,l),
(414,1356,l)
);
},
{
closed = 1;
nodes = (
(237,26,o),
(271,-26,o),
(344,-26,cs),
(410,-26,o),
(446,29,o),
(448,79,c),
(448,142,o),
(403,181,o),
(344,181,cs),
(275,181,o),
(237,142,o),
(237,79,cs)
);
}
);
width = 682;
},
{
layerId = "2CC194DC-208A-46E6-9B56-B5536ADC1FAA";
shapes = (
{
closed = 1;
nodes = (
(181,1356,l),
(181,735,l),
(243,434,l),
(442,434,l),
(502,735,l),
(502,1356,l)
);
},
{
closed = 1;
nodes = (
(155,38,o),
(243,-22,o),
(340,-22,cs),
(438,-22,o),
(532,33,o),
(528,145,c),
(528,250,o),
(455,313,o),
(340,313,cs),
(231,313,o),
(155,250,o),
(155,145,cs)
);
}
);
width = 682;
}
);
unicode = 33;
},
{
glyphname = quotedbl;
layers = (
{
layerId = "01BBB9D0-923D-4A6C-8EB0-69AD5A5509C5";
shapes = (
{
closed = 1;
nodes = (
(163,1356,l),
(163,983,l),
(259,983,l),
(325,1356,l)
);
},
{
closed = 1;
nodes = (
(449,1356,l),
(449,983,l),
(544,983,l),
(610,1356,l)
);
}
);
width = 758;
},
{
layerId = "2CC194DC-208A-46E6-9B56-B5536ADC1FAA";
shapes = (
{
closed = 1;
nodes = (
(319,1356,l),
(319,907,l),
(522,907,l),
(600,1356,l)
);
},
{
closed = 1;
nodes = (
(641,1356,l),
(641,907,l),
(844,907,l),
(922,1356,l)
);
}
);
width = 1338;
},
{
layerId = "7CF7CDD4-0A84-4151-8A85-E5A01EE42E23";
shapes = (
{
closed = 1;
nodes = (
(265,1356,l),
(265,933,l),
(431,933,l),
(505,1356,l)
);
},
{
closed = 1;
nodes = (
(574,1356,l),
(574,933,l),
(740,933,l),
(814,1356,l)
);
}
);
width = 1137;
},
{
layerId = "2C98FBFB-9C5A-4FF8-8654-E7A0DF5B1F27";
shapes = (
{
closed = 1;
nodes = (
(184,1356,l),
(184,972,l),
(294,972,l),
(362,1356,l)
);
},
{
closed = 1;
nodes = (
(474,1356,l),
(474,972,l),
(584,972,l),
(652,1356,l)
);
}
);
width = 836;
}
);
unicode = 34;
},
{
glyphname = numbersign;
layers = (
{
layerId = "01BBB9D0-923D-4A6C-8EB0-69AD5A5509C5";
shapes = (
{
closed = 1;
nodes = (
(562,438,l),
(480,115,l),
(617,115,l),
(704,438,l),
(866,438,l),
(899,562,l),
(736,562,l),
(802,814,l),
(973,814,l),
(1006,938,l),
(834,938,l),
(914,1242,l),
(773,1242,l),
(693,938,l),
(467,938,l),
(546,1242,l),
(406,1242,l),
(326,938,l),
(156,938,l),
(126,814,l),
(292,814,l),
(227,562,l),
(48,562,l),
(18,438,l),
(194,438,l),
(111,115,l),
(253,115,l),
(335,438,l)
);
},
{
closed = 1;
nodes = (
(369,562,l),
(434,814,l),
(661,814,l),
(596,562,l)
);
}
);
width = 1024;
},
{
layerId = "2CC194DC-208A-46E6-9B56-B5536ADC1FAA";
shapes = (
{
closed = 1;
nodes = (
(516,370,l),
(447,86,l),
(704,86,l),
(771,370,l),
(862,370,l),
(920,604,l),
(831,604,l),
(877,771,l),
(967,771,l),
(1027,1005,l),
(936,1005,l),
(1004,1268,l),
(747,1268,l),
(679,1005,l),
(513,1005,l),
(578,1268,l),
(322,1268,l),
(254,1005,l),
(153,1005,l),
(99,771,l),
(196,771,l),
(154,604,l),
(51,604,l),
(-5,370,l),
(93,370,l),
(22,86,l),
(279,86,l),
(350,370,l)
);
},
{
closed = 1;
nodes = (
(409,604,l),
(451,771,l),
(620,771,l),
(578,604,l)
);
}
);
width = 1024;
},
{
layerId = "7CF7CDD4-0A84-4151-8A85-E5A01EE42E23";
shapes = (
{
closed = 1;
nodes = (
(532,393,l),
(458,96,l),
(674,96,l),
(748,393,l),
(863,393,l),
(913,589,l),
(798,589,l),
(851,786,l),
(969,786,l),
(1020,982,l),
(901,982,l),
(973,1259,l),
(756,1259,l),
(684,982,l),
(497,982,l),
(567,1259,l),
(351,1259,l),
(279,982,l),
(154,982,l),
(108,786,l),
(229,786,l),
(179,589,l),
(50,589,l),
(3,393,l),
(128,393,l),
(53,96,l),
(270,96,l),
(345,393,l)
);
},
{
closed = 1;
nodes = (
(395,589,l),
(445,786,l),
(634,786,l),
(584,589,l)
);
}
);
width = 1024;
},
{
layerId = "2C98FBFB-9C5A-4FF8-8654-E7A0DF5B1F27";
shapes = (
{
closed = 1;
nodes = (
(556,428,l),
(475,111,l),
(629,111,l),
(713,428,l),
(865,428,l),
(902,567,l),
(749,567,l),
(812,808,l),
(972,808,l),
(1009,947,l),
(848,947,l),
(926,1245,l),
(769,1245,l),
(691,947,l),
(473,947,l),
(550,1245,l),
(394,1245,l),
(316,947,l),
(155,947,l),
(122,808,l),
(279,808,l),
(217,567,l),
(48,567,l),
(15,428,l),
(180,428,l),
(99,111,l),
(256,111,l),
(337,428,l)
);
},
{
closed = 1;
nodes = (
(374,567,l),
(436,808,l),
(655,808,l),
(593,567,l)
);
}
);
width = 1024;
}
);
unicode = 35;
},
{
glyphname = dollar;
layers = (
{
layerId = "01BBB9D0-923D-4A6C-8EB0-69AD5A5509C5";
shapes = (
{
closed = 1;
nodes = (
(436,-194,l),
(570,-194,l),
(570,-16,l),
(812,19,o),
(936,155,o),
(936,364,c),
(941,592,o),
(743,684,o),
(570,765,c),
(570,1236,l),
(694,1229,o),
(771,1206,o),
(825,1180,c),
(877,1321,l),
(777,1366,o),
(668,1378,o),
(570,1379,c),
(570,1549,l),
(436,1549,l),
(436,1376,l),
(198,1349,o),
(89,1224,o),
(89,1028,cs),
(89,794,o),
(264,709,o),
(436,633,c),
(436,118,l),
(291,125,o),
(196,157,o),
(134,186,c),
(80,43,l),
(153,5,o),
(280,-21,o),
(436,-26,c)
);
},
{
closed = 1;
nodes = (
(541,587,l),
(672,530,o),
(771,467,o),
(771,349,cs),
(771,207,o),
(675,141,o),
(541,125,c)
);
},
{
closed = 1;
nodes = (
(467,813,l),
(373,856,o),
(255,916,o),
(256,1040,c),
(256,1171,o),
(357,1221,o),
(467,1234,c)
);
}
);
width = 1024;
},
{
layerId = "2CC194DC-208A-46E6-9B56-B5536ADC1FAA";
shapes = (
{
closed = 1;
nodes = (
(380,-194,l),
(642,-194,l),
(642,-12,l),
(872,30,o),
(1011,166,o),
(1008,427,c),
(1006,667,o),
(843,753,o),
(642,825,c),
(642,1089,l),
(719,1075,o),
(800,1048,o),
(839,1032,c),
(923,1306,l),
(860,1337,o),
(781,1368,o),
(642,1379,c),
(642,1549,l),
(380,1549,l),
(380,1372,l),
(165,1334,o),
(17,1210,o),
(17,958,cs),
(17,707,o),
(200,605,o),
(380,544,c),
(380,260,l),
(262,271,o),
(173,299,o),
(126,328,c),
(31,45,l),
(95,14,o),
(216,-21,o),
(380,-26,c)
);
},
{
closed = 1;
nodes = (
(518,498,l),
(556,486,o),
(669,457,o),
(669,381,cs),
(669,317,o),
(642,264,o),
(518,254,c)
);
},
{
closed = 1;
nodes = (
(501,873,l),
(446,894,o),
(359,922,o),
(356,990,c),
(356,1047,o),
(351,1102,o),
(501,1103,c)
);
}
);
width = 1024;
},
{
layerId = "7CF7CDD4-0A84-4151-8A85-E5A01EE42E23";
shapes = (
{
closed = 1;
nodes = (
(399,-194,l),
(617,-194,l),
(617,-13,l),
(851,26,o),
(985,162,o),
(983,405,c),
(983,641,o),
(808,729,o),
(617,804,c),
(617,1140,l),
(710,1128,o),
(790,1103,o),
(834,1083,c),
(907,1311,l),
(831,1347,o),
(742,1371,o),
(617,1379,c),
(617,1549,l),
(399,1549,l),
(399,1373,l),
(176,1339,o),
(42,1215,o),
(42,982,cs),
(42,737,o),
(222,641,o),
(399,575,c),
(399,211,l),
(272,220,o),
(181,250,o),
(129,279,c),
(48,44,l),
(115,11,o),
(238,-21,o),
(399,-26,c)
);
},
{
closed = 1;
nodes = (
(526,529,l),
(596,501,o),
(704,460,o),
(704,370,cs),
(704,279,o),
(653,221,o),
(526,209,c)
);
},
{
closed = 1;
nodes = (
(489,852,l),
(421,881,o),
(323,920,o),
(321,1007,c),
(321,1090,o),
(353,1143,o),
(489,1148,c)
);
}
);
width = 1024;
},
{
layerId = "2C98FBFB-9C5A-4FF8-8654-E7A0DF5B1F27";
shapes = (
{
closed = 1;
nodes = (
(428,-194,l),
(580,-194,l),
(580,-15,l),
(820,20,o),
(946,156,o),
(946,372,c),
(949,602,o),
(756,693,o),
(580,773,c),
(580,1216,l),
(697,1208,o),
(775,1185,o),
(827,1160,c),
(883,1319,l),
(788,1362,o),
(683,1376,o),
(580,1379,c),
(580,1549,l),
(428,1549,l),
(428,1375,l),
(193,1347,o),
(79,1222,o),
(79,1018,cs),
(79,782,o),
(255,695,o),
(428,621,c),
(428,137,l),
(287,144,o),
(193,176,o),
(133,205,c),
(73,43,l),
(145,6,o),
(271,-21,o),
(428,-26,c)
);
},
{
closed = 1;
nodes = (
(538,575,l),
(656,524,o),
(757,465,o),
(757,353,cs),
(757,222,o),
(670,157,o),
(538,142,c)
);
},
{
closed = 1;
nodes = (
(471,821,l),
(383,861,o),
(269,917,o),
(269,1033,cs),
(269,1154,o),
(356,1205,o),
(471,1216,c)
);
}
);
width = 1024;
}
);
unicode = 36;
},
{
glyphname = percent;
layers = (
{
layerId = "01BBB9D0-923D-4A6C-8EB0-69AD5A5509C5";
shapes = (
{
closed = 1;
nodes = (
(129,814,o),
(267,721,o),
(453,721,cs),
(638,721,o),
(779,814,o),
(779,1050,cs),
(779,1287,o),
(638,1379,o),
(453,1379,cs),
(267,1379,o),
(129,1277,o),
(129,1050,cs)
);
},
{
closed = 1;
nodes = (
(279,1168,o),
(310,1265,o),
(453,1265,cs),
(596,1265,o),
(628,1169,o),
(628,1050,cs),
(628,934,o),
(594,835,o),
(453,835,cs),
(340,835,o),
(279,899,o),
(279,1050,cs)
);
},
{
closed = 1;
nodes = (
(838,93,o),
(976,0,o),
(1163,0,cs),
(1349,0,o),
(1489,93,o),
(1489,329,cs),
(1489,566,o),
(1349,658,o),
(1163,658,cs),
(976,658,o),
(838,555,o),
(838,329,cs)
);
},
{
closed = 1;
nodes = (
(990,445,o),
(1020,543,o),
(1163,543,cs),
(1306,543,o),
(1339,449,o),
(1339,329,cs),
(1339,168,o),
(1271,115,o),
(1163,115,cs),
(1054,115,o),
(990,179,o),
(990,329,cs)
);
},
{
closed = 1;
nodes = (
(1348,1382,l),
(181,76,l),
(280,-19,l),
(1448,1293,l)
);
}
);
width = 1618;
},
{
layerId = "2CC194DC-208A-46E6-9B56-B5536ADC1FAA";
shapes = (
{
closed = 1;
nodes = (
(161,808,o),
(319,721,o),
(553,721,cs),
(779,721,o),
(943,808,o),
(943,1050,cs),
(943,1289,o),
(779,1379,o),
(553,1379,cs),
(319,1379,o),
(161,1280,o),
(161,1050,cs)
);
},
{
closed = 1;
nodes = (
(458,1165,o),
(494,1181,o),
(553,1181,cs),
(610,1181,o),
(643,1165,o),
(643,1050,cs),
(643,934,o),
(611,918,o),
(553,918,cs),
(473,918,o),
(458,976,o),
(458,1050,cs)
);
},
{
closed = 1;
nodes = (
(1335,87,o),
(1496,0,o),
(1726,0,cs),
(1953,0,o),
(2115,87,o),
(2115,329,cs),
(2115,569,o),
(1953,658,o),
(1726,658,cs),
(1496,658,o),
(1335,561,o),
(1335,329,cs)
);
},
{
closed = 1;
nodes = (
(1631,445,o),
(1665,462,o),
(1726,462,cs),
(1783,462,o),
(1816,443,o),
(1816,329,cs),
(1816,237,o),
(1802,196,o),
(1726,196,cs),
(1645,196,o),
(1631,254,o),
(1631,329,cs)
);
},
{
closed = 1;
nodes = (
(1385,1378,l),
(666,33,l),
(855,-76,l),
(1573,1256,l)
);
}
);
width = 2276;
},
{
layerId = "7CF7CDD4-0A84-4151-8A85-E5A01EE42E23";
shapes = (
{
closed = 1;
nodes = (
(150,810,o),
(301,721,o),
(518,721,cs),
(730,721,o),
(886,810,o),
(886,1050,cs),
(886,1288,o),
(730,1379,o),
(518,1379,cs),
(301,1379,o),
(150,1279,o),
(150,1050,cs)
);
},
{
closed = 1;
nodes = (
(396,1166,o),
(430,1210,o),
(518,1210,cs),
(605,1210,o),
(638,1166,o),
(638,1050,cs),
(638,934,o),
(605,889,o),
(518,889,cs),
(427,889,o),
(396,949,o),
(396,1050,cs)
);
},
{
closed = 1;
nodes = (
(1163,89,o),
(1316,0,o),
(1531,0,cs),
(1744,0,o),
(1898,89,o),
(1898,329,cs),
(1898,568,o),
(1744,658,o),
(1531,658,cs),
(1316,658,o),
(1163,559,o),
(1163,329,cs)
);
},
{
closed = 1;
nodes = (
(1409,445,o),
(1442,490,o),
(1531,490,cs),
(1618,490,o),
(1651,445,o),
(1651,329,cs),
(1651,213,o),
(1618,168,o),
(1531,168,cs),
(1440,168,o),
(1409,228,o),
(1409,329,cs)
);
},
{
closed = 1;
nodes = (
(1372,1379,l),
(498,48,l),
(656,-56,l),
(1530,1269,l)
);
}
);
width = 2048;
},
{
layerId = "2C98FBFB-9C5A-4FF8-8654-E7A0DF5B1F27";
shapes = (
{
closed = 1;
nodes = (
(133,813,o),
(274,721,o),
(466,721,cs),
(657,721,o),
(801,813,o),
(801,1050,cs),
(801,1287,o),
(657,1379,o),
(466,1379,cs),
(274,1379,o),
(133,1277,o),
(133,1050,cs)
);
},
{
closed = 1;
nodes = (
(303,1167,o),
(334,1253,o),
(466,1253,cs),
(598,1253,o),
(630,1168,o),
(630,1050,cs),
(630,934,o),
(596,846,o),
(466,846,cs),
(358,846,o),
(303,909,o),
(303,1050,cs)
);
},
{
closed = 1;
nodes = (
(905,92,o),
(1046,0,o),
(1238,0,cs),
(1430,0,o),
(1573,92,o),
(1573,329,cs),
(1573,566,o),
(1430,658,o),
(1238,658,cs),
(1046,658,o),
(905,556,o),
(905,329,cs)
);
},
{
closed = 1;
nodes = (
(1076,445,o),
(1107,532,o),
(1238,532,cs),
(1370,532,o),
(1403,448,o),
(1403,329,cs),
(1403,177,o),
(1342,126,o),
(1238,126,cs),
(1133,126,o),
(1076,189,o),
(1076,329,cs)
);
},
{
closed = 1;
nodes = (
(1353,1381,l),
(246,70,l),
(357,-26,l),
(1465,1288,l)
);
}
);
width = 1706;
}
);
unicode = 37;
},
{
glyphname = ampersand;
layers = (
{
layerId = "01BBB9D0-923D-4A6C-8EB0-69AD5A5509C5";
shapes = (
{
closed = 1;
nodes = (
(162,123,o),
(393,-26,o),
(654,-26,cs),
(882,-26,o),
(1024,77,o),
(1107,155,c),
(1199,67,o),
(1280,13,o),
(1352,-26,c),
(1449,91,l),
(1366,128,o),
(1322,161,o),
(1195,266,c),
(1265,346,o),
(1365,520,o),
(1390,603,c),
(1266,664,l),
(1233,561,o),
(1168,422,o),
(1105,359,c),
(960,504,o),
(813,670,o),
(714,820,c),
(926,930,o),
(996,1055,o),
(996,1148,cs),
(996,1258,o),
(922,1381,o),
(691,1381,cs),
(473,1381,o),
(392,1255,o),
(392,1135,cs),
(392,1027,o),
(447,943,o),
(513,848,c),
(331,745,o),
(162,574,o),
(162,369,cs)
);
},
{
closed = 1;
nodes = (
(960,191,o),
(827,112,o),
(680,112,cs),
(485,112,o),
(325,214,o),
(325,369,cs),
(325,546,o),
(467,658,o),
(590,749,c),
(680,628,o),
(846,410,o),
(1010,255,c)
);
},
{
closed = 1;
nodes = (
(553,1209,o),
(588,1257,o),
(697,1257,cs),
(811,1257,o),
(846,1201,o),
(846,1112,cs),
(846,1060,o),
(793,996,o),
(644,905,c),
(587,986,o),
(553,1056,o),
(553,1133,cs)
);
}
);
width = 1564;
},
{
layerId = "2CC194DC-208A-46E6-9B56-B5536ADC1FAA";
shapes = (
{
closed = 1;
nodes = (
(162,96,o),
(373,-28,o),
(671,-28,cs),
(867,-28,o),
(1016,-22,o),
(1230,145,c),
(1299,86,o),
(1453,1,o),
(1525,-28,c),
(1705,212,l),
(1660,234,o),
(1486,328,o),
(1447,361,c),
(1502,413,o),
(1587,483,o),
(1667,614,c),
(1430,753,l),
(1366,648,o),
(1287,574,o),
(1223,509,c),
(1141,556,o),
(1069,626,o),
(962,768,c),
(1082,812,o),
(1250,925,o),
(1250,1107,cs),
(1250,1246,o),
(1149,1383,o),
(873,1383,cs),
(580,1383,o),
(444,1220,o),
(444,1079,cs),
(444,990,o),
(499,877,o),
(574,815,c),
(316,702,o),
(162,541,o),
(162,351,cs)
);
},
{
closed = 1;
nodes = (
(875,228,o),
(763,247,o),
(694,247,cs),
(592,247,o),
(490,281,o),
(490,407,cs),
(490,490,o),
(574,585,o),
(711,622,c),
(786,510,o),
(909,410,o),
(1018,324,c)
);
},
{
closed = 1;
nodes = (
(769,1107,o),
(842,1150,o),
(884,1150,cs),
(957,1150,o),
(1004,1129,o),
(1004,1075,cs),
(1004,1031,o),
(964,946,o),
(854,911,c),
(806,960,o),
(769,1019,o),
(769,1060,cs)
);
}
);
width = 1781;
},
{
layerId = "7CF7CDD4-0A84-4151-8A85-E5A01EE42E23";
shapes = (
{
closed = 1;
nodes = (
(162,105,o),
(380,-27,o),
(665,-27,cs),
(872,-27,o),
(1019,12,o),
(1187,148,c),
(1264,79,o),
(1393,5,o),
(1465,-27,c),
(1616,170,l),
(1558,197,o),
(1429,270,o),
(1360,328,c),
(1420,390,o),
(1510,496,o),
(1571,610,c),
(1373,722,l),
(1320,618,o),
(1246,521,o),
(1182,457,c),
(1078,538,o),
(980,641,o),
(876,786,c),
(1028,853,o),
(1162,970,o),
(1162,1121,cs),
(1162,1250,o),
(1070,1382,o),
(810,1382,cs),
(543,1382,o),
(426,1232,o),
(426,1098,cs),
(426,1003,o),
(481,900,o),
(553,826,c),
(321,717,o),
(162,552,o),
(162,357,cs)
);
},
{
closed = 1;
nodes = (
(904,215,o),
(785,200,o),
(689,200,cs),
(555,200,o),
(433,258,o),
(433,394,cs),
(433,509,o),
(537,610,o),
(669,666,c),
(749,551,o),
(887,410,o),
(1015,300,c)
);
},
{
closed = 1;
nodes = (
(694,1142,o),
(754,1187,o),
(819,1187,cs),
(906,1187,o),
(949,1154,o),
(949,1088,cs),
(949,1041,o),
(905,963,o),
(781,909,c),
(730,969,o),
(694,1032,o),
(694,1085,cs)
);
}
);
width = 1706;
},
{
layerId = "2C98FBFB-9C5A-4FF8-8654-E7A0DF5B1F27";
shapes = (
{
closed = 1;
nodes = (
(162,119,o),
(390,-26,o),
(656,-26,cs),
(880,-26,o),
(1023,63,o),
(1123,153,c),
(1212,69,o),
(1303,11,o),
(1375,-26,c),
(1483,107,l),
(1405,142,o),
(1344,183,o),
(1229,279,c),
(1297,355,o),
(1395,515,o),
(1427,604,c),
(1288,676,l),
(1251,573,o),
(1184,442,o),
(1121,379,c),
(984,511,o),
(847,664,o),
(747,813,c),
(947,914,o),
(1030,1037,o),
(1030,1142,cs),
(1030,1256,o),
(952,1381,o),
(715,1381,cs),
(487,1381,o),
(399,1250,o),
(399,1127,cs),
(399,1022,o),
(454,934,o),
(521,843,c),
(329,739,o),
(162,569,o),
(162,366,cs)
);
},
{
closed = 1;
nodes = (
(948,196,o),
(818,130,o),
(682,130,cs),
(499,130,o),
(347,223,o),
(347,374,cs),
(347,538,o),
(481,648,o),
(606,732,c),
(694,612,o),
(854,410,o),
(1011,264,c)
);
},
{
closed = 1;
nodes = (
(582,1195,o),
(622,1242,o),
(722,1242,cs),
(830,1242,o),
(867,1191,o),
(867,1107,cs),
(867,1056,o),
(816,989,o),
(672,906,c),
(616,982,o),
(582,1051,o),
(582,1123,cs)
);
}
);
width = 1593;
}
);
unicode = 38;
},
{
glyphname = quotesingle;
layers = (
{
layerId = "01BBB9D0-923D-4A6C-8EB0-69AD5A5509C5";
shapes = (
{
closed = 1;
nodes = (
(119,1356,l),
(119,983,l),
(213,983,l),
(280,1356,l)
);
}
);
width = 317;
},
{
layerId = "2CC194DC-208A-46E6-9B56-B5536ADC1FAA";
shapes = (
{
closed = 1;
nodes = (
(188,1356,l),
(188,907,l),
(392,907,l),
(470,1356,l)
);
}
);
width = 702;
},
{
layerId = "7CF7CDD4-0A84-4151-8A85-E5A01EE42E23";
shapes = (
{
closed = 1;
nodes = (
(164,1356,l),
(164,933,l),
(330,933,l),
(404,1356,l)
);
}
);
width = 569;
},
{
layerId = "2C98FBFB-9C5A-4FF8-8654-E7A0DF5B1F27";
shapes = (
{
closed = 1;
nodes = (
(128,1356,l),
(128,972,l),
(237,972,l),
(305,1356,l)
);
}
);
width = 369;
}
);
unicode = 39;
},
{
glyphname = parenleft;
layers = (
{
layerId = "01BBB9D0-923D-4A6C-8EB0-69AD5A5509C5";
shapes = (
{
closed = 1;
nodes = (
(612,-348,l),
(505,-233,o),
(431,-92,o),
(383,55,cs),
(334,200,o),
(313,348,o),
(313,471,cs),
(313,604,o),
(330,747,o),
(376,889,cs),
(421,1032,o),
(495,1173,o),
(611,1305,c),
(514,1379,l),
(381,1247,o),
(290,1091,o),
(234,933,cs),
(177,776,o),
(154,612,o),
(154,471,cs),
(154,326,o),
(177,163,o),
(233,7,cs),
(289,-150,o),
(378,-302,o),
(509,-426,c)
);
}
);
width = 682;
},
{
layerId = "2CC194DC-208A-46E6-9B56-B5536ADC1FAA";
shapes = (
{
closed = 1;
nodes = (
(673,-284,l),
(589,-179,o),
(526,-51,o),
(487,80,cs),
(449,209,o),
(426,345,o),
(426,471,cs),
(426,601,o),
(445,737,o),
(482,868,cs),
(517,999,o),
(582,1127,o),
(668,1237,c),
(453,1379,l),
(323,1247,o),
(232,1093,o),
(176,933,cs),
(119,772,o),
(96,612,o),
(96,471,cs),
(96,326,o),
(119,163,o),
(175,7,c),
(229,-150,o),
(314,-302,o),
(445,-426,c)
);
}
);
width = 682;
},
{
layerId = "7CF7CDD4-0A84-4151-8A85-E5A01EE42E23";
shapes = (
{
closed = 1;
nodes = (
(652,-306,l),
(560,-198,o),
(493,-65,o),
(451,71,cs),
(409,206,o),
(387,346,o),
(387,471,cs),
(387,602,o),
(405,740,o),
(445,875,cs),
(484,1010,o),
(552,1143,o),
(648,1260,c),
(474,1379,l),
(343,1247,o),
(252,1092,o),
(196,933,cs),
(139,773,o),
(116,612,o),
(116,471,cs),
(116,326,o),
(139,163,o),
(195,7,cs),
(250,-150,o),
(336,-302,o),
(467,-426,c)
);
}
);
width = 682;
},
{
layerId = "2C98FBFB-9C5A-4FF8-8654-E7A0DF5B1F27";
shapes = (
{
closed = 1;
nodes = (
(620,-339,l),
(516,-226,o),
(444,-86,o),
(397,58,cs),
(349,201,o),
(328,347,o),
(328,471,cs),
(328,603,o),
(345,745,o),
(390,886,cs),
(434,1027,o),
(507,1167,o),
(618,1295,c),
(506,1379,l),
(373,1247,o),
(282,1091,o),
(226,933,cs),
(169,775,o),
(146,612,o),
(146,471,cs),
(146,326,o),
(169,163,o),
(225,7,cs),
(281,-150,o),
(369,-302,o),
(500,-426,c)
);
}
);
width = 682;
}
);
unicode = 40;
},
{
glyphname = parenright;
layers = (
{
layerId = "01BBB9D0-923D-4A6C-8EB0-69AD5A5509C5";
shapes = (
{
closed = 1;
nodes = (
(174,-426,l),
(305,-302,o),
(393,-150,o),
(449,7,cs),
(506,163,o),
(529,326,o),
(529,471,cs),
(529,612,o),
(506,776,o),
(450,933,cs),
(393,1091,o),
(302,1247,o),
(168,1379,c),
(72,1305,l),
(187,1173,o),
(260,1030,o),
(306,889,cs),
(353,747,o),
(370,604,o),
(370,471,cs),
(370,348,o),
(349,200,o),
(300,55,cs),
(251,-92,o),
(178,-233,o),
(70,-348,c)
);
}
);
width = 682;
},
{
layerId = "2CC194DC-208A-46E6-9B56-B5536ADC1FAA";
shapes = (
{
closed = 1;
nodes = (
(237,-426,l),
(368,-302,o),
(453,-150,o),
(509,7,cs),
(563,163,o),
(586,326,o),
(586,471,cs),
(586,612,o),
(563,772,o),
(507,933,c),
(450,1093,o),
(359,1247,o),
(229,1379,c),
(14,1237,l),
(102,1127,o),
(165,999,o),
(202,868,cs),
(239,737,o),
(256,601,o),
(256,471,cs),
(256,345,o),
(235,209,o),
(196,80,cs),
(158,-51,o),
(93,-179,o),
(9,-284,c)
);
}
);
width = 682;
},
{
layerId = "7CF7CDD4-0A84-4151-8A85-E5A01EE42E23";
shapes = (
{
closed = 1;
nodes = (
(215,-426,l),
(346,-302,o),
(432,-150,o),
(488,7,cs),
(543,163,o),
(566,326,o),
(566,471,cs),
(566,612,o),
(543,773,o),
(487,933,cs),
(430,1092,o),
(339,1247,o),
(208,1379,c),
(34,1260,l),
(131,1143,o),
(198,1010,o),
(238,875,cs),
(278,740,o),
(295,602,o),
(295,471,cs),
(295,346,o),
(274,206,o),
(232,71,cs),
(190,-65,o),
(122,-198,o),
(30,-306,c)
);
}
);
width = 682;
},
{
layerId = "2C98FBFB-9C5A-4FF8-8654-E7A0DF5B1F27";
shapes = (
{
closed = 1;
nodes = (
(182,-426,l),
(313,-302,o),
(401,-150,o),
(457,7,cs),
(513,163,o),
(536,326,o),
(536,471,cs),
(536,612,o),
(513,775,o),
(457,933,cs),
(400,1091,o),
(309,1247,o),
(176,1379,c),
(64,1295,l),
(175,1167,o),
(247,1026,o),
(292,886,cs),
(337,745,o),
(354,603,o),
(354,471,cs),
(354,347,o),
(333,201,o),
(286,58,cs),
(238,-86,o),
(166,-226,o),
(62,-339,c)
);
}
);
width = 682;
}
);
unicode = 41;
},
{
glyphname = asterisk;
layers = (
{
layerId = "01BBB9D0-923D-4A6C-8EB0-69AD5A5509C5";
shapes = (
{
closed = 1;
nodes = (
(393,1397,l),
(265,1326,l),
(336,1209,l),
(455,1093,l),
(287,1125,l),
(156,1125,l),
(156,978,l),
(287,978,l),
(444,1011,l),
(331,904,l),
(258,798,l),
(393,726,l),
(457,832,l),
(505,978,l),
(567,826,l),
(637,718,l),
(758,790,l),
(699,889,l),
(578,1011,l),
(748,978,l),
(869,978,l),
(869,1126,l),
(744,1126,l),
(560,1093,l),
(682,1216,l),
(751,1327,l),
(625,1397,l),
(561,1290,l),
(507,1149,l),
(460,1291,l)
);
}
);
width = 1024;
},
{
layerId = "2CC194DC-208A-46E6-9B56-B5536ADC1FAA";
shapes = (
{
closed = 1;
nodes = (
(433,1437,l),
(299,1358,l),
(351,1270,l),
(447,1199,l),
(350,1235,l),
(233,1235,l),
(233,1082,l),
(347,1082,l),
(441,1115,l),
(360,1062,l),
(302,963,l),
(433,887,l),
(491,984,l),
(507,1082,l),
(536,970,l),
(585,883,l),
(721,959,l),
(673,1039,l),
(580,1118,l),
(684,1082,l),
(791,1082,l),
(791,1232,l),
(678,1232,l),
(569,1199,l),
(656,1264,l),
(714,1365,l),
(582,1437,l),
(528,1344,l),
(509,1249,l),
(486,1354,l)
);
}
);
width = 1024;
},
{
layerId = "7CF7CDD4-0A84-4151-8A85-E5A01EE42E23";
shapes = (
{
closed = 1;
nodes = (
(419,1423,l),
(287,1347,l),
(346,1249,l),
(450,1162,l),
(328,1197,l),
(206,1197,l),
(206,1046,l),
(326,1046,l),
(442,1079,l),
(350,1007,l),
(287,906,l),
(419,831,l),
(479,931,l),
(506,1046,l),
(547,920,l),
(603,826,l),
(734,900,l),
(682,987,l),
(579,1081,l),
(706,1046,l),
(818,1046,l),
(818,1195,l),
(701,1195,l),
(566,1162,l),
(665,1247,l),
(727,1352,l),
(597,1423,l),
(539,1325,l),
(508,1214,l),
(477,1332,l)
);
}
);
width = 1024;
},
{
layerId = "2C98FBFB-9C5A-4FF8-8654-E7A0DF5B1F27";
shapes = (
{
closed = 1;
nodes = (
(398,1402,l),
(269,1330,l),
(338,1217,l),
(454,1107,l),
(295,1140,l),
(166,1140,l),
(166,992,l),
(295,992,l),
(443,1025,l),
(335,925,l),
(264,820,l),
(398,747,l),
(461,852,l),
(505,992,l),
(563,845,l),
(630,740,l),
(753,812,l),
(695,909,l),
(578,1025,l),
(739,992,l),
(858,992,l),
(858,1140,l),
(735,1140,l),
(561,1107,l),
(678,1222,l),
(746,1332,l),
(619,1402,l),
(556,1297,l),
(507,1162,l),
(463,1299,l)
);
}
);
width = 1024;
}
);
unicode = 42;
},
{
glyphname = plus;
layers = (
{
layerId = "01BBB9D0-923D-4A6C-8EB0-69AD5A5509C5";
shapes = (
{
closed = 1;
nodes = (
(125,725,l),
(125,581,l),
(501,581,l),
(501,205,l),
(649,205,l),
(649,581,l),
(1027,581,l),
(1027,725,l),
(649,725,l),
(649,1098,l),
(501,1098,l),
(501,725,l)
);
}
);
width = 1152;
},
{
layerId = "2CC194DC-208A-46E6-9B56-B5536ADC1FAA";
shapes = (
{
closed = 1;
nodes = (
(121,792,l),
(121,513,l),
(443,513,l),
(443,176,l),
(732,176,l),
(732,513,l),
(1053,513,l),
(1053,792,l),
(732,792,l),
(732,1129,l),
(443,1129,l),
(443,792,l)
);
}
);
width = 1175;
},
{
layerId = "7CF7CDD4-0A84-4151-8A85-E5A01EE42E23";
shapes = (
{
closed = 1;
nodes = (
(122,769,l),
(122,536,l),
(463,536,l),
(463,186,l),
(703,186,l),
(703,536,l),
(1044,536,l),
(1044,769,l),
(703,769,l),
(703,1118,l),
(463,1118,l),
(463,769,l)
);
}
);
width = 1167;
},
{
layerId = "2C98FBFB-9C5A-4FF8-8654-E7A0DF5B1F27";
shapes = (
{
closed = 1;
nodes = (
(124,734,l),
(124,571,l),
(493,571,l),
(493,201,l),
(660,201,l),
(660,571,l),
(1030,571,l),
(1030,734,l),
(660,734,l),
(660,1102,l),
(493,1102,l),
(493,734,l)
);
}
);
width = 1155;
}
);
unicode = 43;
},
{
glyphname = comma;
layers = (
{
layerId = "01BBB9D0-923D-4A6C-8EB0-69AD5A5509C5";
shapes = (
{
closed = 1;
nodes = (
(149,43,o),
(162,14,o),
(188,-4,c),
(215,-21,o),
(246,-23,o),
(282,-10,c),
(285,-48,o),
(274,-86,o),
(249,-124,cs),
(224,-161,o),
(186,-190,o),
(134,-208,c),
(183,-291,l),
(289,-263,o),
(410,-168,o),
(410,22,cs),
(410,128,o),
(351,187,o),
(266,187,cs),
(201,187,o),
(149,141,o),
(149,81,cs)
);
}
);
width = 512;
},
{
layerId = "2CC194DC-208A-46E6-9B56-B5536ADC1FAA";
shapes = (
{
closed = 1;
nodes = (
(68,98,o),
(84,58,o),
(115,34,cs),
(145,10,o),
(174,-5,o),
(201,-7,c),
(192,-42,o),
(173,-74,o),
(147,-103,cs),
(120,-132,o),
(91,-149,o),
(62,-156,c),
(156,-285,l),
(263,-251,o),
(467,-170,o),
(467,105,cs),
(467,224,o),
(393,322,o),
(256,322,cs),
(155,322,o),
(68,268,o),
(68,156,cs)
);
}
);
width = 512;
},
{
layerId = "7CF7CDD4-0A84-4151-8A85-E5A01EE42E23";
shapes = (
{
closed = 1;
nodes = (
(96,79,o),
(111,43,o),
(140,21,cs),
(169,-1,o),
(199,-11,o),
(229,-8,c),
(224,-44,o),
(208,-78,o),
(182,-110,cs),
(156,-142,o),
(124,-163,o),
(87,-174,c),
(165,-287,l),
(272,-255,o),
(447,-169,o),
(447,76,cs),
(447,191,o),
(378,275,o),
(259,275,cs),
(171,275,o),
(96,224,o),
(96,130,cs)
);
}
);
width = 512;
},
{
layerId = "2C98FBFB-9C5A-4FF8-8654-E7A0DF5B1F27";
shapes = (
{
closed = 1;
nodes = (
(138,50,o),
(151,20,o),
(178,1,cs),
(205,-17,o),
(236,-20,o),
(271,-9,c),
(272,-47,o),
(260,-84,o),
(235,-121,cs),
(210,-157,o),
(173,-184,o),
(124,-201,c),
(179,-290,l),
(285,-261,o),
(417,-168,o),
(417,33,cs),
(417,141,o),
(356,205,o),
(264,205,cs),
(195,205,o),
(138,158,o),
(138,91,cs)
);
}
);
width = 512;
}
);
unicode = 44;
},
{
glyphname = hyphen;
layers = (
{
layerId = "01BBB9D0-923D-4A6C-8EB0-69AD5A5509C5";
shapes = (
{
closed = 1;
nodes = (
(85,634,l),
(85,488,l),
(598,488,l),
(598,634,l)
);
}
);
width = 682;
},
{
layerId = "2CC194DC-208A-46E6-9B56-B5536ADC1FAA";
shapes = (
{
closed = 1;
nodes = (
(73,701,l),
(73,412,l),
(609,412,l),
(609,701,l)
);
}
);
width = 682;
},
{
layerId = "7CF7CDD4-0A84-4151-8A85-E5A01EE42E23";
shapes = (
{
closed = 1;
nodes = (
(77,678,l),
(77,438,l),
(605,438,l),
(605,678,l)
);
}
);
width = 682;
},
{
layerId = "2C98FBFB-9C5A-4FF8-8654-E7A0DF5B1F27";
shapes = (
{
closed = 1;
nodes = (
(83,643,l),
(83,477,l),
(599,477,l),
(599,643,l)
);
}
);
width = 682;
}
);
unicode = (45,173);
},
{
glyphname = period;
layers = (
{
layerId = "01BBB9D0-923D-4A6C-8EB0-69AD5A5509C5";
shapes = (
{
closed = 1;
nodes = (
(137,28,o),
(180,-25,o),
(257,-25,cs),
(330,-25,o),
(375,30,o),
(376,90,cs),
(376,160,o),
(327,203,o),
(257,203,cs),
(182,203,o),
(137,160,o),
(137,90,cs)
);
}
);
width = 512;
},
{
layerId = "2CC194DC-208A-46E6-9B56-B5536ADC1FAA";
shapes = (
{
closed = 1;
nodes = (
(59,39,o),
(153,-21,o),
(253,-21,cs),
(355,-21,o),
(454,33,o),
(451,153,c),
(451,262,o),
(375,328,o),
(253,328,cs),
(139,328,o),
(59,262,o),
(59,153,cs)
);
}
);
width = 512;
},
{
layerId = "7CF7CDD4-0A84-4151-8A85-E5A01EE42E23";
shapes = (
{
closed = 1;
nodes = (
(86,35,o),
(162,-22,o),
(254,-22,cs),
(346,-22,o),
(427,32,o),
(425,131,c),
(425,227,o),
(358,285,o),
(254,285,cs),
(154,285,o),
(86,227,o),
(86,131,cs)
);
}
);
width = 512;
},
{
layerId = "2C98FBFB-9C5A-4FF8-8654-E7A0DF5B1F27";
shapes = (
{
closed = 1;
nodes = (
(126,29,o),
(176,-24,o),
(256,-24,cs),
(333,-24,o),
(386,30,o),
(386,98,cs),
(386,174,o),
(333,220,o),
(256,220,cs),
(176,220,o),
(126,174,o),
(126,98,cs)
);
}
);
width = 512;
}
);
unicode = 46;
},
{
glyphname = slash;
layers = (
{
layerId = "01BBB9D0-923D-4A6C-8EB0-69AD5A5509C5";
shapes = (
{
closed = 1;
nodes = (
(541,1380,l),
(-97,-183,l),
(23,-254,l),
(665,1314,l)
);
}
);
width = 569;
},
{
layerId = "2CC194DC-208A-46E6-9B56-B5536ADC1FAA";
shapes = (
{
closed = 1;
nodes = (
(382,1376,l),
(-86,-319,l),
(197,-383,l),
(656,1311,l)
);
}
);
width = 569;
},
{
layerId = "7CF7CDD4-0A84-4151-8A85-E5A01EE42E23";
shapes = (
{
closed = 1;
nodes = (
(428,1377,l),
(-81,-272,l),
(146,-338,l),
(650,1312,l)
);
}
);
width = 569;
},
{
layerId = "2C98FBFB-9C5A-4FF8-8654-E7A0DF5B1F27";
shapes = (
{
closed = 1;
nodes = (
(497,1379,l),
(-73,-201,l),
(69,-271,l),
(641,1313,l)
);
}
);
width = 569;
}
);
unicode = 47;
},
{
glyphname = zero;
layers = (
{
layerId = "7CF7CDD4-0A84-4151-8A85-E5A01EE42E23";
shapes = (
{
closed = 1;
nodes = (
(71,221,o),
(211,-28,o),
(512,-28,cs),
(817,-28,o),
(953,229,o),
(953,677,cs),
(953,1127,o),
(818,1382,o),
(512,1382,cs),
(215,1382,o),
(71,1137,o),
(71,677,cs)
);
},
{
closed = 1;
nodes = (
(338,996,o),
(360,1165,o),
(512,1165,cs),
(665,1165,o),
(686,989,o),
(686,677,cs),
(686,358,o),
(663,189,o),
(512,189,cs),
(361,189,o),
(338,365,o),
(338,677,cs)
);
}
);
width = 1024;
},
{
layerId = "2C98FBFB-9C5A-4FF8-8654-E7A0DF5B1F27";
shapes = (
{
closed = 1;
nodes = (
(81,259,o),
(182,-26,o),
(509,-26,cs),
(876,-26,o),
(943,325,o),
(943,678,cs),
(943,1043,o),
(881,1381,o),
(511,1381,cs),
(214,1381,o),
(81,1129,o),
(81,678,cs)
);
},
{
closed = 1;
nodes = (
(262,1048,o),
(313,1232,o),
(511,1232,cs),
(730,1232,o),
(763,992,o),
(763,678,cs),
(763,303,o),
(709,123,o),
(511,123,cs),
(313,123,o),
(262,364,o),
(262,678,cs)
);
}
);
width = 1024;
},
{
layerId = "01BBB9D0-923D-4A6C-8EB0-69AD5A5509C5";
shapes = (
{
closed = 1;
nodes = (
(84,272,o),
(172,-25,o),
(508,-25,cs),
(896,-25,o),
(940,357,o),
(940,678,cs),
(940,1015,o),
(902,1381,o),
(511,1381,cs),
(214,1381,o),
(84,1126,o),
(84,678,cs)
);
},
{
closed = 1;
nodes = (
(237,1065,o),
(297,1254,o),
(511,1254,cs),
(752,1254,o),
(789,993,o),
(789,678,cs),
(789,285,o),
(724,101,o),
(511,101,cs),
(297,101,o),
(237,364,o),
(237,678,cs)
);
}
);
width = 1024;
},
{
layerId = "2CC194DC-208A-46E6-9B56-B5536ADC1FAA";
shapes = (
{
closed = 1;
nodes = (
(64,196,o),
(230,-29,o),
(514,-29,cs),
(778,-29,o),
(960,165,o),
(960,676,cs),
(960,1183,o),
(776,1383,o),
(513,1383,cs),
(216,1383,o),
(64,1142,o),
(64,676,cs)
);
},
{
closed = 1;
nodes = (
(389,961,o),
(391,1120,o),
(513,1120,cs),
(622,1120,o),
(635,987,o),
(635,676,cs),
(635,395,o),
(632,233,o),
(513,233,cs),
(393,233,o),
(389,366,o),
(389,676,cs)
);
}
);
width = 1024;
}
);
unicode = 48;
},
{
glyphname = one;
layers = (
{
layerId = "7CF7CDD4-0A84-4151-8A85-E5A01EE42E23";
shapes = (
{
closed = 1;
nodes = (
(138,218,l),
(138,0,l),
(929,0,l),
(929,218,l),
(662,218,l),
(662,1358,l),
(517,1358,l),
(62,1017,l),
(166,864,l),
(328,970,l),
(426,1077,l),
(412,937,l),
(412,218,l)
);
}
);
width = 1024;
},
{
layerId = "2C98FBFB-9C5A-4FF8-8654-E7A0DF5B1F27";
shapes = (
{
closed = 1;
nodes = (
(137,157,l),
(137,0,l),
(897,0,l),
(897,157,l),
(604,157,l),
(604,1358,l),
(525,1358,l),
(57,1024,l),
(136,915,l),
(374,1075,l),
(457,1170,l),
(434,1055,l),
(434,157,l)
);
}
);
width = 1024;
},
{
layerId = "01BBB9D0-923D-4A6C-8EB0-69AD5A5509C5";
shapes = (
{
closed = 1;
nodes = (
(137,137,l),
(137,0,l),
(886,0,l),
(886,137,l),
(585,137,l),
(585,1358,l),
(528,1358,l),
(55,1026,l),
(126,932,l),
(389,1110,l),
(467,1201,l),
(441,1094,l),
(441,137,l)
);
}
);
width = 1024;
},
{
layerId = "2CC194DC-208A-46E6-9B56-B5536ADC1FAA";
shapes = (
{
closed = 1;
nodes = (
(139,259,l),
(139,0,l),
(950,0,l),
(950,259,l),
(701,259,l),
(701,1358,l),
(512,1358,l),
(65,1012,l),
(186,830,l),
(297,900,l),
(405,1015,l),
(397,858,l),
(397,259,l)
);
}
);
width = 1024;
}
);
unicode = 49;
},
{
glyphname = two;
layers = (
{
layerId = "7CF7CDD4-0A84-4151-8A85-E5A01EE42E23";
shapes = (
{
closed = 1;
nodes = (
(875,1262,o),
(697,1382,o),
(478,1382,cs),
(318,1382,o),
(189,1329,o),
(67,1237,c),
(174,1051,l),
(246,1112,o),
(324,1152,o),
(418,1152,cs),
(536,1152,o),
(608,1079,o),
(608,963,cs),
(608,703,o),
(325,359,o),
(53,126,c),
(53,0,l),
(882,0,l),
(882,218,l),
(518,218,l),
(370,190,l),
(370,197,l),
(478,278,l),
(646,468,o),
(875,743,o),
(875,1022,cs)
);
}
);
width = 1024;
},
{
layerId = "2C98FBFB-9C5A-4FF8-8654-E7A0DF5B1F27";
shapes = (
{
closed = 1;
nodes = (
(883,1267,o),
(718,1381,o),
(504,1381,cs),
(339,1381,o),
(205,1326,o),
(102,1243,c),
(177,1119,l),
(249,1178,o),
(360,1226,o),
(470,1226,cs),
(606,1226,o),
(703,1155,o),
(703,1013,cs),
(703,698,o),
(239,233,o),
(62,63,c),
(62,0,l),
(919,0,l),
(919,157,l),
(458,157,l),
(320,136,l),
(320,143,l),
(423,228,l),
(645,479,o),
(883,781,o),
(883,1040,cs)
);
}
);
width = 1024;
},
{
layerId = "01BBB9D0-923D-4A6C-8EB0-69AD5A5509C5";
shapes = (
{
closed = 1;
nodes = (
(886,1269,o),
(725,1381,o),
(513,1381,cs),
(346,1381,o),
(210,1325,o),
(114,1245,c),
(178,1142,l),
(250,1200,o),
(372,1251,o),
(487,1251,cs),
(629,1251,o),
(735,1180,o),
(735,1030,cs),
(735,696,o),
(210,191,o),
(65,42,c),
(65,0,l),
(931,0,l),
(931,137,l),
(438,137,l),
(303,118,l),
(303,125,l),
(405,211,l),
(645,483,o),
(886,794,o),
(886,1046,cs)
);
}
);
width = 1024;
},
{
layerId = "2CC194DC-208A-46E6-9B56-B5536ADC1FAA";
shapes = (
{
closed = 1;
nodes = (
(870,1259,o),
(683,1383,o),
(461,1383,cs),
(304,1383,o),
(178,1331,o),
(44,1233,c),
(172,1006,l),
(244,1068,o),
(300,1103,o),
(383,1103,cs),
(489,1103,o),
(545,1028,o),
(545,930,cs),
(545,706,o),
(382,443,o),
(47,168,c),
(47,0,l),
(857,0,l),
(857,259,l),
(558,259,l),
(403,226,l),
(403,233,l),
(515,311,l),
(647,461,o),
(870,718,o),
(870,1010,cs)
);
}
);
width = 1024;
}
);
unicode = 50;
},
{
glyphname = three;
layers = (
{
layerId = "7CF7CDD4-0A84-4151-8A85-E5A01EE42E23";
shapes = (
{
closed = 1;
nodes = (
(289,191,o),
(201,218,o),
(129,250,c),
(58,34,l),
(138,-5,o),
(283,-27,o),
(404,-27,cs),
(701,-27,o),
(916,117,o),
(916,419,cs),
(916,658,o),
(760,783,o),
(572,800,c),
(485,795,l),
(595,878,l),
(861,1219,l),
(861,1356,l),
(99,1356,l),
(99,1138,l),
(423,1138,l),
(568,1150,l),
(475,1066,l),
(227,751,l),
(227,617,l),
(364,617,ls),
(562,617,o),
(658,551,o),
(658,406,cs),
(658,288,o),
(577,191,o),
(401,191,cs)
);
}
);
width = 1024;
},
{
layerId = "2C98FBFB-9C5A-4FF8-8654-E7A0DF5B1F27";
shapes = (
{
closed = 1;
nodes = (
(312,126,o),
(226,150,o),
(158,181,c),
(112,29,l),
(192,-4,o),
(294,-26,o),
(420,-26,cs),
(698,-26,o),
(934,131,o),
(934,414,cs),
(934,638,o),
(766,790,o),
(541,791,c),
(468,776,l),
(542,837,l),
(877,1287,l),
(877,1356,l),
(113,1356,l),
(113,1200,l),
(529,1200,l),
(671,1217,l),
(570,1132,l),
(267,719,l),
(267,653,l),
(427,653,ls),
(637,653,o),
(758,570,o),
(758,396,cs),
(758,236,o),
(619,126,o),
(424,126,cs)
);
}
);
width = 1024;
},
{
layerId = "01BBB9D0-923D-4A6C-8EB0-69AD5A5509C5";
shapes = (
{
closed = 1;
nodes = (
(320,104,o),
(234,127,o),
(168,158,c),
(130,27,l),
(210,-4,o),
(298,-26,o),
(425,-26,cs),
(697,-26,o),
(940,136,o),
(940,412,cs),
(940,631,o),
(768,792,o),
(531,788,c),
(462,770,l),
(524,823,l),
(882,1310,l),
(882,1356,l),
(118,1356,l),
(118,1221,l),
(564,1221,l),
(705,1239,l),
(602,1154,l),
(280,708,l),
(280,665,l),
(448,665,ls),
(662,665,o),
(791,576,o),
(791,393,cs),
(791,219,o),
(633,104,o),
(432,104,cs)
);
}
);
width = 1024;
},
{
layerId = "2CC194DC-208A-46E6-9B56-B5536ADC1FAA";
shapes = (
{
closed = 1;
nodes = (
(274,234,o),
(184,263,o),
(110,296,c),
(22,37,l),
(102,-6,o),
(276,-28,o),
(393,-28,cs),
(703,-28,o),
(904,108,o),
(904,422,cs),
(904,671,o),
(756,778,o),
(593,806,c),
(496,808,l),
(630,905,l),
(850,1174,l),
(850,1356,l),
(90,1356,l),
(90,1097,l),
(352,1097,l),
(499,1105,l),
(412,1022,l),
(200,772,l),
(200,593,l),
(322,593,ls),
(512,593,o),
(591,538,o),
(591,413,cs),
(591,323,o),
(549,234,o),
(386,234,cs)
);
}
);
width = 1024;
}
);
unicode = 51;
},
{
glyphname = four;
layers = (
{
layerId = "7CF7CDD4-0A84-4151-8A85-E5A01EE42E23";
shapes = (
{
closed = 1;
nodes = (
(1010,379,l),
(1010,581,l),
(837,581,l),
(837,1356,l),
(625,1356,l),
(19,520,l),
(19,379,l),
(592,379,l),
(592,0,l),
(837,0,l),
(837,379,l)
);
},
{
closed = 1;
nodes = (
(592,865,l),
(592,581,l),
(398,581,l),
(275,573,l),
(351,651,l),
(527,886,l),
(598,1021,l)
);
}
);
width = 1024;
},
{
layerId = "2C98FBFB-9C5A-4FF8-8654-E7A0DF5B1F27";
shapes = (
{
closed = 1;
nodes = (
(992,412,l),
(992,558,l),
(802,558,l),
(802,1356,l),
(682,1356,l),
(15,486,l),
(15,412,l),
(632,412,l),
(632,0,l),
(802,0,l),
(802,412,l)
);
},
{
closed = 1;
nodes = (
(632,942,l),
(632,558,l),
(360,558,l),
(211,541,l),
(317,633,l),
(573,972,l),
(652,1096,l)
);
}
);
width = 1024;
},
{
layerId = "01BBB9D0-923D-4A6C-8EB0-69AD5A5509C5";
shapes = (
{
closed = 1;
nodes = (
(986,423,l),
(986,550,l),
(790,550,l),
(790,1356,l),
(701,1356,l),
(14,475,l),
(14,423,l),
(645,423,l),
(645,0,l),
(790,0,l),
(790,423,l)
);
},
{
closed = 1;
nodes = (
(645,968,l),
(645,550,l),
(347,550,l),
(190,530,l),
(306,627,l),
(588,1001,l),
(670,1121,l)
);
}
);
width = 1024;
},
{
layerId = "2CC194DC-208A-46E6-9B56-B5536ADC1FAA";
shapes = (
{
closed = 1;
nodes = (
(1022,357,l),
(1022,596,l),
(860,596,l),
(860,1356,l),
(587,1356,l),
(22,543,l),
(22,357,l),
(565,357,l),
(565,0,l),
(860,0,l),
(860,357,l)
);
},
{
closed = 1;
nodes = (
(565,814,l),
(565,596,l),
(423,596,l),
(318,594,l),
(374,663,l),
(496,829,l),
(562,971,l)
);
}
);
width = 1024;
}
);
unicode = 52;
},
{
glyphname = five;
layers = (
{
layerId = "7CF7CDD4-0A84-4151-8A85-E5A01EE42E23";
shapes = (
{
closed = 1;
nodes = (
(283,203,o),
(219,224,o),
(156,248,c),
(85,31,l),
(162,-1,o),
(270,-27,o),
(398,-27,cs),
(708,-27,o),
(925,131,o),
(925,435,c),
(924,694,o),
(758,857,o),
(486,868,c),
(397,859,l),
(397,1115,l),
(861,1115,l),
(861,1356,l),
(170,1356,l),
(170,642,l),
(339,650,ls),
(556,660,o),
(664,583,o),
(664,438,cs),
(664,299,o),
(575,203,o),
(395,203,cs)
);
}
);
width = 1024;
},
{
layerId = "2C98FBFB-9C5A-4FF8-8654-E7A0DF5B1F27";
shapes = (
{
closed = 1;
nodes = (
(274,129,o),
(206,141,o),
(141,165,c),
(94,18,l),
(171,-10,o),
(257,-26,o),
(380,-26,cs),
(666,-26,o),
(901,134,o),
(901,425,c),
(897,685,o),
(722,831,o),
(446,836,c),
(353,832,l),
(353,1193,l),
(860,1193,l),
(860,1356,l),
(190,1356,l),
(190,680,l),
(368,688,l),
(590,687,o),
(724,598,o),
(724,414,cs),
(724,211,o),
(564,129,o),
(386,129,cs)
);
}
);
width = 1024;
},
{
layerId = "01BBB9D0-923D-4A6C-8EB0-69AD5A5509C5";
shapes = (
{
closed = 1;
nodes = (
(271,104,o),
(202,113,o),
(136,137,c),
(97,14,l),
(174,-13,o),
(253,-26,o),
(374,-26,cs),
(652,-26,o),
(893,135,o),
(893,422,c),
(888,682,o),
(710,822,o),
(433,825,c),
(338,823,l),
(338,1219,l),
(860,1219,l),
(860,1356,l),
(197,1356,l),
(197,693,l),
(378,701,l),
(601,696,o),
(744,603,o),
(744,406,cs),
(744,182,o),
(560,104,o),
(383,104,cs)
);
}
);
width = 1024;
},
{
layerId = "2CC194DC-208A-46E6-9B56-B5536ADC1FAA";
shapes = (
{
closed = 1;
nodes = (
(289,252,o),
(228,279,o),
(166,303,c),
(79,40,l),
(156,5,o),
(279,-28,o),
(410,-28,cs),
(736,-28,o),
(941,129,o),
(941,442,c),
(942,700,o),
(782,874,o),
(513,889,c),
(426,877,l),
(426,1063,l),
(862,1063,l),
(862,1356,l),
(157,1356,l),
(157,617,l),
(320,625,l),
(533,642,o),
(624,573,o),
(624,454,cs),
(624,358,o),
(582,252,o),
(401,252,cs)
);
}
);
width = 1024;
}
);
unicode = 53;
},
{
glyphname = six;
layers = (
{
layerId = "7CF7CDD4-0A84-4151-8A85-E5A01EE42E23";
shapes = (
{
closed = 1;
nodes = (
(968,191,o),
(799,-27,o),
(511,-27,cs),
(225,-27,o),
(51,164,o),
(51,485,cs),
(51,967,o),
(351,1290,o),
(762,1356,c),
(784,1356,l),
(837,1157,l),
(526,1096,o),
(358,945,o),
(313,715,c),
(375,782,o),
(457,837,o),
(564,837,cs),
(824,837,o),
(968,671,o),
(968,429,cs)
);
},
{
closed = 1;
nodes = (
(715,548,o),
(654,620,o),
(506,620,cs),
(404,620,o),
(334,556,o),
(304,501,c),
(299,472,o),
(300,462,o),
(300,442,cs),
(300,324,o),
(350,191,o),
(515,191,cs),
(648,191,o),
(715,289,o),
(715,407,cs)
);
}
);
width = 1024;
},
{
layerId = "2C98FBFB-9C5A-4FF8-8654-E7A0DF5B1F27";
shapes = (
{
closed = 1;
nodes = (
(952,183,o),
(807,-26,o),
(518,-26,cs),
(240,-26,o),
(71,154,o),
(71,459,cs),
(71,870,o),
(288,1298,o),
(741,1356,c),
(763,1356,l),
(797,1220,l),
(490,1180,o),
(291,932,o),
(252,668,c),
(299,738,o),
(381,807,o),
(541,807,cs),
(809,807,o),
(952,656,o),
(952,407,cs)
);
},
{
closed = 1;
nodes = (
(778,573,o),
(700,662,o),
(507,662,cs),
(397,662,o),
(296,616,o),
(242,514,c),
(237,478,o),
(238,463,o),
(238,438,cs),
(238,292,o),
(321,121,o),
(520,121,cs),
(683,121,o),
(778,241,o),
(778,396,cs)
);
}
);
width = 1024;
},
{
layerId = "01BBB9D0-923D-4A6C-8EB0-69AD5A5509C5";
shapes = (
{
closed = 1;
nodes = (
(947,180,o),
(810,-26,o),
(520,-26,cs),
(245,-26,o),
(78,151,o),
(78,450,cs),
(78,838,o),
(267,1301,o),
(734,1356,c),
(756,1356,l),
(784,1241,l),
(478,1208,o),
(269,928,o),
(232,652,c),
(274,723,o),
(356,797,o),
(533,797,cs),
(804,797,o),
(947,651,o),
(947,400,cs)
);
},
{
closed = 1;
nodes = (
(799,581,o),
(715,676,o),
(507,676,cs),
(395,676,o),
(283,636,o),
(221,518,c),
(216,480,o),
(217,463,o),
(217,437,cs),
(217,281,o),
(311,98,o),
(522,98,cs),
(695,98,o),
(799,225,o),
(799,392,cs)
);
}
);
width = 1024;
},
{
layerId = "2CC194DC-208A-46E6-9B56-B5536ADC1FAA";
shapes = (
{
closed = 1;
nodes = (
(979,196,o),
(794,-28,o),
(506,-28,cs),
(215,-28,o),
(38,171,o),
(38,502,cs),
(38,1032,o),
(393,1285,o),
(776,1356,c),
(798,1356,l),
(864,1115,l),
(550,1040,o),
(403,954,o),
(354,746,c),
(426,811,o),
(508,857,o),
(579,857,cs),
(834,857,o),
(979,681,o),
(979,444,cs)
);
},
{
closed = 1;
nodes = (
(673,531,o),
(623,592,o),
(505,592,cs),
(409,592,o),
(359,516,o),
(345,492,c),
(340,468,o),
(341,461,o),
(341,445,cs),
(341,345,o),
(369,238,o),
(512,238,cs),
(625,238,o),
(673,321,o),
(673,414,cs)
);
}
);
width = 1024;
}
);
unicode = 54;
},
{
glyphname = seven;
layers = (
{
layerId = "7CF7CDD4-0A84-4151-8A85-E5A01EE42E23";
shapes = (
{
closed = 1;
nodes = (
(150,0,l),
(405,0,l),
(963,1283,l),
(963,1356,l),
(70,1356,l),
(70,1111,l),
(528,1111,l),
(673,1123,l),
(586,991,l)
);
}
);
width = 1024;
},
{
layerId = "2C98FBFB-9C5A-4FF8-8654-E7A0DF5B1F27";
shapes = (
{
closed = 1;
nodes = (
(163,0,l),
(340,0,l),
(956,1301,l),
(956,1356,l),
(57,1356,l),
(57,1194,l),
(666,1194,l),
(789,1215,l),
(695,1124,l)
);
}
);
width = 1024;
},
{
layerId = "01BBB9D0-923D-4A6C-8EB0-69AD5A5509C5";
shapes = (
{
closed = 1;
nodes = (
(167,0,l),
(318,0,l),
(954,1307,l),
(954,1356,l),
(53,1356,l),
(53,1222,l),
(712,1222,l),
(828,1246,l),
(731,1168,l)
);
}
);
width = 1024;
},
{
layerId = "2CC194DC-208A-46E6-9B56-B5536ADC1FAA";
shapes = (
{
closed = 1;
nodes = (
(141,0,l),
(448,0,l),
(968,1271,l),
(968,1356,l),
(79,1356,l),
(79,1056,l),
(436,1056,l),
(596,1062,l),
(513,902,l)
);
}
);
width = 1024;
}
);
unicode = 55;
},
{
glyphname = eight;
layers = (
{
layerId = "7CF7CDD4-0A84-4151-8A85-E5A01EE42E23";
shapes = (
{
closed = 1;
nodes = (
(154,612,o),
(55,514,o),
(55,334,cs),
(55,123,o),
(223,-27,o),
(504,-27,cs),
(788,-27,o),
(970,134,o),
(970,363,cs),
(970,532,o),
(863,640,o),
(722,716,c),
(850,798,o),
(932,902,o),
(932,1055,cs),
(932,1248,o),
(776,1382,o),
(523,1382,cs),
(249,1382,o),
(93,1223,o),
(93,1024,cs),
(93,862,o),
(190,777,o),
(307,692,c)
);
},
{
closed = 1;
nodes = (
(588,549,o),
(721,478,o),
(721,361,cs),
(721,250,o),
(643,191,o),
(510,191,cs),
(391,191,o),
(295,258,o),
(295,376,cs),
(295,486,o),
(375,562,o),
(462,608,c)
);
},
{
closed = 1;
nodes = (
(453,839,o),
(342,895,o),
(342,1021,cs),
(342,1099,o),
(391,1165,o),
(518,1165,cs),
(619,1165,o),
(693,1104,o),
(693,1003,cs),
(693,924,o),
(660,853,o),
(574,786,c)
);
}
);
width = 1024;
},
{
layerId = "2C98FBFB-9C5A-4FF8-8654-E7A0DF5B1F27";
shapes = (
{
closed = 1;
nodes = (
(167,601,o),
(75,490,o),
(75,329,cs),
(75,134,o),
(231,-26,o),
(500,-26,cs),
(785,-26,o),
(949,139,o),
(949,358,cs),
(949,537,o),
(831,629,o),
(680,713,c),
(809,794,o),
(916,902,o),
(916,1069,cs),
(916,1246,o),
(760,1381,o),
(525,1381,cs),
(268,1381,o),
(108,1234,o),
(108,1038,cs),
(108,865,o),
(220,774,o),
(362,698,c)
);
},
{
closed = 1;
nodes = (
(630,567,o),
(779,493,o),
(779,350,cs),
(779,198,o),
(654,123,o),
(509,123,cs),
(336,123,o),
(242,232,o),
(242,353,cs),
(242,484,o),
(364,583,o),
(478,641,c)
);
},
{
closed = 1;
nodes = (
(413,834,o),
(281,896,o),
(281,1042,cs),
(281,1135,o),
(369,1232,o),
(519,1232,cs),
(640,1232,o),
(748,1157,o),
(748,1034,cs),
(748,932,o),
(687,850,o),
(563,763,c)
);
}
);
width = 1024;
},
{
layerId = "01BBB9D0-923D-4A6C-8EB0-69AD5A5509C5";
shapes = (
{
closed = 1;
nodes = (
(171,597,o),
(82,482,o),
(82,327,cs),
(82,138,o),
(234,-26,o),
(499,-26,cs),
(784,-26,o),
(942,141,o),
(942,356,cs),
(942,539,o),
(820,625,o),
(666,712,c),
(795,793,o),
(911,902,o),
(911,1074,cs),
(911,1245,o),
(755,1381,o),
(526,1381,cs),
(274,1381,o),
(113,1238,o),
(113,1043,cs),
(113,866,o),
(230,773,o),
(380,700,c)
);
},
{
closed = 1;
nodes = (
(644,573,o),
(798,498,o),
(798,346,cs),
(798,181,o),
(658,100,o),
(509,100,cs),
(318,100,o),
(224,223,o),
(224,345,cs),
(224,483,o),
(360,590,o),
(483,652,c)
);
},
{
closed = 1;
nodes = (
(400,832,o),
(261,896,o),
(261,1049,cs),
(261,1147,o),
(362,1254,o),
(519,1254,cs),
(647,1254,o),
(766,1175,o),
(766,1044,cs),
(766,935,o),
(696,849,o),
(559,755,c)
);
}
);
width = 1024;
},
{
layerId = "2CC194DC-208A-46E6-9B56-B5536ADC1FAA";
shapes = (
{
closed = 1;
nodes = (
(145,619,o),
(42,530,o),
(42,337,cs),
(42,116,o),
(218,-28,o),
(507,-28,cs),
(790,-28,o),
(984,131,o),
(984,366,cs),
(984,529,o),
(884,647,o),
(750,718,c),
(877,801,o),
(943,902,o),
(943,1046,cs),
(943,1249,o),
(787,1383,o),
(522,1383,cs),
(236,1383,o),
(83,1216,o),
(83,1015,cs),
(83,860,o),
(170,779,o),
(270,688,c)
);
},
{
closed = 1;
nodes = (
(560,537,o),
(682,468,o),
(682,368,cs),
(682,285,o),
(636,236,o),
(511,236,cs),
(428,236,o),
(330,275,o),
(330,391,cs),
(330,487,o),
(382,548,o),
(451,586,c)
);
},
{
closed = 1;
nodes = (
(480,842,o),
(383,894,o),
(383,1007,cs),
(383,1075,o),
(406,1120,o),
(517,1120,cs),
(605,1120,o),
(656,1069,o),
(656,982,cs),
(656,919,o),
(642,855,o),
(581,801,c)
);
}
);
width = 1024;
}
);
unicode = 56;
},
{
glyphname = nine;
layers = (
{
layerId = "7CF7CDD4-0A84-4151-8A85-E5A01EE42E23";
shapes = (
{
closed = 1;
nodes = (
(56,1165,o),
(225,1383,o),
(513,1383,cs),
(799,1383,o),
(973,1192,o),
(973,871,cs),
(973,389,o),
(673,66,o),
(262,0,c),
(240,0,l),
(187,199,l),
(498,260,o),
(666,411,o),
(711,641,c),
(649,574,o),
(567,519,o),
(460,519,cs),
(200,519,o),
(56,685,o),
(56,927,cs)
);
},
{
closed = 1;
nodes = (
(309,808,o),
(370,736,o),
(518,736,cs),
(620,736,o),
(690,800,o),
(720,855,c),
(725,884,o),
(724,894,o),
(724,914,cs),
(724,1032,o),
(674,1165,o),
(509,1165,cs),
(376,1165,o),
(309,1067,o),
(309,949,cs)
);
}
);
width = 1024;
},
{
layerId = "2C98FBFB-9C5A-4FF8-8654-E7A0DF5B1F27";
shapes = (
{
closed = 1;
nodes = (
(72,1173,o),
(217,1382,o),
(506,1382,cs),
(784,1382,o),
(954,1203,o),
(954,898,cs),
(954,486,o),
(736,58,o),
(283,0,c),
(261,0,l),
(228,136,l),
(534,176,o),
(733,424,o),
(772,688,c),
(725,618,o),
(643,549,o),
(483,549,cs),
(215,549,o),
(72,700,o),
(72,949,cs)
);
},
{
closed = 1;
nodes = (
(246,783,o),
(324,694,o),
(517,694,cs),
(627,694,o),
(728,740,o),
(782,842,c),
(787,878,o),
(786,893,o),
(786,919,cs),
(786,1064,o),
(703,1236,o),
(505,1236,cs),
(341,1236,o),
(246,1115,o),
(246,961,cs)
);
}
);
width = 1024;
},
{
layerId = "01BBB9D0-923D-4A6C-8EB0-69AD5A5509C5";
shapes = (
{
closed = 1;
nodes = (
(77,1176,o),
(214,1382,o),
(504,1382,cs),
(779,1382,o),
(948,1207,o),
(948,907,cs),
(948,518,o),
(757,55,o),
(290,0,c),
(268,0,l),
(242,115,l),
(546,148,o),
(755,428,o),
(792,704,c),
(750,633,o),
(668,559,o),
(491,559,cs),
(220,559,o),
(77,705,o),
(77,956,cs)
);
},
{
closed = 1;
nodes = (
(225,775,o),
(309,680,o),
(517,680,cs),
(629,680,o),
(741,720,o),
(803,838,c),
(808,876,o),
(807,893,o),
(807,921,cs),
(807,1075,o),
(713,1260,o),
(504,1260,cs),
(329,1260,o),
(225,1131,o),
(225,965,cs)
);
}
);
width = 1024;
},
{
layerId = "2CC194DC-208A-46E6-9B56-B5536ADC1FAA";
shapes = (
{
closed = 1;
nodes = (
(45,1160,o),
(230,1384,o),
(518,1384,cs),
(809,1384,o),
(986,1185,o),
(986,853,cs),
(986,324,o),
(631,71,o),
(248,0,c),
(226,0,l),
(160,241,l),
(474,316,o),
(621,402,o),
(670,610,c),
(598,545,o),
(516,499,o),
(445,499,cs),
(190,499,o),
(45,675,o),
(45,912,cs)
);
},
{
closed = 1;
nodes = (
(351,825,o),
(401,764,o),
(519,764,cs),
(615,764,o),
(665,840,o),
(679,864,c),
(684,888,o),
(683,895,o),
(683,911,cs),
(683,1011,o),
(655,1118,o),
(512,1118,cs),
(399,1118,o),
(351,1035,o),
(351,941,cs)
);
}
);
width = 1024;
}
);
unicode = 57;
},
{
glyphname = colon;
layers = (
{
layerId = "01BBB9D0-923D-4A6C-8EB0-69AD5A5509C5";
shapes = (
{
closed = 1;
nodes = (
(151,810,o),
(198,757,o),
(270,757,cs),
(343,757,o),
(389,811,o),
(389,871,cs),
(389,942,o),
(340,985,o),
(270,985,cs),
(200,985,o),
(151,942,o),
(151,871,cs)
);
},
{
closed = 1;
nodes = (
(151,29,o),
(198,-25,o),
(270,-25,cs),
(343,-25,o),
(389,30,o),
(389,90,cs),
(389,160,o),
(340,203,o),
(270,203,cs),
(200,203,o),
(151,160,o),
(151,90,cs)
);
}
);
width = 540;
},
{
layerId = "2CC194DC-208A-46E6-9B56-B5536ADC1FAA";
shapes = (
{
closed = 1;
nodes = (
(183,683,o),
(275,624,o),
(377,624,cs),
(479,624,o),
(579,678,o),
(576,798,c),
(576,907,o),
(499,973,o),
(377,973,cs),
(261,973,o),
(183,907,o),
(183,798,cs)
);
},
{
closed = 1;
nodes = (
(183,38,o),
(275,-21,o),
(377,-21,cs),
(479,-21,o),
(579,33,o),
(576,153,c),
(576,262,o),
(499,328,o),
(377,328,cs),
(261,328,o),
(183,262,o),
(183,153,cs)
);
}
);
width = 757;
},
{
layerId = "7CF7CDD4-0A84-4151-8A85-E5A01EE42E23";
shapes = (
{
closed = 1;
nodes = (
(172,727,o),
(248,670,o),
(340,670,cs),
(432,670,o),
(513,724,o),
(511,823,c),
(511,919,o),
(444,977,o),
(340,977,cs),
(240,977,o),
(172,919,o),
(172,823,cs)
);
},
{
closed = 1;
nodes = (
(172,35,o),
(248,-22,o),
(340,-22,cs),
(432,-22,o),
(513,32,o),
(511,131,c),
(511,227,o),
(444,285,o),
(340,285,cs),
(240,285,o),
(172,227,o),
(172,131,cs)
);
}
);
width = 682;
},
{
layerId = "2C98FBFB-9C5A-4FF8-8654-E7A0DF5B1F27";
shapes = (
{
closed = 1;
nodes = (
(155,793,o),
(208,739,o),
(284,739,cs),
(361,739,o),
(414,793,o),
(414,861,cs),
(414,937,o),
(361,983,o),
(284,983,cs),
(208,983,o),
(155,937,o),
(155,861,cs)
);
},
{
closed = 1;
nodes = (
(155,30,o),
(208,-24,o),
(284,-24,cs),
(361,-24,o),
(414,30,o),
(414,98,cs),
(414,174,o),
(361,220,o),
(284,220,cs),
(208,220,o),
(155,174,o),
(155,98,cs)
);
}
);
width = 569;
}
);
unicode = 58;
},
{
glyphname = semicolon;
layers = (
{
layerId = "01BBB9D0-923D-4A6C-8EB0-69AD5A5509C5";
shapes = (
{
closed = 1;
nodes = (
(159,43,o),
(171,14,o),
(198,-4,cs),
(224,-21,o),
(255,-23,o),
(293,-10,c),
(295,-48,o),
(285,-86,o),
(260,-124,cs),
(236,-161,o),
(198,-190,o),
(143,-208,c),
(191,-291,l),
(298,-263,o),
(419,-168,o),
(419,22,cs),
(419,128,o),
(356,187,o),
(275,187,cs),
(207,187,o),
(159,141,o),
(159,81,cs)
);
},
{
closed = 1;
nodes = (
(172,809,o),
(215,757,o),
(291,757,cs),
(363,757,o),
(409,811,o),
(410,871,cs),
(410,942,o),
(360,985,o),
(291,985,cs),
(217,985,o),
(172,942,o),
(172,871,cs)
);
}
);
width = 540;
},
{
layerId = "2CC194DC-208A-46E6-9B56-B5536ADC1FAA";
shapes = (
{
closed = 1;
nodes = (
(178,98,o),
(194,58,o),
(224,34,cs),
(255,10,o),
(284,-5,o),
(310,-7,c),
(301,-42,o),
(282,-74,o),
(256,-103,c),
(228,-132,o),
(200,-149,o),
(172,-156,c),
(266,-285,l),
(373,-251,o),
(577,-170,o),
(577,105,cs),
(577,224,o),
(504,322,o),
(365,322,cs),
(267,322,o),
(178,268,o),
(178,156,cs)
);
},
{
closed = 1;
nodes = (
(169,684,o),
(263,624,o),
(363,624,cs),
(465,624,o),
(565,678,o),
(562,798,c),
(562,907,o),
(485,973,o),
(363,973,cs),
(249,973,o),
(169,907,o),
(169,798,cs)
);
}
);
width = 757;
},
{
layerId = "7CF7CDD4-0A84-4151-8A85-E5A01EE42E23";
shapes = (
{
closed = 1;
nodes = (
(171,79,o),
(186,43,o),
(215,21,cs),
(244,-1,o),
(274,-11,o),
(304,-8,c),
(299,-44,o),
(283,-78,o),
(257,-110,cs),
(231,-142,o),
(199,-163,o),
(162,-174,c),
(240,-287,l),
(347,-255,o),
(522,-169,o),
(522,76,cs),
(522,191,o),
(453,275,o),
(334,275,cs),
(246,275,o),
(171,224,o),
(171,130,cs)
);
},
{
closed = 1;
nodes = (
(170,727,o),
(246,670,o),
(338,670,cs),
(430,670,o),
(511,724,o),
(509,823,c),
(509,919,o),
(442,977,o),
(338,977,cs),
(238,977,o),
(170,919,o),
(170,823,cs)
);
}
);
width = 682;
},
{
layerId = "2C98FBFB-9C5A-4FF8-8654-E7A0DF5B1F27";
shapes = (
{
closed = 1;
nodes = (
(161,50,o),
(174,20,o),
(201,1,cs),
(228,-17,o),
(259,-20,o),
(295,-9,c),
(296,-47,o),
(284,-84,o),
(259,-121,cs),
(235,-157,o),
(198,-184,o),
(147,-201,c),
(201,-290,l),
(308,-261,o),
(440,-168,o),
(440,33,cs),
(440,141,o),
(376,205,o),
(287,205,cs),
(215,205,o),
(161,158,o),
(161,91,cs)
);
},
{
closed = 1;
nodes = (
(171,792,o),
(221,739,o),
(301,739,cs),
(377,739,o),
(430,793,o),
(430,861,cs),
(430,937,o),
(377,983,o),
(301,983,cs),
(221,983,o),
(171,937,o),
(171,861,cs)
);
}
);
width = 569;
}
);
unicode = (59,894);
},
{
glyphname = less;
layers = (
{
layerId = "01BBB9D0-923D-4A6C-8EB0-69AD5A5509C5";
shapes = (
{
closed = 1;
nodes = (
(91,590,l),
(912,158,l),
(983,279,l),
(468,559,l),
(276,621,l),
(470,694,l),
(972,976,l),
(900,1103,l),
(91,644,l)
);
}
);
width = 1152;
},
{
layerId = "2CC194DC-208A-46E6-9B56-B5536ADC1FAA";
shapes = (
{
closed = 1;
nodes = (
(120,526,l),
(960,86,l),
(1090,311,l),
(633,567,l),
(445,624,l),
(635,690,l),
(1082,950,l),
(948,1172,l),
(120,716,l)
);
}
);
width = 1175;
},
{
layerId = "7CF7CDD4-0A84-4151-8A85-E5A01EE42E23";
shapes = (
{
closed = 1;
nodes = (
(110,548,l),
(943,111,l),
(1053,300,l),
(576,564,l),
(386,623,l),
(578,691,l),
(1044,959,l),
(931,1148,l),
(110,691,l)
);
}
);
width = 1167;
},
{
layerId = "2C98FBFB-9C5A-4FF8-8654-E7A0DF5B1F27";
shapes = (
{
closed = 1;
nodes = (
(95,581,l),
(918,148,l),
(997,283,l),
(490,560,l),
(298,621,l),
(492,693,l),
(987,972,l),
(906,1112,l),
(95,654,l)
);
}
);
width = 1155;
}
);
unicode = 60;
},
{
glyphname = equal;
layers = (
{
layerId = "01BBB9D0-923D-4A6C-8EB0-69AD5A5509C5";
shapes = (
{
closed = 1;
nodes = (
(126,885,l),
(126,742,l),
(1027,742,l),
(1027,885,l)
);
},
{
closed = 1;
nodes = (
(126,564,l),
(126,420,l),
(1027,420,l),
(1027,564,l)
);
}
);
width = 1152;
},
{
layerId = "2CC194DC-208A-46E6-9B56-B5536ADC1FAA";
shapes = (
{
closed = 1;
nodes = (
(120,995,l),
(120,715,l),
(1056,715,l),
(1056,995,l)
);
},
{
closed = 1;
nodes = (
(120,590,l),
(120,312,l),
(1056,312,l),
(1056,590,l)
);
}
);
width = 1175;
},
{
layerId = "7CF7CDD4-0A84-4151-8A85-E5A01EE42E23";
shapes = (
{
closed = 1;
nodes = (
(122,957,l),
(122,724,l),
(1046,724,l),
(1046,957,l)
);
},
{
closed = 1;
nodes = (
(122,581,l),
(122,349,l),
(1046,349,l),
(1046,581,l)
);
}
);
width = 1167;
},
{
layerId = "2C98FBFB-9C5A-4FF8-8654-E7A0DF5B1F27";
shapes = (
{
closed = 1;
nodes = (
(125,900,l),
(125,738,l),
(1031,738,l),
(1031,900,l)
);
},
{
closed = 1;
nodes = (
(125,567,l),
(125,405,l),
(1031,405,l),
(1031,567,l)
);
}
);
width = 1155;
}
);
unicode = 61;
},
{
glyphname = greater;
layers = (
{
layerId = "01BBB9D0-923D-4A6C-8EB0-69AD5A5509C5";
shapes = (
{
closed = 1;
nodes = (
(1061,664,l),
(238,1102,l),
(170,978,l),
(684,698,l),
(875,635,l),
(682,563,l),
(179,281,l),
(250,156,l),
(1061,609,l)
);
}
);
width = 1152;
},
{
layerId = "2CC194DC-208A-46E6-9B56-B5536ADC1FAA";
shapes = (
{
closed = 1;
nodes = (
(1055,736,l),
(215,1177,l),
(85,952,l),
(545,694,l),
(734,638,l),
(543,569,l),
(95,313,l),
(224,84,l),
(1055,545,l)
);
}
);
width = 1175;
},
{
layerId = "7CF7CDD4-0A84-4151-8A85-E5A01EE42E23";
shapes = (
{
closed = 1;
nodes = (
(1057,711,l),
(223,1151,l),
(114,961,l),
(593,695,l),
(783,637,l),
(591,567,l),
(124,302,l),
(233,109,l),
(1057,567,l)
);
}
);
width = 1167;
},
{
layerId = "2C98FBFB-9C5A-4FF8-8654-E7A0DF5B1F27";
shapes = (
{
closed = 1;
nodes = (
(1060,674,l),
(235,1112,l),
(158,974,l),
(665,697,l),
(856,635,l),
(663,564,l),
(167,285,l),
(246,146,l),
(1060,600,l)
);
}
);
width = 1155;
}
);
unicode = 62;
},
{
glyphname = question;
layers = (
{
layerId = "01BBB9D0-923D-4A6C-8EB0-69AD5A5509C5";
shapes = (
{
closed = 1;
nodes = (
(428,342,l),
(428,513,o),
(530,599,o),
(621,691,cs),
(707,778,o),
(815,873,o),
(815,1058,cs),
(815,1223,o),
(705,1380,o),
(442,1381,c),
(306,1381,o),
(205,1350,o),
(80,1279,c),
(130,1155,l),
(224,1202,o),
(291,1243,o),
(402,1243,cs),
(532,1243,o),
(644,1191,o),
(644,1038,cs),
(644,885,o),
(529,809,o),
(424,696,c),
(356,616,o),
(279,522,o),
(294,342,c)
);
},
{
closed = 1;
nodes = (
(251,28,o),
(293,-25,o),
(370,-25,cs),
(443,-25,o),
(489,30,o),
(490,90,cs),
(490,160,o),
(440,203,o),
(370,203,cs),
(296,203,o),
(251,160,o),
(251,90,cs)
);
}
);
width = 879;
},
{
layerId = "2CC194DC-208A-46E6-9B56-B5536ADC1FAA";
shapes = (
{
closed = 1;
nodes = (
(604,446,l),
(604,586,o),
(668,643,o),
(796,706,c),
(963,793,o),
(988,904,o),
(988,1050,cs),
(988,1330,o),
(722,1386,o),
(540,1383,c),
(367,1383,o),
(202,1352,o),
(65,1250,c),
(199,1008,l),
(247,1065,o),
(420,1110,o),
(492,1110,cs),
(581,1110,o),
(646,1100,o),
(646,1000,cs),
(646,931,o),
(531,876,o),
(479,857,c),
(310,751,o),
(298,589,o),
(313,446,c)
);
},
{
closed = 1;
nodes = (
(274,36,o),
(366,-21,o),
(468,-21,cs),
(570,-21,o),
(668,33,o),
(665,153,c),
(665,262,o),
(588,328,o),
(468,328,cs),
(353,328,o),
(274,262,o),
(274,153,cs)
);
}
);
width = 1101;
},
{
layerId = "7CF7CDD4-0A84-4151-8A85-E5A01EE42E23";
shapes = (
{
closed = 1;
nodes = (
(543,410,l),
(543,561,o),
(620,628,o),
(735,701,cs),
(874,788,o),
(928,893,o),
(928,1053,cs),
(928,1293,o),
(716,1384,o),
(506,1382,c),
(346,1382,o),
(203,1351,o),
(70,1260,c),
(175,1059,l),
(239,1112,o),
(375,1156,o),
(461,1156,cs),
(564,1156,o),
(645,1131,o),
(645,1013,cs),
(645,915,o),
(530,853,o),
(460,801,cs),
(326,704,o),
(291,566,o),
(306,410,c)
);
},
{
closed = 1;
nodes = (
(266,33,o),
(341,-22,o),
(434,-22,cs),
(526,-22,o),
(606,32,o),
(604,131,c),
(604,227,o),
(537,285,o),
(434,285,cs),
(333,285,o),
(266,227,o),
(266,131,cs)
);
}
);
width = 1024;
},
{
layerId = "2C98FBFB-9C5A-4FF8-8654-E7A0DF5B1F27";
shapes = (
{
closed = 1;
nodes = (
(451,356,l),
(451,523,o),
(548,605,o),
(644,693,cs),
(741,780,o),
(838,877,o),
(838,1057,cs),
(838,1237,o),
(707,1381,o),
(455,1381,cs),
(314,1381,o),
(204,1350,o),
(78,1275,c),
(139,1135,l),
(227,1183,o),
(308,1225,o),
(414,1225,cs),
(538,1225,o),
(644,1178,o),
(644,1033,cs),
(644,891,o),
(529,818,o),
(431,717,cs),
(350,634,o),
(281,531,o),
(296,356,c)
);
},
{
closed = 1;
nodes = (
(254,29,o),
(303,-24,o),
(383,-24,cs),
(460,-24,o),
(513,30,o),
(513,98,cs),
(513,174,o),
(460,220,o),
(383,220,cs),
(303,220,o),
(254,174,o),
(254,98,cs)
);
}
);
width = 909;
}
);
unicode = 63;
},
{
glyphname = at;
layers = (
{
layerId = "01BBB9D0-923D-4A6C-8EB0-69AD5A5509C5";
shapes = (
{
closed = 1;
nodes = (
(1277,853,l),
(1211,795,l),
(1143,841,o),
(1095,864,o),
(1015,864,cs),
(752,864,o),
(514,549,o),
(519,274,c),
(519,114,o),
(620,5,o),
(740,5,cs),
(895,5,o),
(1014,137,o),
(1093,247,c),
(1099,247,l),
(1063,62,o),
(1131,5,o),
(1263,5,cs),
(1546,5,o),
(1784,279,o),
(1784,566,cs),
(1784,992,o),
(1433,1268,o),
(982,1268,cs),
(499,1268,o),
(91,926,o),
(90,409,c),
(90,-90,o),
(467,-379,o),
(943,-379,cs),
(1057,-379,o),
(1141,-368,o),
(1250,-321,c),
(1217,-206,l),
(1140,-238,o),
(1038,-257,o),
(969,-257,cs),
(519,-257,o),
(226,3,o),
(226,420,cs),
(226,836,o),
(557,1144,o),
(972,1144,cs),
(1367,1144,o),
(1655,930,o),
(1655,564,cs),
(1655,303,o),
(1466,126,o),
(1290,126,cs),
(1249,126,o),
(1227,141,o),
(1221,170,c),
(1215,210,o),
(1220,273,o),
(1235,358,c),
(1334,853,l)
);
},
{
closed = 1;
nodes = (
(1115,432,l),
(1039,282,o),
(905,126,o),
(801,126,cs),
(698,126,o),
(661,196,o),
(661,290,cs),
(661,489,o),
(817,742,o),
(1021,742,cs),
(1087,742,o),
(1124,724,o),
(1169,676,c)
);
}
);
width = 1881;
},
{
layerId = "2CC194DC-208A-46E6-9B56-B5536ADC1FAA";
shapes = (
{
closed = 1;
nodes = (
(1240,864,l),
(1184,806,l),
(1135,847,o),
(1075,875,o),
(978,875,cs),
(719,875,o),
(506,601,o),
(504,316,c),
(504,160,o),
(605,59,o),
(732,59,cs),
(895,59,o),
(977,134,o),
(1058,247,c),
(1066,247,l),
(1055,99,o),
(1168,59,o),
(1297,59,cs),
(1618,59,o),
(1856,279,o),
(1856,589,cs),
(1856,1029,o),
(1512,1310,o),
(1026,1310,cs),
(525,1310,o),
(91,958,o),
(98,426,c),
(98,-92,o),
(432,-385,o),
(957,-385,cs),
(1082,-385,o),
(1210,-368,o),
(1329,-315,c),
(1257,-92,l),
(1180,-122,o),
(1084,-143,o),
(986,-143,cs),
(534,-143,o),
(356,92,o),
(356,435,cs),
(356,784,o),
(630,1068,o),
(1026,1068,cs),
(1336,1068,o),
(1597,956,o),
(1597,606,cs),
(1597,375,o),
(1503,293,o),
(1396,293,cs),
(1344,293,o),
(1316,320,o),
(1319,392,c),
(1322,400,o),
(1326,400,o),
(1325,396,c),
(1418,864,l)
);
},
{
closed = 1;
nodes = (
(1066,420,l),
(1016,343,o),
(954,293,o),
(891,293,cs),
(811,293,o),
(786,342,o),
(786,408,cs),
(786,504,o),
(872,640,o),
(1003,640,cs),
(1054,640,o),
(1081,631,o),
(1111,612,c)
);
}
);
width = 1918;
},
{
layerId = "7CF7CDD4-0A84-4151-8A85-E5A01EE42E23";
shapes = (
{
closed = 1;
nodes = (
(1253,860,l),
(1193,802,l),
(1138,845,o),
(1082,871,o),
(991,871,cs),
(730,871,o),
(509,583,o),
(509,301,cs),
(509,144,o),
(610,40,o),
(735,40,cs),
(895,40,o),
(990,135,o),
(1070,247,c),
(1077,247,l),
(1058,86,o),
(1155,40,o),
(1285,40,cs),
(1593,40,o),
(1831,279,o),
(1831,581,cs),
(1831,1016,o),
(1485,1295,o),
(1011,1295,cs),
(516,1295,o),
(91,947,o),
(95,420,c),
(95,-91,o),
(444,-383,o),
(952,-383,cs),
(1073,-383,o),
(1186,-368,o),
(1302,-317,c),
(1243,-131,l),
(1166,-162,o),
(1068,-182,o),
(980,-182,cs),
(529,-182,o),
(311,61,o),
(311,430,cs),
(311,802,o),
(605,1094,o),
(1007,1094,cs),
(1347,1094,o),
(1617,947,o),
(1617,591,cs),
(1617,350,o),
(1490,235,o),
(1359,235,cs),
(1311,235,o),
(1285,258,o),
(1285,315,cs),
(1285,334,o),
(1289,356,o),
(1294,383,cs),
(1389,860,l)
);
},
{
closed = 1;
nodes = (
(1083,424,l),
(1024,322,o),
(937,235,o),
(860,235,cs),
(772,235,o),
(743,291,o),
(743,367,cs),
(743,499,o),
(853,675,o),
(1009,675,cs),
(1065,675,o),
(1096,663,o),
(1131,634,c)
);
}
);
width = 1905;
},
{
layerId = "2C98FBFB-9C5A-4FF8-8654-E7A0DF5B1F27";
shapes = (
{
closed = 1;
nodes = (
(1272,854,l),
(1207,796,l),
(1142,842,o),
(1092,865,o),
(1010,865,cs),
(747,865,o),
(513,556,o),
(517,279,c),
(517,120,o),
(618,12,o),
(739,12,cs),
(895,12,o),
(1009,136,o),
(1088,247,c),
(1094,247,l),
(1062,67,o),
(1136,12,o),
(1267,12,cs),
(1556,12,o),
(1794,279,o),
(1794,569,cs),
(1794,997,o),
(1444,1273,o),
(988,1273,cs),
(502,1273,o),
(91,930,o),
(91,411,cs),
(91,-90,o),
(462,-380,o),
(945,-380,cs),
(1060,-380,o),
(1150,-368,o),
(1261,-320,c),
(1222,-190,l),
(1145,-222,o),
(1044,-241,o),
(971,-241,cs),
(521,-241,o),
(243,15,o),
(243,422,cs),
(243,829,o),
(567,1133,o),
(979,1133,cs),
(1363,1133,o),
(1647,933,o),
(1647,569,cs),
(1647,313,o),
(1471,148,o),
(1304,148,cs),
(1262,148,o),
(1239,165,o),
(1234,200,cs),
(1229,235,o),
(1234,290,o),
(1247,363,c),
(1345,854,l)
);
},
{
closed = 1;
nodes = (
(1108,430,l),
(1036,290,o),
(911,148,o),
(813,148,cs),
(713,148,o),
(678,215,o),
(678,306,cs),
(678,491,o),
(824,728,o),
(1018,728,cs),
(1082,728,o),
(1118,711,o),
(1161,667,c)
);
}
);
width = 1886;
}
);
unicode = 64;
},
{
glyphname = A;
layers = (
{
layerId = "2C98FBFB-9C5A-4FF8-8654-E7A0DF5B1F27";
shapes = (
{
closed = 1;
nodes = (
(40,0,l),
(205,0,l),
(382,373,l),
(1086,373,l),
(1263,0,l),
(1439,0,l),
(775,1356,l),
(703,1356,l)
);
},
{
closed = 1;
nodes = (
(453,518,l),
(681,979,l),
(732,1124,l),
(735,1124,l),
(784,983,l),
(1015,518,l)
);
}
);
width = 1479;
},
{
layerId = "7CF7CDD4-0A84-4151-8A85-E5A01EE42E23";
shapes = (
{
closed = 1;
nodes = (
(40,0,l),
(303,0,l),
(437,305,l),
(1028,305,l),
(1161,0,l),
(1439,0,l),
(830,1356,l),
(647,1356,l)
);
},
{
closed = 1;
nodes = (
(528,516,l),
(670,825,l),
(730,996,l),
(737,996,l),
(795,828,l),
(937,516,l)
);
}
);
width = 1479;
},
{
layerId = "01BBB9D0-923D-4A6C-8EB0-69AD5A5509C5";
shapes = (
{
closed = 1;
nodes = (
(40,0,l),
(172,0,l),
(364,396,l),
(1105,396,l),
(1297,0,l),
(1439,0,l),
(757,1356,l),
(722,1356,l)
);
},
{
closed = 1;
nodes = (
(428,519,l),
(685,1030,l),
(733,1167,l),
(734,1167,l),
(780,1035,l),
(1041,519,l)
);
}
);
width = 1479;
},
{
layerId = "2CC194DC-208A-46E6-9B56-B5536ADC1FAA";
shapes = (
{
closed = 1;
nodes = (
(40,0,l),
(368,0,l),
(474,260,l),
(989,260,l),
(1093,0,l),
(1439,0,l),
(867,1356,l),
(610,1356,l)
);
},
{
closed = 1;
nodes = (
(578,515,l),
(663,722,l),
(729,911,l),
(738,911,l),
(802,725,l),
(885,515,l)
);
}
);
width = 1479;
}
);
unicode = 65;
},
{
glyphname = B;
layers = (
{
layerId = "2C98FBFB-9C5A-4FF8-8654-E7A0DF5B1F27";
shapes = (
{
closed = 1;
nodes = (
(1214,1308,o),
(941,1373,o),
(732,1373,cs),
(570,1373,o),
(319,1364,o),
(217,1344,c),
(217,9,l),
(319,-14,o),
(550,-17,o),
(707,-17,cs),
(973,-17,o),
(1260,106,o),
(1259,388,c),
(1259,595,o),
(1097,695,o),
(934,718,c),
(934,724,l),
(1125,765,o),
(1214,914,o),
(1214,1044,cs)
);
},
{
closed = 1;
nodes = (
(384,622,l),
(680,622,ls),
(866,622,o),
(1079,596,o),
(1079,378,cs),
(1079,205,o),
(909,129,o),
(724,129,cs),
(653,129,o),
(423,130,o),
(384,142,c)
);
},
{
closed = 1;
nodes = (
(384,756,l),
(384,1218,l),
(425,1223,o),
(545,1228,o),
(651,1228,cs),
(870,1228,o),
(1029,1199,o),
(1029,1013,cs),
(1029,825,o),
(825,767,o),
(673,759,c),
(641,756,o),
(511,756,o),
(490,756,cs)
);
}
);
width = 1366;
},
{
layerId = "7CF7CDD4-0A84-4151-8A85-E5A01EE42E23";
shapes = (
{
closed = 1;
nodes = (
(1218,1310,o),
(942,1375,o),
(686,1375,cs),
(522,1375,o),
(319,1362,o),
(211,1346,c),
(211,9,l),
(350,-20,o),
(590,-19,o),
(697,-19,cs),
(978,-19,o),
(1261,100,o),
(1263,382,c),
(1263,592,o),
(1121,698,o),
(951,716,c),
(951,726,l),
(1142,761,o),
(1218,906,o),
(1218,1038,cs)
);
},
{
closed = 1;
nodes = (
(466,586,l),
(665,586,ls),
(816,586,o),
(986,568,o),
(986,392,cs),
(986,252,o),
(849,196,o),
(698,196,cs),
(639,196,o),
(494,196,o),
(466,209,c)
);
},
{
closed = 1;
nodes = (
(466,784,l),
(466,1152,l),
(503,1157,o),
(585,1159,o),
(665,1159,cs),
(808,1159,o),
(948,1135,o),
(948,989,cs),
(948,865,o),
(825,813,o),
(723,789,c),
(688,784,o),
(614,784,o),
(577,784,cs)
);
}
);
width = 1366;
},
{
layerId = "01BBB9D0-923D-4A6C-8EB0-69AD5A5509C5";
shapes = (
{
closed = 1;
nodes = (
(1213,1307,o),
(941,1372,o),
(747,1372,cs),
(586,1372,o),
(319,1365,o),
(219,1343,c),
(219,9,l),
(309,-12,o),
(537,-16,o),
(710,-16,cs),
(971,-16,o),
(1260,108,o),
(1258,390,c),
(1258,596,o),
(1089,694,o),
(928,719,c),
(928,723,l),
(1119,766,o),
(1213,917,o),
(1213,1046,cs)
);
},
{
closed = 1;
nodes = (
(357,634,l),
(685,634,ls),
(883,634,o),
(1110,605,o),
(1110,373,cs),
(1110,189,o),
(929,107,o),
(733,107,cs),
(658,107,o),
(399,108,o),
(357,120,c)
);
},
{
closed = 1;
nodes = (
(357,747,l),
(357,1240,l),
(399,1245,o),
(532,1251,o),
(646,1251,cs),
(891,1251,o),
(1056,1220,o),
(1056,1021,cs),
(1056,812,o),
(825,752,o),
(656,749,c),
(625,747,o),
(477,747,o),
(461,747,cs)
);
}
);
width = 1366;
},
{
layerId = "2CC194DC-208A-46E6-9B56-B5536ADC1FAA";
shapes = (
{
closed = 1;
nodes = (
(1221,1311,o),
(943,1376,o),
(655,1376,cs),
(490,1376,o),
(319,1361,o),
(207,1347,c),
(207,9,l),
(371,-24,o),
(617,-20,o),
(690,-20,cs),
(981,-20,o),
(1262,96,o),
(1266,378,c),
(1266,590,o),
(1137,700,o),
(962,715,c),
(962,727,l),
(1153,758,o),
(1221,901,o),
(1221,1034,cs)
);
},
{
closed = 1;
nodes = (
(521,562,l),
(655,562,ls),
(783,562,o),
(924,549,o),
(924,401,cs),
(924,283,o),
(809,241,o),
(681,241,cs),
(630,241,o),
(541,240,o),
(521,254,c)
);
},
{
closed = 1;
nodes = (
(521,803,l),
(521,1108,l),
(555,1113,o),
(612,1113,o),
(674,1113,cs),
(767,1113,o),
(894,1092,o),
(894,973,cs),
(894,892,o),
(825,844,o),
(756,809,c),
(719,803,o),
(683,803,o),
(635,803,cs)
);
}
);
width = 1366;
}
);
unicode = 66;
},
{
glyphname = C;
layers = (
{
layerId = "2C98FBFB-9C5A-4FF8-8654-E7A0DF5B1F27";
shapes = (
{
closed = 1;
nodes = (
(1229,259,l),
(1127,169,o),
(922,126,o),
(795,126,cs),
(527,126,o),
(299,319,o),
(299,678,cs),
(299,1096,o),
(554,1231,o),
(773,1231,cs),
(983,1231,o),
(1135,1149,o),
(1192,1106,c),
(1269,1241,l),
(1213,1291,o),
(1024,1381,o),
(757,1381,cs),
(479,1381,o),
(120,1201,o),
(120,678,cs),
(120,196,o),
(420,-26,o),
(748,-26,cs),
(1027,-26,o),
(1231,76,o),
(1298,132,c)
);
}
);
width = 1337;
},
{
layerId = "7CF7CDD4-0A84-4151-8A85-E5A01EE42E23";
shapes = (
{
closed = 1;
nodes = (
(1291,322,l),
(1185,252,o),
(1032,205,o),
(905,205,cs),
(610,205,o),
(415,350,o),
(415,680,cs),
(415,994,o),
(602,1151,o),
(873,1151,cs),
(1022,1151,o),
(1153,1107,o),
(1266,1044,c),
(1348,1266,l),
(1211,1337,o),
(1050,1382,o),
(861,1382,cs),
(463,1382,o),
(136,1139,o),
(136,680,cs),
(136,188,o),
(441,-27,o),
(877,-27,cs),
(1034,-27,o),
(1225,23,o),
(1369,109,c)
);
}
);
width = 1451;
},
{
layerId = "01BBB9D0-923D-4A6C-8EB0-69AD5A5509C5";
shapes = (
{
closed = 1;
nodes = (
(1208,238,l),
(1108,141,o),
(885,100,o),
(758,100,cs),
(499,100,o),
(260,309,o),
(260,677,cs),
(260,1130,o),
(538,1258,o),
(740,1258,cs),
(970,1258,o),
(1129,1163,o),
(1167,1127,c),
(1243,1233,l),
(1214,1276,o),
(1015,1381,o),
(722,1381,cs),
(484,1381,o),
(115,1222,o),
(115,677,cs),
(115,199,o),
(413,-26,o),
(705,-26,cs),
(1025,-26,o),
(1233,94,o),
(1274,140,c)
);
}
);
width = 1299;
},
{
layerId = "2CC194DC-208A-46E6-9B56-B5536ADC1FAA";
shapes = (
{
closed = 1;
nodes = (
(1332,364,l),
(1224,307,o),
(1105,258,o),
(978,258,cs),
(665,258,o),
(492,371,o),
(492,681,cs),
(492,926,o),
(634,1098,o),
(940,1098,cs),
(1048,1098,o),
(1165,1079,o),
(1315,1003,c),
(1401,1283,l),
(1210,1368,o),
(1067,1383,o),
(930,1383,cs),
(452,1383,o),
(147,1098,o),
(147,681,cs),
(147,183,o),
(455,-28,o),
(963,-28,cs),
(1039,-28,o),
(1221,-12,o),
(1416,94,c)
);
}
);
width = 1527;
}
);
unicode = 67;
},
{
glyphname = D;
layers = (
{
layerId = "2C98FBFB-9C5A-4FF8-8654-E7A0DF5B1F27";
shapes = (
{
closed = 1;
nodes = (
(214,-2,l),
(266,-10,o),
(460,-18,o),
(659,-18,cs),
(1165,-18,o),
(1371,327,o),
(1371,687,cs),
(1371,1084,o),
(1142,1373,o),
(647,1373,cs),
(455,1373,o),
(316,1372,o),
(214,1356,c)
);
},
{
closed = 1;
nodes = (
(1014,1224,o),
(1190,1013,o),
(1190,688,cs),
(1190,406,o),
(1065,131,o),
(661,131,cs),
(495,131,o),
(412,135,o),
(384,139,c),
(384,1213,l),
(419,1218,o),
(528,1224,o),
(647,1224,cs)
);
}
);
width = 1479;
},
{
layerId = "7CF7CDD4-0A84-4151-8A85-E5A01EE42E23";
shapes = (
{
closed = 1;
nodes = (
(203,-2,l),
(269,-10,o),
(516,-21,o),
(628,-21,cs),
(1172,-21,o),
(1373,328,o),
(1373,689,cs),
(1373,1087,o),
(1158,1375,o),
(645,1375,cs),
(513,1375,o),
(312,1372,o),
(203,1356,c)
);
},
{
closed = 1;
nodes = (
(953,1143,o),
(1093,956,o),
(1093,686,cs),
(1093,445,o),
(997,211,o),
(651,211,cs),
(598,211,o),
(491,214,o),
(466,218,c),
(466,1137,l),
(502,1140,o),
(590,1143,o),
(662,1143,cs)
);
}
);
width = 1479;
},
{
layerId = "01BBB9D0-923D-4A6C-8EB0-69AD5A5509C5";
shapes = (
{
closed = 1;
nodes = (
(218,-2,l),
(265,-10,o),
(441,-17,o),
(669,-17,cs),
(1163,-17,o),
(1370,327,o),
(1370,686,cs),
(1370,1083,o),
(1137,1372,o),
(648,1372,cs),
(436,1372,o),
(317,1372,o),
(218,1356,c)
);
},
{
closed = 1;
nodes = (
(1034,1251,o),
(1222,1032,o),
(1222,689,cs),
(1222,393,o),
(1088,104,o),
(664,104,cs),
(461,104,o),
(386,109,o),
(357,113,c),
(357,1238,l),
(391,1244,o),
(507,1251,o),
(642,1251,cs)
);
}
);
width = 1479;
},
{
layerId = "2CC194DC-208A-46E6-9B56-B5536ADC1FAA";
shapes = (
{
closed = 1;
nodes = (
(196,-2,l),
(271,-10,o),
(553,-23,o),
(607,-23,cs),
(1177,-23,o),
(1374,329,o),
(1374,690,cs),
(1374,1089,o),
(1169,1376,o),
(644,1376,cs),
(552,1376,o),
(309,1372,o),
(196,1356,c)
);
},
{
closed = 1;
nodes = (
(912,1089,o),
(1028,918,o),
(1028,685,cs),
(1028,471,o),
(952,264,o),
(644,264,c),
(667,264,o),
(544,267,o),
(521,271,c),
(521,1086,l),
(557,1088,o),
(631,1089,o),
(672,1089,cs)
);
}
);
width = 1479;
}
);
unicode = 68;
},
{
glyphname = E;
layers = (
{
layerId = "2C98FBFB-9C5A-4FF8-8654-E7A0DF5B1F27";
shapes = (
{
closed = 1;
nodes = (
(200,1356,l),
(200,0,l),
(1054,0,l),
(1054,144,l),
(370,144,l),
(370,624,l),
(990,624,l),
(990,768,l),
(370,768,l),
(370,1211,l),
(1045,1211,l),
(1045,1356,l)
);
}
);
width = 1221;
},
{
layerId = "7CF7CDD4-0A84-4151-8A85-E5A01EE42E23";
shapes = (
{
closed = 1;
nodes = (
(208,1356,l),
(208,0,l),
(1181,0,l),
(1181,231,l),
(472,231,l),
(472,571,l),
(1117,571,l),
(1117,801,l),
(472,801,l),
(472,1125,l),
(1172,1125,l),
(1172,1356,l)
);
}
);
width = 1337;
},
{
layerId = "01BBB9D0-923D-4A6C-8EB0-69AD5A5509C5";
shapes = (
{
closed = 1;
nodes = (
(197,1356,l),
(197,0,l),
(1012,0,l),
(1012,115,l),
(336,115,l),
(336,642,l),
(948,642,l),
(948,757,l),
(336,757,l),
(336,1240,l),
(1003,1240,l),
(1003,1356,l)
);
}
);
width = 1182;
},
{
layerId = "2CC194DC-208A-46E6-9B56-B5536ADC1FAA";
shapes = (
{
closed = 1;
nodes = (
(213,1356,l),
(213,0,l),
(1266,0,l),
(1266,289,l),
(540,289,l),
(540,536,l),
(1202,536,l),
(1202,823,l),
(540,823,l),
(540,1068,l),
(1257,1068,l),
(1257,1356,l)
);
}
);
width = 1414;
}
);
unicode = 69;
},
{
glyphname = F;
layers = (
{
layerId = "2C98FBFB-9C5A-4FF8-8654-E7A0DF5B1F27";
shapes = (
{
closed = 1;
nodes = (
(200,1356,l),
(200,0,l),
(369,0,l),
(369,606,l),
(958,606,l),
(958,749,l),
(369,749,l),
(369,1211,l),
(998,1211,l),
(998,1356,l)
);
}
);
width = 1110;
},
{
layerId = "7CF7CDD4-0A84-4151-8A85-E5A01EE42E23";
shapes = (
{
closed = 1;
nodes = (
(208,1356,l),
(208,0,l),
(472,0,l),
(472,550,l),
(1076,550,l),
(1076,781,l),
(472,781,l),
(472,1125,l),
(1137,1125,l),
(1137,1356,l)
);
}
);
width = 1223;
},
{
layerId = "01BBB9D0-923D-4A6C-8EB0-69AD5A5509C5";
shapes = (
{
closed = 1;
nodes = (
(197,1356,l),
(197,0,l),
(335,0,l),
(335,625,l),
(919,625,l),
(919,738,l),
(335,738,l),
(335,1240,l),
(952,1240,l),
(952,1356,l)
);
}
);
width = 1072;
},
{
layerId = "2CC194DC-208A-46E6-9B56-B5536ADC1FAA";
shapes = (
{
closed = 1;
nodes = (
(213,1356,l),
(213,0,l),
(541,0,l),
(541,513,l),
(1155,513,l),
(1155,802,l),
(541,802,l),
(541,1068,l),
(1230,1068,l),
(1230,1356,l)
);
}
);
width = 1298;
}
);
unicode = 70;
},
{
glyphname = G;
layers = (
{
layerId = "2C98FBFB-9C5A-4FF8-8654-E7A0DF5B1F27";
shapes = (
{
closed = 1;
nodes = (
(816,677,l),
(816,543,l),
(1202,543,l),
(1156,574,l),
(1156,167,l),
(1184,206,l),
(1141,176,o),
(989,126,o),
(841,126,cs),
(534,126,o),
(306,294,o),
(306,679,cs),
(306,1098,o),
(598,1231,o),
(812,1231,cs),
(1014,1231,o),
(1169,1164,o),
(1250,1131,c),
(1306,1270,l),
(1211,1323,o),
(1036,1381,o),
(799,1381,cs),
(409,1381,o),
(126,1062,o),
(126,677,cs),
(126,195,o),
(429,-26,o),
(829,-26,cs),
(1029,-26,o),
(1246,46,o),
(1314,105,c),
(1314,677,l)
);
}
);
width = 1450;
},
{
layerId = "7CF7CDD4-0A84-4151-8A85-E5A01EE42E23";
shapes = (
{
closed = 1;
nodes = (
(871,706,l),
(871,515,l),
(1221,515,l),
(1170,546,l),
(1170,230,l),
(1210,274,l),
(1148,226,o),
(1007,205,o),
(915,205,cs),
(622,205,o),
(417,345,o),
(417,675,cs),
(417,1012,o),
(623,1151,o),
(907,1151,cs),
(1053,1151,o),
(1194,1106,o),
(1301,1057,c),
(1378,1282,l),
(1240,1347,o),
(1063,1382,o),
(881,1382,cs),
(461,1382,o),
(137,1113,o),
(137,680,cs),
(137,206,o),
(447,-27,o),
(889,-27,cs),
(1040,-27,o),
(1244,5,o),
(1405,105,c),
(1405,706,l)
);
}
);
width = 1565;
},
{
layerId = "01BBB9D0-923D-4A6C-8EB0-69AD5A5509C5";
shapes = (
{
closed = 1;
nodes = (
(798,667,l),
(798,552,l),
(1196,552,l),
(1151,583,l),
(1151,146,l),
(1175,183,l),
(1139,159,o),
(983,100,o),
(816,100,cs),
(505,100,o),
(269,277,o),
(269,680,cs),
(269,1127,o),
(590,1258,o),
(780,1258,cs),
(1001,1258,o),
(1161,1183,o),
(1233,1156,c),
(1282,1266,l),
(1201,1315,o),
(1027,1381,o),
(772,1381,cs),
(392,1381,o),
(122,1045,o),
(122,676,cs),
(122,191,o),
(423,-26,o),
(809,-26,cs),
(1025,-26,o),
(1247,60,o),
(1284,105,c),
(1284,667,l)
);
}
);
width = 1412;
},
{
layerId = "2CC194DC-208A-46E6-9B56-B5536ADC1FAA";
shapes = (
{
closed = 1;
nodes = (
(908,725,l),
(908,496,l),
(1234,496,l),
(1179,527,l),
(1179,272,l),
(1227,319,l),
(1153,259,o),
(1019,258,o),
(964,258,cs),
(681,258,o),
(491,379,o),
(491,672,cs),
(491,955,o),
(640,1098,o),
(970,1098,cs),
(1079,1098,o),
(1211,1067,o),
(1335,1008,c),
(1426,1290,l),
(1259,1363,o),
(1081,1383,o),
(936,1383,cs),
(496,1383,o),
(144,1147,o),
(144,682,cs),
(144,213,o),
(459,-28,o),
(929,-28,cs),
(1047,-28,o),
(1243,-22,o),
(1466,105,c),
(1466,725,l)
);
}
);
width = 1642;
}
);
unicode = 71;
},
{
glyphname = H;
layers = (
{
layerId = "2C98FBFB-9C5A-4FF8-8654-E7A0DF5B1F27";
shapes = (
{
closed = 1;
nodes = (
(1080,618,l),
(1080,0,l),
(1250,0,l),
(1250,1356,l),
(1080,1356,l),
(1080,767,l),
(371,767,l),
(371,1356,l),
(200,1356,l),
(200,0,l),
(371,0,l),
(371,618,l)
);
}
);
width = 1450;
},
{
layerId = "7CF7CDD4-0A84-4151-8A85-E5A01EE42E23";
shapes = (
{
closed = 1;
nodes = (
(1093,572,l),
(1093,0,l),
(1357,0,l),
(1357,1356,l),
(1093,1356,l),
(1093,802,l),
(471,802,l),
(471,1356,l),
(208,1356,l),
(208,0,l),
(471,0,l),
(471,572,l)
);
}
);
width = 1565;
},
{
layerId = "01BBB9D0-923D-4A6C-8EB0-69AD5A5509C5";
shapes = (
{
closed = 1;
nodes = (
(1076,633,l),
(1076,0,l),
(1214,0,l),
(1214,1356,l),
(1076,1356,l),
(1076,755,l),
(338,755,l),
(338,1356,l),
(197,1356,l),
(197,0,l),
(338,0,l),
(338,633,l)
);
}
);
width = 1412;
},
{
layerId = "2CC194DC-208A-46E6-9B56-B5536ADC1FAA";
shapes = (
{
closed = 1;
nodes = (
(1102,541,l),
(1102,0,l),
(1428,0,l),
(1428,1356,l),
(1102,1356,l),
(1102,825,l),
(538,825,l),
(538,1356,l),
(213,1356,l),
(213,0,l),
(538,0,l),
(538,541,l)
);
}
);
width = 1642;
}
);
unicode = 72;
},
{
glyphname = I;
layers = (
{
layerId = "2C98FBFB-9C5A-4FF8-8654-E7A0DF5B1F27";
shapes = (
{
closed = 1;
nodes = (
(241,1356,l),
(241,0,l),
(412,0,l),
(412,1356,l)
);
}
);
width = 652;
},
{
layerId = "7CF7CDD4-0A84-4151-8A85-E5A01EE42E23";
shapes = (
{
closed = 1;
nodes = (
(253,1356,l),
(253,0,l),
(516,0,l),
(516,1356,l)
);
}
);
width = 768;
},
{
layerId = "01BBB9D0-923D-4A6C-8EB0-69AD5A5509C5";
shapes = (
{
closed = 1;
nodes = (
(237,1356,l),
(237,0,l),
(377,0,l),
(377,1356,l)
);
}
);
width = 613;
},
{
layerId = "2CC194DC-208A-46E6-9B56-B5536ADC1FAA";
shapes = (
{
closed = 1;
nodes = (
(261,1356,l),
(261,0,l),
(585,0,l),
(585,1356,l)
);
}
);
width = 845;
}
);
unicode = 73;
},
{
glyphname = J;
layers = (
{
layerId = "2C98FBFB-9C5A-4FF8-8654-E7A0DF5B1F27";
shapes = (
{
closed = 1;
nodes = (
(405,1356,l),
(405,344,ls),
(405,207,o),
(383,132,o),
(254,132,cs),
(158,132,o),
(104,198,o),
(94,209,c),
(2,95,l),
(40,43,o),
(124,-17,o),
(259,-17,cs),
(483,-17,o),
(574,111,o),
(574,290,cs),
(574,1356,l)
);
}
);
width = 739;
},
{
layerId = "7CF7CDD4-0A84-4151-8A85-E5A01EE42E23";
shapes = (
{
closed = 1;
nodes = (
(511,1356,l),
(511,415,ls),
(511,290,o),
(459,208,o),
(330,208,cs),
(274,208,o),
(213,223,o),
(129,285,c),
(36,77,l),
(132,1,o),
(248,-24,o),
(355,-24,cs),
(611,-24,o),
(774,109,o),
(774,369,cs),
(774,1356,l)
);
}
);
width = 967;
},
{
layerId = "01BBB9D0-923D-4A6C-8EB0-69AD5A5509C5";
shapes = (
{
closed = 1;
nodes = (
(370,1356,l),
(370,320,ls),
(370,179,o),
(358,107,o),
(229,107,cs),
(119,107,o),
(68,190,o),
(82,184,c),
(-9,101,l),
(9,57,o),
(83,-15,o),
(227,-15,cs),
(440,-15,o),
(507,112,o),
(507,264,cs),
(507,1356,l)
);
}
);
width = 663;
},
{
layerId = "2CC194DC-208A-46E6-9B56-B5536ADC1FAA";
shapes = (
{
closed = 1;
nodes = (
(582,1356,l),
(582,462,ls),
(582,345,o),
(510,259,o),
(381,259,cs),
(351,259,o),
(286,240,o),
(152,336,c),
(59,65,l),
(193,-27,o),
(331,-29,o),
(419,-29,cs),
(696,-29,o),
(907,108,o),
(907,422,cs),
(907,1356,l)
);
}
);
width = 1119;
}
);
unicode = 74;
},
{
glyphname = K;
layers = (
{
layerId = "2C98FBFB-9C5A-4FF8-8654-E7A0DF5B1F27";
shapes = (
{
closed = 1;
nodes = (
(480,628,l),
(1121,0,l),
(1354,0,l),
(713,632,l),
(631,709,l),
(708,771,l),
(1299,1356,l),
(1076,1356,l),
(476,752,l),
(394,725,l),
(394,1356,l),
(224,1356,l),
(224,0,l),
(394,0,l),
(394,628,l)
);
}
);
width = 1450;
},
{
layerId = "7CF7CDD4-0A84-4151-8A85-E5A01EE42E23";
shapes = (
{
closed = 1;
nodes = (
(606,584,l),
(1179,0,l),
(1534,0,l),
(904,633,l),
(819,711,l),
(899,782,l),
(1478,1356,l),
(1146,1356,l),
(593,782,l),
(484,752,l),
(484,1356,l),
(221,1356,l),
(221,0,l),
(484,0,l),
(484,584,l)
);
}
);
width = 1565;
},
{
layerId = "01BBB9D0-923D-4A6C-8EB0-69AD5A5509C5";
shapes = (
{
closed = 1;
nodes = (
(438,643,l),
(1102,0,l),
(1294,0,l),
(649,632,l),
(568,708,l),
(644,767,l),
(1239,1356,l),
(1053,1356,l),
(437,742,l),
(364,716,l),
(364,1356,l),
(225,1356,l),
(225,0,l),
(364,0,l),
(364,643,l)
);
}
);
width = 1412;
},
{
layerId = "2CC194DC-208A-46E6-9B56-B5536ADC1FAA";
shapes = (
{
closed = 1;
nodes = (
(690,555,l),
(1218,0,l),
(1654,0,l),
(1031,634,l),
(944,712,l),
(1026,789,l),
(1597,1356,l),
(1193,1356,l),
(671,802,l),
(544,770,l),
(544,1356,l),
(219,1356,l),
(219,0,l),
(544,0,l),
(544,555,l)
);
}
);
width = 1642;
}
);
unicode = 75;
},
{
glyphname = L;
layers = (
{
layerId = "2C98FBFB-9C5A-4FF8-8654-E7A0DF5B1F27";
shapes = (
{
closed = 1;
nodes = (
(1155,0,l),
(1155,149,l),
(371,149,l),
(371,1356,l),
(203,1356,l),
(203,0,l)
);
}
);
width = 1221;
},
{
layerId = "7CF7CDD4-0A84-4151-8A85-E5A01EE42E23";
shapes = (
{
closed = 1;
nodes = (
(1265,0,l),
(1265,232,l),
(479,232,l),
(479,1356,l),
(217,1356,l),
(217,0,l)
);
}
);
width = 1337;
},
{
layerId = "01BBB9D0-923D-4A6C-8EB0-69AD5A5509C5";
shapes = (
{
closed = 1;
nodes = (
(1118,0,l),
(1118,121,l),
(335,121,l),
(335,1356,l),
(198,1356,l),
(198,0,l)
);
}
);
width = 1182;
},
{
layerId = "2CC194DC-208A-46E6-9B56-B5536ADC1FAA";
shapes = (
{
closed = 1;
nodes = (
(1338,0,l),
(1338,287,l),
(551,287,l),
(551,1356,l),
(226,1356,l),
(226,0,l)
);
}
);
width = 1414;
}
);
unicode = 76;
},
{
glyphname = M;
layers = (
{
layerId = "2C98FBFB-9C5A-4FF8-8654-E7A0DF5B1F27";
shapes = (
{
closed = 1;
nodes = (
(1410,922,l),
(1410,0,l),
(1578,0,l),
(1578,1356,l),
(1454,1356,l),
(975,652,l),
(906,543,l),
(903,543,l),
(832,647,l),
(329,1356,l),
(213,1356,l),
(213,0,l),
(372,0,l),
(372,924,l),
(357,1044,l),
(368,1044,l),
(427,939,l),
(869,318,l),
(920,318,l),
(1343,937,l),
(1405,1046,l),
(1413,1046,l)
);
}
);
width = 1792;
},
{
layerId = "7CF7CDD4-0A84-4151-8A85-E5A01EE42E23";
shapes = (
{
closed = 1;
nodes = (
(1431,736,l),
(1431,0,l),
(1694,0,l),
(1694,1356,l),
(1463,1356,l),
(1035,718,l),
(969,598,l),
(962,598,l),
(888,714,l),
(442,1356,l),
(211,1356,l),
(211,0,l),
(459,0,l),
(459,738,l),
(441,944,l),
(448,944,l),
(526,804,l),
(908,257,l),
(990,257,l),
(1352,802,l),
(1435,946,l),
(1442,946,l)
);
}
);
width = 1905;
},
{
layerId = "01BBB9D0-923D-4A6C-8EB0-69AD5A5509C5";
shapes = (
{
closed = 1;
nodes = (
(1403,984,l),
(1403,0,l),
(1539,0,l),
(1539,1356,l),
(1451,1356,l),
(955,630,l),
(885,525,l),
(883,525,l),
(813,625,l),
(291,1356,l),
(214,1356,l),
(214,0,l),
(343,0,l),
(343,986,l),
(329,1077,l),
(341,1077,l),
(394,984,l),
(856,338,l),
(897,338,l),
(1340,982,l),
(1395,1079,l),
(1403,1079,l)
);
}
);
width = 1754;
},
{
layerId = "2CC194DC-208A-46E6-9B56-B5536ADC1FAA";
shapes = (
{
closed = 1;
nodes = (
(1445,612,l),
(1445,0,l),
(1771,0,l),
(1771,1356,l),
(1469,1356,l),
(1075,762,l),
(1011,635,l),
(1001,635,l),
(925,759,l),
(517,1356,l),
(210,1356,l),
(210,0,l),
(517,0,l),
(517,614,l),
(497,877,l),
(501,877,l),
(592,714,l),
(934,216,l),
(1037,216,l),
(1358,712,l),
(1455,879,l),
(1461,879,l)
);
}
);
width = 1980;
}
);
unicode = 77;
},
{
glyphname = N;
layers = (
{
layerId = "2C98FBFB-9C5A-4FF8-8654-E7A0DF5B1F27";
shapes = (
{
closed = 1;
nodes = (
(465,876,l),
(1190,0,l),
(1274,0,l),
(1274,1356,l),
(1114,1356,l),
(1114,479,l),
(1127,343,l),
(1116,343,l),
(1018,482,l),
(289,1356,l),
(205,1356,l),
(205,0,l),
(364,0,l),
(364,879,l),
(352,1034,l),
(359,1034,l)
);
}
);
width = 1479;
},
{
layerId = "7CF7CDD4-0A84-4151-8A85-E5A01EE42E23";
shapes = (
{
closed = 1;
nodes = (
(536,743,l),
(1112,0,l),
(1294,0,l),
(1294,1356,l),
(1045,1356,l),
(1045,616,l),
(1063,429,l),
(1054,429,l),
(948,609,l),
(368,1356,l),
(185,1356,l),
(185,0,l),
(435,0,l),
(435,735,l),
(419,915,l),
(427,915,l)
);
}
);
width = 1479;
},
{
layerId = "01BBB9D0-923D-4A6C-8EB0-69AD5A5509C5";
shapes = (
{
closed = 1;
nodes = (
(441,920,l),
(1216,0,l),
(1267,0,l),
(1267,1356,l),
(1137,1356,l),
(1137,433,l),
(1148,314,l),
(1137,314,l),
(1041,440,l),
(263,1356,l),
(212,1356,l),
(212,0,l),
(340,0,l),
(340,927,l),
(330,1074,l),
(336,1074,l)
);
}
);
width = 1479;
},
{
layerId = "2CC194DC-208A-46E6-9B56-B5536ADC1FAA";
shapes = (
{
closed = 1;
nodes = (
(583,654,l),
(1060,0,l),
(1307,0,l),
(1307,1356,l),
(999,1356,l),
(999,707,l),
(1020,486,l),
(1013,486,l),
(901,694,l),
(421,1356,l),
(172,1356,l),
(172,0,l),
(482,0,l),
(482,639,l),
(464,836,l),
(472,836,l)
);
}
);
width = 1479;
}
);
unicode = 78;
},
{
glyphname = O;
layers = (
{
layerId = "2C98FBFB-9C5A-4FF8-8654-E7A0DF5B1F27";
shapes = (
{
closed = 1;
nodes = (
(108,471,o),
(153,297,o),
(253,174,cs),
(353,49,o),
(506,-24,o),
(723,-26,c),
(919,-26,o),
(1074,38,o),
(1180,158,cs),
(1286,277,o),
(1342,455,o),
(1342,678,cs),
(1342,887,o),
(1297,1063,o),
(1196,1187,cs),
(1096,1310,o),
(941,1381,o),
(723,1381,cs),
(524,1381,o),
(370,1316,o),
(267,1196,cs),
(162,1075,o),
(106,899,o),
(106,679,c)
);
},
{
closed = 1;
nodes = (
(286,823,o),
(310,963,o),
(377,1066,cs),
(445,1168,o),
(553,1236,o),
(723,1236,cs),
(867,1236,o),
(976,1187,o),
(1051,1092,c),
(1124,997,o),
(1162,858,o),
(1162,678,cs),
(1162,519,o),
(1137,380,o),
(1068,280,cs),
(1000,180,o),
(892,121,o),
(723,121,cs),
(577,121,o),
(468,179,o),
(395,276,cs),
(321,374,o),
(286,513,o),
(286,678,cs)
);
}
);
width = 1450;
},
{
layerId = "7CF7CDD4-0A84-4151-8A85-E5A01EE42E23";
shapes = (
{
closed = 1;
nodes = (
(114,457,o),
(177,281,o),
(293,160,cs),
(408,39,o),
(574,-27,o),
(781,-28,c),
(993,-28,o),
(1160,42,o),
(1275,165,cs),
(1389,288,o),
(1451,465,o),
(1451,678,cs),
(1451,887,o),
(1392,1063,o),
(1278,1187,cs),
(1164,1311,o),
(997,1382,o),
(781,1382,cs),
(578,1382,o),
(412,1317,o),
(296,1197,cs),
(179,1077,o),
(113,900,o),
(113,677,c)
);
},
{
closed = 1;
nodes = (
(392,831,o),
(427,949,o),
(493,1030,cs),
(560,1110,o),
(656,1152,o),
(781,1152,cs),
(913,1152,o),
(1011,1102,o),
(1076,1019,cs),
(1140,935,o),
(1171,816,o),
(1171,678,cs),
(1171,544,o),
(1143,424,o),
(1079,339,cs),
(1016,255,o),
(918,203,o),
(781,203,cs),
(661,203,o),
(564,242,o),
(497,322,cs),
(429,401,o),
(392,520,o),
(392,678,cs)
);
}
);
width = 1565;
},
{
layerId = "01BBB9D0-923D-4A6C-8EB0-69AD5A5509C5";
shapes = (
{
closed = 1;
nodes = (
(106,476,o),
(145,302,o),
(240,179,cs),
(335,52,o),
(483,-23,o),
(704,-25,c),
(894,-25,o),
(1045,37,o),
(1148,156,cs),
(1252,273,o),
(1306,452,o),
(1306,678,cs),
(1306,887,o),
(1265,1063,o),
(1169,1187,cs),
(1073,1310,o),
(922,1381,o),
(704,1381,cs),
(506,1381,o),
(356,1316,o),
(257,1196,cs),
(156,1074,o),
(104,899,o),
(104,680,c)
);
},
{
closed = 1;
nodes = (
(251,820,o),
(271,968,o),
(338,1078,c),
(407,1187,o),
(519,1264,o),
(704,1264,cs),
(852,1264,o),
(964,1215,o),
(1043,1116,c),
(1119,1018,o),
(1159,872,o),
(1159,678,cs),
(1159,511,o),
(1135,365,o),
(1064,260,cs),
(995,155,o),
(883,94,o),
(704,94,cs),
(549,94,o),
(436,158,o),
(361,261,cs),
(285,365,o),
(251,511,o),
(251,678,cs)
);
}
);
width = 1412;
},
{
layerId = "2CC194DC-208A-46E6-9B56-B5536ADC1FAA";
shapes = (
{
closed = 1;
nodes = (
(118,448,o),
(193,270,o),
(320,151,cs),
(445,32,o),
(619,-29,o),
(820,-29,c),
(1042,-29,o),
(1217,45,o),
(1338,170,c),
(1458,295,o),
(1524,472,o),
(1524,678,cs),
(1524,887,o),
(1455,1063,o),
(1333,1187,cs),
(1209,1312,o),
(1034,1383,o),
(820,1383,cs),
(614,1383,o),
(440,1318,o),
(315,1198,cs),
(190,1078,o),
(118,901,o),
(118,676,c)
);
},
{
closed = 1;
nodes = (
(463,836,o),
(505,940,o),
(570,1006,c),
(637,1071,o),
(725,1096,o),
(820,1096,cs),
(944,1096,o),
(1034,1045,o),
(1093,970,cs),
(1151,894,o),
(1177,788,o),
(1177,678,cs),
(1177,561,o),
(1147,453,o),
(1086,378,cs),
(1027,305,o),
(935,258,o),
(820,258,cs),
(717,258,o),
(628,284,o),
(565,353,c),
(501,419,o),
(463,525,o),
(463,678,cs)
);
}
);
width = 1642;
}
);
unicode = 79;
},
{
glyphname = P;
layers = (
{
layerId = "2C98FBFB-9C5A-4FF8-8654-E7A0DF5B1F27";
shapes = (
{
closed = 1;
nodes = (
(201,0,l),
(371,0,l),
(371,522,l),
(404,517,o),
(495,510,o),
(527,510,cs),
(776,510,o),
(1031,667,o),
(1031,959,cs),
(1031,1211,o),
(835,1373,o),
(533,1373,cs),
(413,1373,o),
(308,1367,o),
(201,1342,c)
);
},
{
closed = 1;
nodes = (
(742,1229,o),
(852,1101,o),
(852,958,cs),
(852,791,o),
(725,654,o),
(516,654,cs),
(486,654,o),
(399,660,o),
(371,664,c),
(371,1216,l),
(409,1229,o),
(463,1229,o),
(536,1229,cs)
);
}
);
width = 1110;
},
{
layerId = "7CF7CDD4-0A84-4151-8A85-E5A01EE42E23";
shapes = (
{
closed = 1;
nodes = (
(187,0,l),
(451,0,l),
(451,470,l),
(482,465,o),
(563,461,o),
(591,461,cs),
(872,461,o),
(1142,601,o),
(1142,929,cs),
(1142,1262,o),
(878,1375,o),
(573,1375,cs),
(436,1375,o),
(302,1364,o),
(187,1342,c)
);
},
{
closed = 1;
nodes = (
(747,1144,o),
(862,1079,o),
(862,924,cs),
(862,754,o),
(734,692,o),
(571,692,cs),
(545,692,o),
(474,696,o),
(451,702,c),
(451,1134,l),
(484,1141,o),
(529,1144,o),
(588,1144,cs)
);
}
);
width = 1223;
},
{
layerId = "01BBB9D0-923D-4A6C-8EB0-69AD5A5509C5";
shapes = (
{
closed = 1;
nodes = (
(206,0,l),
(344,0,l),
(344,539,l),
(378,534,o),
(472,526,o),
(506,526,cs),
(744,526,o),
(994,689,o),
(994,969,cs),
(994,1194,o),
(821,1372,o),
(520,1372,cs),
(405,1372,o),
(310,1368,o),
(206,1342,c)
);
},
{
closed = 1;
nodes = (
(740,1257,o),
(849,1108,o),
(849,969,cs),
(849,803,o),
(722,641,o),
(498,641,cs),
(466,641,o),
(374,648,o),
(344,651,c),
(344,1243,l),
(384,1258,o),
(441,1257,o),
(519,1257,cs)
);
}
);
width = 1072;
},
{
layerId = "2CC194DC-208A-46E6-9B56-B5536ADC1FAA";
shapes = (
{
closed = 1;
nodes = (
(178,0,l),
(504,0,l),
(504,435,l),
(534,430,o),
(608,428,o),
(634,428,cs),
(936,428,o),
(1216,557,o),
(1216,909,cs),
(1216,1296,o),
(907,1376,o),
(600,1376,cs),
(451,1376,o),
(298,1362,o),
(178,1342,c)
);
},
{
closed = 1;
nodes = (
(750,1087,o),
(869,1064,o),
(869,901,cs),
(869,729,o),
(740,717,o),
(608,717,cs),
(584,717,o),
(524,720,o),
(504,727,c),
(504,1079,l),
(534,1082,o),
(573,1087,o),
(623,1087,cs)
);
}
);
width = 1298;
}
);
unicode = 80;
},
{
glyphname = Q;
layers = (
{
layerId = "2C98FBFB-9C5A-4FF8-8654-E7A0DF5B1F27";
shapes = (
{
closed = 1;
nodes = (
(110,297,o),
(262,23,o),
(628,-19,c),
(631,-297,o),
(780,-397,o),
(983,-397,cs),
(1126,-397,o),
(1175,-374,o),
(1243,-337,c),
(1221,-204,l),
(1152,-230,o),
(1125,-250,o),
(1008,-250,cs),
(808,-250,o),
(796,-115,o),
(793,-23,c),
(1145,5,o),
(1342,258,o),
(1342,678,cs),
(1342,1097,o),
(1159,1381,o),
(723,1381,cs),
(326,1381,o),
(106,1120,o),
(106,679,c)
);
},
{
closed = 1;
nodes = (
(286,967,o),
(385,1236,o),
(723,1236,cs),
(1011,1236,o),
(1162,1039,o),
(1162,678,cs),
(1162,358,o),
(1059,121,o),
(723,121,cs),
(430,121,o),
(286,350,o),
(286,678,cs)
);
}
);
width = 1450;
},
{
layerId = "7CF7CDD4-0A84-4151-8A85-E5A01EE42E23";
shapes = (
{
closed = 1;
nodes = (
(114,290,o),
(309,40,o),
(637,-15,c),
(648,-302,o),
(787,-427,o),
(1054,-427,cs),
(1136,-427,o),
(1254,-403,o),
(1325,-352,c),
(1280,-142,l),
(1227,-172,o),
(1159,-192,o),
(1084,-192,cs),
(951,-192,o),
(906,-124,o),
(896,-20,c),
(1249,27,o),
(1451,291,o),
(1451,678,cs),
(1451,1097,o),
(1213,1382,o),
(781,1382,cs),
(376,1382,o),
(113,1123,o),
(113,677,c)
);
},
{
closed = 1;
nodes = (
(392,984,o),
(532,1152,o),
(781,1152,cs),
(1046,1152,o),
(1171,955,o),
(1171,678,cs),
(1171,409,o),
(1056,203,o),
(781,203,cs),
(541,203,o),
(392,362,o),
(392,678,cs)
);
}
);
width = 1565;
},
{
layerId = "01BBB9D0-923D-4A6C-8EB0-69AD5A5509C5";
shapes = (
{
closed = 1;
nodes = (
(109,299,o),
(246,17,o),
(625,-20,c),
(625,-295,o),
(778,-387,o),
(959,-387,cs),
(1123,-387,o),
(1149,-364,o),
(1216,-332,c),
(1201,-225,l),
(1127,-249,o),
(1114,-269,o),
(983,-269,cs),
(760,-269,o),
(759,-112,o),
(759,-24,c),
(1110,-2,o),
(1306,247,o),
(1306,678,cs),
(1306,1097,o),
(1141,1381,o),
(704,1381,cs),
(309,1381,o),
(104,1119,o),
(104,680,c)
);
},
{
closed = 1;
nodes = (
(251,961,o),
(336,1264,o),
(704,1264,cs),
(999,1264,o),
(1159,1067,o),
(1159,678,cs),
(1159,341,o),
(1060,94,o),
(704,94,cs),
(393,94,o),
(251,346,o),
(251,678,cs)
);
}
);
width = 1412;
},
{
layerId = "2CC194DC-208A-46E6-9B56-B5536ADC1FAA";
shapes = (
{
closed = 1;
nodes = (
(117,285,o),
(340,51,o),
(643,-12,c),
(659,-305,o),
(792,-447,o),
(1101,-447,cs),
(1143,-447,o),
(1307,-422,o),
(1380,-362,c),
(1319,-101,l),
(1277,-133,o),
(1182,-153,o),
(1135,-153,cs),
(1046,-153,o),
(979,-130,o),
(965,-18,c),
(1318,42,o),
(1524,313,o),
(1524,678,cs),
(1524,1097,o),
(1249,1383,o),
(820,1383,cs),
(409,1383,o),
(118,1125,o),
(118,676,c)
);
},
{
closed = 1;
nodes = (
(463,995,o),
(630,1096,o),
(820,1096,cs),
(1069,1096,o),
(1177,899,o),
(1177,678,cs),
(1177,443,o),
(1054,258,o),
(820,258,cs),
(615,258,o),
(463,370,o),
(463,678,cs)
);
}
);
width = 1642;
}
);
unicode = 81;
},
{
glyphname = R;
layers = (
{
layerId = "2C98FBFB-9C5A-4FF8-8654-E7A0DF5B1F27";
shapes = (
{
closed = 1;
nodes = (
(204,0,l),
(374,0,l),
(374,613,l),
(569,583,l),
(1074,0,l),
(1266,0,l),
(814,535,l),
(737,610,l),
(926,653,o),
(1049,787,o),
(1049,1005,cs),
(1049,1270,o),
(828,1373,o),
(571,1373,cs),
(455,1373,o),
(312,1361,o),
(204,1342,c)
);
},
{
closed = 1;
nodes = (
(782,1229,o),
(868,1129,o),
(868,992,cs),
(868,805,o),
(728,722,o),
(534,722,cs),
(374,722,l),
(374,1216,l),
(413,1228,o),
(505,1229,o),
(577,1229,cs)
);
}
);
width = 1337;
},
{
layerId = "7CF7CDD4-0A84-4151-8A85-E5A01EE42E23";
shapes = (
{
closed = 1;
nodes = (
(209,0,l),
(472,0,l),
(472,561,l),
(660,537,l),
(1078,0,l),
(1400,0,l),
(980,517,l),
(909,588,l),
(1077,627,o),
(1205,755,o),
(1205,978,cs),
(1205,1291,o),
(915,1375,o),
(650,1375,cs),
(531,1375,o),
(331,1363,o),
(209,1342,c)
);
},
{
closed = 1;
nodes = (
(789,1144,o),
(926,1101,o),
(926,955,cs),
(926,778,o),
(783,737,o),
(629,737,cs),
(472,737,l),
(472,1136,l),
(508,1142,o),
(592,1144,o),
(655,1144,cs)
);
}
);
width = 1451;
},
{
layerId = "01BBB9D0-923D-4A6C-8EB0-69AD5A5509C5";
shapes = (
{
closed = 1;
nodes = (
(202,0,l),
(341,0,l),
(341,630,l),
(539,598,l),
(1073,0,l),
(1221,0,l),
(759,541,l),
(680,617,l),
(876,662,o),
(997,798,o),
(997,1014,cs),
(997,1263,o),
(799,1372,o),
(545,1372,cs),
(430,1372,o),
(306,1360,o),
(202,1342,c)
);
},
{
closed = 1;
nodes = (
(780,1257,o),
(849,1138,o),
(849,1004,cs),
(849,814,o),
(710,717,o),
(502,717,cs),
(341,717,l),
(341,1243,l),
(381,1257,o),
(476,1257,o),
(551,1257,cs)
);
}
);
width = 1299;
},
{
layerId = "2CC194DC-208A-46E6-9B56-B5536ADC1FAA";
shapes = (
{
closed = 1;
nodes = (
(212,0,l),
(537,0,l),
(537,526,l),
(721,506,l),
(1081,0,l),
(1489,0,l),
(1091,505,l),
(1024,573,l),
(1178,610,o),
(1309,734,o),
(1309,960,cs),
(1309,1305,o),
(973,1376,o),
(703,1376,cs),
(582,1376,o),
(344,1364,o),
(212,1342,c)
);
},
{
closed = 1;
nodes = (
(794,1087,o),
(965,1082,o),
(965,930,cs),
(965,760,o),
(820,747,o),
(692,747,cs),
(537,747,l),
(537,1083,l),
(571,1085,o),
(650,1087,o),
(707,1087,cs)
);
}
);
width = 1527;
}
);
unicode = 82;
},
{
glyphname = S;
layers = (
{
layerId = "2C98FBFB-9C5A-4FF8-8654-E7A0DF5B1F27";
shapes = (
{
closed = 1;
nodes = (
(849,188,o),
(697,122,o),
(515,122,cs),
(401,122,o),
(272,135,o),
(149,194,c),
(93,47,l),
(171,13,o),
(308,-26,o),
(520,-26,cs),
(834,-26,o),
(1019,138,o),
(1019,366,cs),
(1019,578,o),
(842,687,o),
(659,748,c),
(544,788,o),
(301,866,o),
(301,1034,cs),
(301,1189,o),
(469,1235,o),
(581,1235,cs),
(668,1235,o),
(844,1222,o),
(940,1172,c),
(994,1315,l),
(916,1348,o),
(775,1381,o),
(590,1381,cs),
(373,1381,o),
(131,1291,o),
(131,1025,cs),
(131,807,o),
(278,708,o),
(476,640,c),
(596,602,o),
(849,536,o),
(849,352,cs)
);
}
);
width = 1139;
},
{
layerId = "7CF7CDD4-0A84-4151-8A85-E5A01EE42E23";
shapes = (
{
closed = 1;
nodes = (
(791,252,o),
(690,201,o),
(515,201,cs),
(379,201,o),
(231,251,o),
(162,289,c),
(75,59,l),
(145,23,o),
(318,-27,o),
(528,-27,cs),
(844,-27,o),
(1055,112,o),
(1055,397,cs),
(1055,603,o),
(884,708,o),
(713,778,cs),
(578,834,o),
(372,875,o),
(372,1012,cs),
(372,1107,o),
(465,1155,o),
(591,1155,cs),
(727,1155,o),
(870,1120,o),
(940,1080,c),
(1024,1301,l),
(913,1360,o),
(741,1382,o),
(597,1382,cs),
(316,1382,o),
(109,1260,o),
(109,989,cs),
(109,753,o),
(302,648,o),
(489,586,c),
(636,538,o),
(791,488,o),
(791,368,cs)
);
}
);
width = 1139;
},
{
layerId = "01BBB9D0-923D-4A6C-8EB0-69AD5A5509C5";
shapes = (
{
closed = 1;
nodes = (
(868,167,o),
(699,96,o),
(515,96,cs),
(408,96,o),
(286,96,o),
(145,162,c),
(99,43,l),
(180,10,o),
(305,-26,o),
(517,-26,cs),
(831,-26,o),
(1007,147,o),
(1007,356,cs),
(1007,570,o),
(828,680,o),
(641,738,c),
(533,773,o),
(277,863,o),
(277,1041,cs),
(277,1216,o),
(470,1262,o),
(578,1262,cs),
(648,1262,o),
(835,1256,o),
(940,1203,c),
(984,1320,l),
(917,1344,o),
(786,1381,o),
(588,1381,cs),
(392,1381,o),
(138,1301,o),
(138,1037,cs),
(138,825,o),
(270,728,o),
(472,658,c),
(583,623,o),
(868,552,o),
(868,347,cs)
);
}
);
width = 1139;
},
{
layerId = "2CC194DC-208A-46E6-9B56-B5536ADC1FAA";
shapes = (
{
closed = 1;
nodes = (
(752,295,o),
(685,254,o),
(515,254,cs),
(364,254,o),
(204,328,o),
(171,352,c),
(63,67,l),
(128,30,o),
(325,-28,o),
(533,-28,cs),
(851,-28,o),
(1079,95,o),
(1079,418,cs),
(1079,620,o),
(912,722,o),
(749,798,c),
(601,865,o),
(419,881,o),
(419,997,cs),
(419,1052,o),
(462,1102,o),
(598,1102,cs),
(766,1102,o),
(887,1052,o),
(940,1019,c),
(1044,1292,l),
(911,1368,o),
(718,1383,o),
(602,1383,cs),
(278,1383,o),
(94,1239,o),
(94,965,cs),
(94,717,o),
(318,608,o),
(498,550,c),
(663,495,o),
(752,456,o),
(752,379,cs)
);
}
);
width = 1139;
}
);
unicode = 83;
},
{
glyphname = T;
layers = (
{
layerId = "2C98FBFB-9C5A-4FF8-8654-E7A0DF5B1F27";
shapes = (
{
closed = 1;
nodes = (
(1174,1206,l),
(1174,1356,l),
(48,1356,l),
(48,1206,l),
(527,1206,l),
(527,0,l),
(696,0,l),
(696,1206,l)
);
}
);
width = 1221;
},
{
layerId = "7CF7CDD4-0A84-4151-8A85-E5A01EE42E23";
shapes = (
{
closed = 1;
nodes = (
(1272,1124,l),
(1272,1356,l),
(66,1356,l),
(66,1124,l),
(537,1124,l),
(537,0,l),
(800,0,l),
(800,1124,l)
);
}
);
width = 1337;
},
{
layerId = "01BBB9D0-923D-4A6C-8EB0-69AD5A5509C5";
shapes = (
{
closed = 1;
nodes = (
(1141,1233,l),
(1141,1356,l),
(42,1356,l),
(42,1233,l),
(524,1233,l),
(524,0,l),
(661,0,l),
(661,1233,l)
);
}
);
width = 1182;
},
{
layerId = "2CC194DC-208A-46E6-9B56-B5536ADC1FAA";
shapes = (
{
closed = 1;
nodes = (
(1337,1069,l),
(1337,1356,l),
(78,1356,l),
(78,1069,l),
(544,1069,l),
(544,0,l),
(869,0,l),
(869,1069,l)
);
}
);
width = 1414;
}
);
unicode = 84;
},
{
glyphname = U;
layers = (
{
layerId = "2C98FBFB-9C5A-4FF8-8654-E7A0DF5B1F27";
shapes = (
{
closed = 1;
nodes = (
(1111,1356,l),
(1111,514,ls),
(1111,247,o),
(990,134,o),
(761,134,cs),
(507,134,o),
(380,239,o),
(380,506,cs),
(380,1356,l),
(209,1356,l),
(209,427,ls),
(209,135,o),
(418,-15,o),
(763,-15,cs),
(1051,-15,o),
(1270,139,o),
(1270,467,cs),
(1270,1356,l)
);
}
);
width = 1479;
},
{
layerId = "7CF7CDD4-0A84-4151-8A85-E5A01EE42E23";
shapes = (
{
closed = 1;
nodes = (
(1041,1356,l),
(1041,508,ls),
(1041,297,o),
(938,210,o),
(757,210,cs),
(546,210,o),
(452,303,o),
(452,506,cs),
(452,1356,l),
(189,1356,l),
(189,448,ls),
(189,136,o),
(400,-22,o),
(761,-22,cs),
(1062,-22,o),
(1290,135,o),
(1290,482,cs),
(1290,1356,l)
);
}
);
width = 1479;
},
{
layerId = "01BBB9D0-923D-4A6C-8EB0-69AD5A5509C5";
shapes = (
{
closed = 1;
nodes = (
(1134,1356,l),
(1134,516,ls),
(1134,230,o),
(1007,109,o),
(762,109,cs),
(494,109,o),
(356,218,o),
(356,506,cs),
(356,1356,l),
(216,1356,l),
(216,420,ls),
(216,135,o),
(424,-13,o),
(764,-13,cs),
(1047,-13,o),
(1263,140,o),
(1263,462,cs),
(1263,1356,l)
);
}
);
width = 1479;
},
{
layerId = "2CC194DC-208A-46E6-9B56-B5536ADC1FAA";
shapes = (
{
closed = 1;
nodes = (
(994,1356,l),
(994,504,ls),
(994,330,o),
(903,261,o),
(754,261,cs),
(572,261,o),
(500,346,o),
(500,506,cs),
(500,1356,l),
(176,1356,l),
(176,462,ls),
(176,137,o),
(388,-27,o),
(760,-27,cs),
(1069,-27,o),
(1303,132,o),
(1303,492,cs),
(1303,1356,l)
);
}
);
width = 1479;
}
);
unicode = 85;
},
{
glyphname = V;
layers = (
{
layerId = "2C98FBFB-9C5A-4FF8-8654-E7A0DF5B1F27";
shapes = (
{
closed = 1;
nodes = (
(708,397,l),
(267,1356,l),
(85,1356,l),
(710,-22,l),
(779,-22,l),
(1395,1356,l),
(1230,1356,l),
(808,402,l),
(759,254,l),
(755,254,l)
);
}
);
width = 1479;
},
{
layerId = "7CF7CDD4-0A84-4151-8A85-E5A01EE42E23";
shapes = (
{
closed = 1;
nodes = (
(697,538,l),
(354,1356,l),
(51,1356,l),
(653,-12,l),
(831,-12,l),
(1429,1356,l),
(1154,1356,l),
(823,541,l),
(763,365,l),
(755,365,l)
);
}
);
width = 1479;
},
{
layerId = "01BBB9D0-923D-4A6C-8EB0-69AD5A5509C5";
shapes = (
{
closed = 1;
nodes = (
(712,350,l),
(238,1356,l),
(96,1356,l),
(729,-25,l),
(762,-25,l),
(1384,1356,l),
(1255,1356,l),
(803,356,l),
(758,217,l),
(755,217,l)
);
}
);
width = 1479;
},
{
layerId = "2CC194DC-208A-46E6-9B56-B5536ADC1FAA";
shapes = (
{
closed = 1;
nodes = (
(690,632,l),
(412,1356,l),
(28,1356,l),
(615,-5,l),
(866,-5,l),
(1452,1356,l),
(1103,1356,l),
(833,634,l),
(766,439,l),
(755,439,l)
);
}
);
width = 1479;
}
);
unicode = 86;
},
{
glyphname = W;
layers = (
{
layerId = "2C98FBFB-9C5A-4FF8-8654-E7A0DF5B1F27";
shapes = (
{
closed = 1;
nodes = (
(521,418,l),
(225,1356,l),
(55,1356,l),
(496,-22,l),
(586,-22,l),
(916,895,l),
(953,1048,l),
(961,1048,l),
(1001,896,l),
(1331,-22,l),
(1420,-22,l),
(1850,1356,l),
(1681,1356,l),
(1405,420,l),
(1370,267,l),
(1369,267,l),
(1337,418,l),
(995,1356,l),
(922,1356,l),
(585,420,l),
(553,267,l),
(549,267,l)
);
}
);
width = 1903;
},
{
layerId = "7CF7CDD4-0A84-4151-8A85-E5A01EE42E23";
shapes = (
{
closed = 1;
nodes = (
(585,572,l),
(354,1356,l),
(67,1356,l),
(507,-12,l),
(689,-12,l),
(964,760,l),
(1008,927,l),
(1019,927,l),
(1064,761,l),
(1340,-12,l),
(1512,-12,l),
(1953,1356,l),
(1685,1356,l),
(1469,576,l),
(1427,398,l),
(1419,398,l),
(1377,572,l),
(1108,1356,l),
(945,1356,l),
(673,576,l),
(631,398,l),
(625,398,l)
);
}
);
width = 2019;
},
{
layerId = "01BBB9D0-923D-4A6C-8EB0-69AD5A5509C5";
shapes = (
{
closed = 1;
nodes = (
(500,367,l),
(182,1356,l),
(51,1356,l),
(492,-25,l),
(552,-25,l),
(900,940,l),
(935,1088,l),
(942,1088,l),
(980,941,l),
(1328,-25,l),
(1389,-25,l),
(1816,1356,l),
(1680,1356,l),
(1384,368,l),
(1351,223,l),
(1352,223,l),
(1324,367,l),
(957,1356,l),
(914,1356,l),
(556,368,l),
(527,223,l),
(524,223,l)
);
}
);
width = 1864;
},
{
layerId = "2CC194DC-208A-46E6-9B56-B5536ADC1FAA";
shapes = (
{
closed = 1;
nodes = (
(624,675,l),
(436,1356,l),
(75,1356,l),
(514,-5,l),
(758,-5,l),
(996,670,l),
(1045,846,l),
(1058,846,l),
(1106,671,l),
(1346,-5,l),
(1573,-5,l),
(2022,1356,l),
(1684,1356,l),
(1508,680,l),
(1461,485,l),
(1448,485,l),
(1400,675,l),
(1179,1356,l),
(956,1356,l),
(728,680,l),
(679,485,l),
(672,485,l)
);
}
);
width = 2096;
}
);
unicode = 87;
},
{
glyphname = X;
layers = (
{
layerId = "2C98FBFB-9C5A-4FF8-8654-E7A0DF5B1F27";
shapes = (
{
closed = 1;
nodes = (
(644,689,l),
(106,0,l),
(292,0,l),
(685,514,l),
(738,602,l),
(795,514,l),
(1177,0,l),
(1372,0,l),
(844,702,l),
(1352,1356,l),
(1166,1356,l),
(799,870,l),
(753,792,l),
(703,870,l),
(349,1356,l),
(148,1356,l)
);
}
);
width = 1479;
},
{
layerId = "7CF7CDD4-0A84-4151-8A85-E5A01EE42E23";
shapes = (
{
closed = 1;
nodes = (
(568,689,l),
(65,0,l),
(355,0,l),
(661,432,l),
(726,530,l),
(793,432,l),
(1100,0,l),
(1414,0,l),
(910,705,l),
(1392,1356,l),
(1102,1356,l),
(814,953,l),
(754,855,l),
(693,953,l),
(425,1356,l),
(108,1356,l)
);
}
);
width = 1479;
},
{
layerId = "01BBB9D0-923D-4A6C-8EB0-69AD5A5509C5";
shapes = (
{
closed = 1;
nodes = (
(669,689,l),
(120,0,l),
(271,0,l),
(693,541,l),
(742,626,l),
(796,541,l),
(1203,0,l),
(1358,0,l),
(822,701,l),
(1339,1356,l),
(1187,1356,l),
(794,842,l),
(753,771,l),
(706,842,l),
(324,1356,l),
(161,1356,l)
);
}
);
width = 1479;
},
{
layerId = "2CC194DC-208A-46E6-9B56-B5536ADC1FAA";
shapes = (
{
closed = 1;
nodes = (
(517,689,l),
(38,0,l),
(397,0,l),
(645,377,l),
(718,482,l),
(792,377,l),
(1049,0,l),
(1442,0,l),
(954,707,l),
(1419,1356,l),
(1059,1356,l),
(824,1008,l),
(755,897,l),
(686,1008,l),
(476,1356,l),
(81,1356,l)
);
}
);
width = 1479;
}
);
unicode = 88;
},
{
glyphname = Y;
layers = (
{
layerId = "2C98FBFB-9C5A-4FF8-8654-E7A0DF5B1F27";
shapes = (
{
closed = 1;
nodes = (
(662,538,l),
(662,0,l),
(830,0,l),
(830,540,l),
(1354,1356,l),
(1180,1356,l),
(789,724,l),
(758,657,l),
(755,657,l),
(729,720,l),
(318,1356,l),
(124,1356,l)
);
}
);
width = 1479;
},
{
layerId = "7CF7CDD4-0A84-4151-8A85-E5A01EE42E23";
shapes = (
{
closed = 1;
nodes = (
(609,507,l),
(609,0,l),
(873,0,l),
(873,509,l),
(1429,1356,l),
(1135,1356,l),
(815,840,l),
(759,732,l),
(753,732,l),
(698,837,l),
(373,1356,l),
(50,1356,l)
);
}
);
width = 1479;
},
{
layerId = "01BBB9D0-923D-4A6C-8EB0-69AD5A5509C5";
shapes = (
{
closed = 1;
nodes = (
(680,548,l),
(680,0,l),
(816,0,l),
(816,550,l),
(1329,1356,l),
(1195,1356,l),
(780,685,l),
(758,632,l),
(756,632,l),
(739,681,l),
(300,1356,l),
(149,1356,l)
);
}
);
width = 1479;
},
{
layerId = "2CC194DC-208A-46E6-9B56-B5536ADC1FAA";
shapes = (
{
closed = 1;
nodes = (
(574,486,l),
(574,0,l),
(902,0,l),
(902,488,l),
(1479,1356,l),
(1105,1356,l),
(832,917,l),
(760,782,l),
(752,782,l),
(677,915,l),
(410,1356,l),
(1,1356,l)
);
}
);
width = 1479;
}
);
unicode = 89;
},
{
glyphname = Z;
layers = (
{
layerId = "2C98FBFB-9C5A-4FF8-8654-E7A0DF5B1F27";
shapes = (
{
closed = 1;
nodes = (
(126,149,l),
(126,0,l),
(1091,0,l),
(1091,149,l),
(294,149,l),
(357,221,l),
(1096,1206,l),
(1096,1356,l),
(121,1356,l),
(121,1206,l),
(925,1206,l),
(857,1129,l)
);
}
);
width = 1221;
},
{
layerId = "7CF7CDD4-0A84-4151-8A85-E5A01EE42E23";
shapes = (
{
closed = 1;
nodes = (
(118,232,l),
(118,0,l),
(1231,0,l),
(1231,232,l),
(398,232,l),
(485,304,l),
(1219,1124,l),
(1219,1356,l),
(133,1356,l),
(133,1124,l),
(939,1124,l),
(847,1045,l)
);
}
);
width = 1337;
},
{
layerId = "01BBB9D0-923D-4A6C-8EB0-69AD5A5509C5";
shapes = (
{
closed = 1;
nodes = (
(129,121,l),
(129,0,l),
(1044,0,l),
(1044,121,l),
(259,121,l),
(314,193,l),
(1055,1233,l),
(1055,1356,l),
(117,1356,l),
(117,1233,l),
(920,1233,l),
(860,1157,l)
);
}
);
width = 1182;
},
{
layerId = "2CC194DC-208A-46E6-9B56-B5536ADC1FAA";
shapes = (
{
closed = 1;
nodes = (
(113,287,l),
(113,0,l),
(1324,0,l),
(1324,287,l),
(467,287,l),
(570,359,l),
(1301,1069,l),
(1301,1356,l),
(141,1356,l),
(141,1069,l),
(948,1069,l),
(840,989,l)
);
}
);
width = 1414;
}
);
unicode = 90;
},
{
glyphname = bracketleft;
layers = (
{
layerId = "01BBB9D0-923D-4A6C-8EB0-69AD5A5509C5";
shapes = (
{
closed = 1;
nodes = (
(218,1356,l),
(218,-445,l),
(594,-445,l),
(594,-309,l),
(376,-309,l),
(376,1220,l),
(594,1220,l),
(594,1356,l)
);
}
);
width = 682;
},
{
layerId = "2CC194DC-208A-46E6-9B56-B5536ADC1FAA";
shapes = (
{
closed = 1;
nodes = (
(83,1356,l),
(83,-445,l),
(636,-445,l),
(636,-170,l),
(397,-170,l),
(397,1081,l),
(636,1081,l),
(636,1356,l)
);
}
);
width = 682;
},
{
layerId = "7CF7CDD4-0A84-4151-8A85-E5A01EE42E23";
shapes = (
{
closed = 1;
nodes = (
(130,1356,l),
(130,-445,l),
(621,-445,l),
(621,-218,l),
(390,-218,l),
(390,1129,l),
(621,1129,l),
(621,1356,l)
);
}
);
width = 682;
},
{
layerId = "2C98FBFB-9C5A-4FF8-8654-E7A0DF5B1F27";
shapes = (
{
closed = 1;
nodes = (
(200,1356,l),
(200,-445,l),
(599,-445,l),
(599,-290,l),
(379,-290,l),
(379,1201,l),
(599,1201,l),
(599,1356,l)
);
}
);
width = 682;
}
);
unicode = 91;
},
{
glyphname = backslash;
layers = (
{
layerId = "01BBB9D0-923D-4A6C-8EB0-69AD5A5509C5";
shapes = (
{
closed = 1;
nodes = (
(672,-182,l),
(25,1380,l),
(-104,1308,l),
(546,-254,l)
);
}
);
width = 569;
},
{
layerId = "2CC194DC-208A-46E6-9B56-B5536ADC1FAA";
shapes = (
{
closed = 1;
nodes = (
(652,-320,l),
(189,1376,l),
(-82,1314,l),
(372,-383,l)
);
}
);
width = 569;
},
{
layerId = "7CF7CDD4-0A84-4151-8A85-E5A01EE42E23";
shapes = (
{
closed = 1;
nodes = (
(650,-272,l),
(141,1377,l),
(-81,1312,l),
(423,-338,l)
);
}
);
width = 569;
},
{
layerId = "2C98FBFB-9C5A-4FF8-8654-E7A0DF5B1F27";
shapes = (
{
closed = 1;
nodes = (
(647,-200,l),
(69,1379,l),
(-79,1309,l),
(500,-271,l)
);
}
);
width = 569;
}
);
unicode = 92;
},
{
glyphname = bracketright;
layers = (
{
layerId = "01BBB9D0-923D-4A6C-8EB0-69AD5A5509C5";
shapes = (
{
closed = 1;
nodes = (
(464,-445,l),
(464,1356,l),
(89,1356,l),
(89,1220,l),
(306,1220,l),
(306,-309,l),
(89,-309,l),
(89,-445,l)
);
}
);
width = 682;
},
{
layerId = "2CC194DC-208A-46E6-9B56-B5536ADC1FAA";
shapes = (
{
closed = 1;
nodes = (
(599,-445,l),
(599,1356,l),
(45,1356,l),
(45,1081,l),
(285,1081,l),
(285,-170,l),
(45,-170,l),
(45,-445,l)
);
}
);
width = 682;
},
{
layerId = "7CF7CDD4-0A84-4151-8A85-E5A01EE42E23";
shapes = (
{
closed = 1;
nodes = (
(552,-445,l),
(552,1356,l),
(60,1356,l),
(60,1129,l),
(292,1129,l),
(292,-218,l),
(60,-218,l),
(60,-445,l)
);
}
);
width = 682;
},
{
layerId = "2C98FBFB-9C5A-4FF8-8654-E7A0DF5B1F27";
shapes = (
{
closed = 1;
nodes = (
(482,-445,l),
(482,1356,l),
(83,1356,l),
(83,1201,l),
(303,1201,l),
(303,-290,l),
(83,-290,l),
(83,-445,l)
);
}
);
width = 682;
}
);
unicode = 93;
},
{
glyphname = asciicircum;
layers = (
{
layerId = "01BBB9D0-923D-4A6C-8EB0-69AD5A5509C5";
shapes = (
{
closed = 1;
nodes = (
(441,1378,l),
(48,843,l),
(200,843,l),
(405,1105,l),
(467,1243,l),
(514,1107,l),
(686,843,l),
(854,843,l),
(497,1378,l)
);
}
);
width = 902;
},
{
layerId = "2CC194DC-208A-46E6-9B56-B5536ADC1FAA";
shapes = (
{
closed = 1;
nodes = (
(582,1358,l),
(160,771,l),
(480,771,l),
(601,966,l),
(666,1089,l),
(728,968,l),
(850,771,l),
(1181,771,l),
(776,1358,l)
);
}
);
width = 1343;
},
{
layerId = "7CF7CDD4-0A84-4151-8A85-E5A01EE42E23";
shapes = (
{
closed = 1;
nodes = (
(533,1365,l),
(121,796,l),
(383,796,l),
(533,1014,l),
(597,1142,l),
(654,1016,l),
(793,796,l),
(1068,796,l),
(679,1365,l)
);
}
);
width = 1190;
},
{
layerId = "2C98FBFB-9C5A-4FF8-8654-E7A0DF5B1F27";
shapes = (
{
closed = 1;
nodes = (
(460,1375,l),
(63,833,l),
(237,833,l),
(431,1086,l),
(493,1222,l),
(543,1088,l),
(708,833,l),
(898,833,l),
(534,1375,l)
);
}
);
width = 961;
}
);
unicode = 94;
},
{
glyphname = underscore;
layers = (
{
layerId = "01BBB9D0-923D-4A6C-8EB0-69AD5A5509C5";
shapes = (
{
closed = 1;
nodes = (
(90,-263,l),
(90,-397,l),
(935,-397,l),
(935,-263,l)
);
}
);
width = 1024;
},
{
layerId = "2CC194DC-208A-46E6-9B56-B5536ADC1FAA";
shapes = (
{
closed = 1;
nodes = (
(-24,-195,l),
(-24,-460,l),
(1050,-460,l),
(1050,-195,l)
);
}
);
width = 1024;
},
{
layerId = "7CF7CDD4-0A84-4151-8A85-E5A01EE42E23";
shapes = (
{
closed = 1;
nodes = (
(15,-218,l),
(15,-438,l),
(1010,-438,l),
(1010,-218,l)
);
}
);
width = 1024;
},
{
layerId = "2C98FBFB-9C5A-4FF8-8654-E7A0DF5B1F27";
shapes = (
{
closed = 1;
nodes = (
(74,-253,l),
(74,-405,l),
(950,-405,l),
(950,-253,l)
);
}
);
width = 1024;
}
);
unicode = 95;
},
{
glyphname = grave;
layers = (
{
layerId = "01BBB9D0-923D-4A6C-8EB0-69AD5A5509C5";
shapes = (
{
closed = 1;
nodes = (
(503,1061,l),
(363,1342,l),
(170,1342,l),
(170,1299,l),
(408,1061,l)
);
}
);
width = 682;
},
{
layerId = "2CC194DC-208A-46E6-9B56-B5536ADC1FAA";
shapes = (
{
closed = 1;
nodes = (
(545,1128,l),
(418,1449,l),
(85,1449,l),
(85,1383,l),
(375,1128,l)
);
}
);
width = 682;
},
{
layerId = "7CF7CDD4-0A84-4151-8A85-E5A01EE42E23";
shapes = (
{
closed = 1;
nodes = (
(530,1105,l),
(399,1412,l),
(114,1412,l),
(114,1354,l),
(386,1105,l)
);
}
);
width = 682;
},
{
layerId = "2C98FBFB-9C5A-4FF8-8654-E7A0DF5B1F27";
shapes = (
{
closed = 1;
nodes = (
(508,1070,l),
(370,1356,l),
(158,1356,l),
(158,1310,l),
(403,1070,l)
);
}
);
width = 682;
}
);
unicode = 96;
},
{
glyphname = a;
layers = (
{
layerId = "01BBB9D0-923D-4A6C-8EB0-69AD5A5509C5";
shapes = (
{
closed = 1;
nodes = (
(169,743,l),
(248,783,o),
(323,817,o),
(401,817,cs),
(574,817,o),
(603,762,o),
(603,625,cs),
(603,579,o),
(601,558,o),
(597,523,c),
(569,525,o),
(566,536,o),
(393,536,cs),
(200,536,o),
(78,452,o),
(78,250,cs),
(78,97,o),
(172,-14,o),
(313,-14,cs),
(473,-14,o),
(560,59,o),
(605,136,c),
(613,136,l),
(658,-5,l),
(752,-5,l),
(735,66,o),
(729,149,o),
(729,236,cs),
(729,391,o),
(743,516,o),
(743,647,cs),
(743,763,o),
(722,936,o),
(439,936,cs),
(282,936,o),
(222,896,o),
(130,854,c)
);
},
{
closed = 1;
nodes = (
(597,267,l),
(567,199,o),
(487,105,o),
(355,105,cs),
(292,105,o),
(227,169,o),
(227,265,cs),
(227,405,o),
(321,429,o),
(415,429,cs),
(558,429,o),
(562,424,o),
(597,416,c)
);
}
);
width = 879;
},
{
layerId = "2CC194DC-208A-46E6-9B56-B5536ADC1FAA";
shapes = (
{
closed = 1;
nodes = (
(236,658,l),
(320,690,o),
(404,733,o),
(536,733,cs),
(588,733,o),
(690,710,o),
(690,621,cs),
(690,616,o),
(688,596,o),
(686,577,c),
(595,600,o),
(560,603,o),
(518,603,cs),
(306,606,o),
(89,539,o),
(89,281,cs),
(89,87,o),
(214,-14,o),
(400,-14,cs),
(482,-14,o),
(606,-2,o),
(694,138,c),
(723,138,l),
(760,-1,l),
(1023,-1,l),
(991,85,o),
(977,168,o),
(977,262,cs),
(977,383,o),
(991,493,o),
(991,609,cs),
(991,853,o),
(866,976,o),
(612,976,cs),
(474,976,o),
(340,968,o),
(156,888,c)
);
},
{
closed = 1;
nodes = (
(689,327,l),
(659,268,o),
(591,228,o),
(520,228,cs),
(430,228,o),
(402,246,o),
(402,311,cs),
(402,335,o),
(419,435,o),
(565,435,cs),
(592,435,o),
(630,427,o),
(689,408,c)
);
}
);
width = 1101;
},
{
layerId = "7CF7CDD4-0A84-4151-8A85-E5A01EE42E23";
shapes = (
{
closed = 1;
nodes = (
(213,687,l),
(295,722,o),
(376,762,o),
(489,762,cs),
(583,762,o),
(660,728,o),
(660,622,cs),
(660,603,o),
(658,583,o),
(655,558,c),
(586,574,o),
(509,580,o),
(475,580,cs),
(269,580,o),
(85,509,o),
(85,270,cs),
(85,90,o),
(199,-14,o),
(370,-14,cs),
(479,-14,o),
(590,19,o),
(663,137,c),
(685,137,l),
(725,-2,l),
(929,-2,l),
(902,78,o),
(891,161,o),
(891,253,cs),
(891,386,o),
(905,501,o),
(905,622,cs),
(905,822,o),
(816,962,o),
(552,962,cs),
(407,962,o),
(299,943,o),
(147,876,c)
);
},
{
closed = 1;
nodes = (
(657,306,l),
(627,244,o),
(555,185,o),
(463,185,cs),
(382,185,o),
(341,219,o),
(341,295,cs),
(341,359,o),
(385,433,o),
(513,433,cs),
(559,433,o),
(620,421,o),
(657,411,c)
);
}
);
width = 1024;
},
{
layerId = "2C98FBFB-9C5A-4FF8-8654-E7A0DF5B1F27";
shapes = (
{
closed = 1;
nodes = (
(178,731,l),
(258,770,o),
(334,805,o),
(419,805,cs),
(576,805,o),
(615,755,o),
(615,624,cs),
(615,584,o),
(613,563,o),
(609,530,c),
(572,535,o),
(554,545,o),
(410,545,cs),
(214,545,o),
(79,464,o),
(79,254,cs),
(79,95,o),
(177,-14,o),
(325,-14,cs),
(474,-14,o),
(566,51,o),
(617,136,c),
(628,136,l),
(672,-4,l),
(788,-4,l),
(769,68,o),
(762,151,o),
(762,239,cs),
(762,390,o),
(776,513,o),
(776,642,cs),
(776,775,o),
(741,941,o),
(462,941,cs),
(307,941,o),
(238,906,o),
(133,858,c)
);
},
{
closed = 1;
nodes = (
(609,275,l),
(579,208,o),
(501,121,o),
(377,121,cs),
(310,121,o),
(250,179,o),
(250,271,cs),
(250,395,o),
(334,430,o),
(435,430,cs),
(558,430,o),
(574,423,o),
(609,415,c)
);
}
);
width = 909;
}
);
unicode = 97;
},
{
glyphname = b;
layers = (
{
layerId = "01BBB9D0-923D-4A6C-8EB0-69AD5A5509C5";
shapes = (
{
closed = 1;
nodes = (
(138,1377,l),
(138,52,l),
(240,-7,o),
(325,-13,o),
(432,-13,cs),
(731,-13,o),
(924,152,o),
(924,469,cs),
(924,782,o),
(813,935,o),
(557,935,cs),
(454,935,o),
(358,894,o),
(293,788,c),
(277,788,l),
(277,1377,l)
);
},
{
closed = 1;
nodes = (
(721,818,o),
(776,660,o),
(776,473,cs),
(776,256,o),
(675,103,o),
(457,103,cs),
(373,103,o),
(337,116,o),
(277,138,c),
(277,583,l),
(313,701,o),
(389,818,o),
(547,818,cs)
);
}
);
width = 994;
},
{
layerId = "2CC194DC-208A-46E6-9B56-B5536ADC1FAA";
shapes = (
{
closed = 1;
nodes = (
(157,1377,l),
(157,31,l),
(217,13,o),
(415,-30,o),
(626,-30,cs),
(941,-30,o),
(1116,177,o),
(1116,506,cs),
(1116,807,o),
(978,972,o),
(755,972,cs),
(646,972,o),
(540,934,o),
(489,892,c),
(464,892,l),
(464,1377,l)
);
},
{
closed = 1;
nodes = (
(744,714,o),
(801,660,o),
(801,496,cs),
(801,300,o),
(742,228,o),
(624,228,cs),
(571,228,o),
(506,226,o),
(464,253,c),
(464,612,l),
(495,698,o),
(577,714,o),
(645,714,cs)
);
}
);
width = 1216;
},
{
layerId = "7CF7CDD4-0A84-4151-8A85-E5A01EE42E23";
shapes = (
{
closed = 1;
nodes = (
(150,1377,l),
(150,38,l),
(225,6,o),
(384,-24,o),
(559,-24,cs),
(868,-24,o),
(1049,168,o),
(1049,493,cs),
(1049,798,o),
(921,959,o),
(686,959,cs),
(579,959,o),
(477,920,o),
(421,856,c),
(399,856,l),
(399,1377,l)
);
},
{
closed = 1;
nodes = (
(736,750,o),
(792,660,o),
(792,488,cs),
(792,285,o),
(719,185,o),
(566,185,cs),
(502,185,o),
(447,188,o),
(399,213,c),
(399,602,l),
(432,699,o),
(512,750,o),
(611,750,cs)
);
}
);
width = 1139;
},
{
layerId = "2C98FBFB-9C5A-4FF8-8654-E7A0DF5B1F27";
shapes = (
{
closed = 1;
nodes = (
(140,1377,l),
(140,49,l),
(237,-4,o),
(337,-15,o),
(458,-15,cs),
(759,-15,o),
(949,155,o),
(949,474,cs),
(949,785,o),
(835,940,o),
(583,940,cs),
(479,940,o),
(382,899,o),
(319,802,c),
(302,802,l),
(302,1377,l)
);
},
{
closed = 1;
nodes = (
(724,804,o),
(779,660,o),
(779,476,cs),
(779,262,o),
(684,120,o),
(479,120,cs),
(399,120,o),
(359,131,o),
(302,153,c),
(302,587,l),
(337,700,o),
(414,804,o),
(560,804,cs)
);
}
);
width = 1024;
}
);
unicode = 98;
},
{
glyphname = c;
layers = (
{
layerId = "01BBB9D0-923D-4A6C-8EB0-69AD5A5509C5";
shapes = (
{
closed = 1;
nodes = (
(808,182,l),
(741,122,o),
(638,94,o),
(540,94,cs),
(305,94,o),
(228,273,o),
(228,455,cs),
(228,704,o),
(328,822,o),
(521,822,cs),
(610,822,o),
(713,792,o),
(777,745,c),
(838,845,l),
(769,909,o),
(623,936,o),
(504,936,cs),
(236,936,o),
(79,756,o),
(79,455,cs),
(79,171,o),
(221,-23,o),
(496,-23,cs),
(649,-23,o),
(778,27,o),
(859,83,c)
);
}
);
width = 909;
},
{
layerId = "2CC194DC-208A-46E6-9B56-B5536ADC1FAA";
shapes = (
{
closed = 1;
nodes = (
(800,288,l),
(756,278,o),
(693,249,o),
(603,249,cs),
(470,249,o),
(409,333,o),
(409,474,cs),
(409,594,o),
(464,700,o),
(628,700,cs),
(705,700,o),
(747,680,o),
(811,667,c),
(870,920,l),
(798,940,o),
(733,976,o),
(593,976,cs),
(276,976,o),
(96,762,o),
(96,474,cs),
(96,180,o),
(233,-29,o),
(561,-29,cs),
(664,-29,o),
(781,-2,o),
(859,52,c)
);
}
);
width = 909;
},
{
layerId = "7CF7CDD4-0A84-4151-8A85-E5A01EE42E23";
shapes = (
{
closed = 1;
nodes = (
(803,251,l),
(751,224,o),
(674,194,o),
(581,194,cs),
(413,194,o),
(346,312,o),
(346,467,cs),
(346,632,o),
(417,742,o),
(591,742,cs),
(672,742,o),
(735,719,o),
(799,694,c),
(859,894,l),
(788,929,o),
(695,962,o),
(562,962,cs),
(260,962,o),
(90,763,o),
(90,467,cs),
(90,175,o),
(218,-27,o),
(538,-27,cs),
(659,-27,o),
(780,8,o),
(859,63,c)
);
}
);
width = 909;
},
{
layerId = "2C98FBFB-9C5A-4FF8-8654-E7A0DF5B1F27";
shapes = (
{
closed = 1;
nodes = (
(807,196,l),
(743,143,o),
(645,112,o),
(548,112,cs),
(327,112,o),
(252,281,o),
(252,457,cs),
(252,689,o),
(346,805,o),
(535,805,cs),
(623,805,o),
(717,777,o),
(781,734,c),
(842,855,l),
(773,913,o),
(638,941,o),
(516,941,cs),
(236,941,o),
(81,765,o),
(81,457,cs),
(81,168,o),
(195,-24,o),
(504,-24,cs),
(651,-24,o),
(778,23,o),
(859,79,c)
);
}
);
width = 909;
}
);
unicode = 99;
},
{
glyphname = d;
layers = (
{
layerId = "01BBB9D0-923D-4A6C-8EB0-69AD5A5509C5";
shapes = (
{
closed = 1;
nodes = (
(835,1377,l),
(698,1377,l),
(698,895,l),
(623,914,o),
(587,928,o),
(524,928,cs),
(239,928,o),
(68,763,o),
(68,412,cs),
(68,123,o),
(195,-23,o),
(411,-23,cs),
(547,-23,o),
(663,51,o),
(708,138,c),
(723,138,l),
(766,-5,l),
(854,-5,l),
(838,89,o),
(835,188,o),
(835,313,cs)
);
},
{
closed = 1;
nodes = (
(290,93,o),
(211,243,o),
(211,448,cs),
(211,717,o),
(338,810,o),
(528,810,cs),
(583,810,o),
(646,793,o),
(698,757,c),
(698,320,l),
(666,168,o),
(585,94,o),
(436,94,c)
);
}
);
width = 994;
},
{
layerId = "2CC194DC-208A-46E6-9B56-B5536ADC1FAA";
shapes = (
{
closed = 1;
nodes = (
(1058,1377,l),
(750,1377,l),
(750,943,l),
(698,962,o),
(631,977,o),
(538,977,cs),
(233,977,o),
(102,765,o),
(102,472,cs),
(102,172,o),
(232,-29,o),
(501,-29,cs),
(639,-29,o),
(697,1,o),
(800,123,c),
(825,123,l),
(856,-1,l),
(1076,-1,l),
(1054,141,o),
(1058,249,o),
(1058,336,cs)
);
},
{
closed = 1;
nodes = (
(443,237,o),
(419,333,o),
(419,456,cs),
(419,561,o),
(413,721,o),
(588,721,cs),
(679,721,o),
(707,706,o),
(750,676,c),
(750,334,l),
(723,272,o),
(677,229,o),
(584,229,c)
);
}
);
width = 1216;
},
{
layerId = "7CF7CDD4-0A84-4151-8A85-E5A01EE42E23";
shapes = (
{
closed = 1;
nodes = (
(981,1377,l),
(732,1377,l),
(732,926,l),
(672,945,o),
(616,960,o),
(533,960,cs),
(235,960,o),
(90,764,o),
(90,451,cs),
(90,155,o),
(219,-27,o),
(470,-27,cs),
(607,-27,o),
(685,18,o),
(768,128,c),
(790,128,l),
(825,-2,l),
(999,-2,l),
(979,123,o),
(981,228,o),
(981,328,cs)
);
},
{
closed = 1;
nodes = (
(390,187,o),
(347,302,o),
(347,453,cs),
(347,615,o),
(387,752,o),
(567,752,cs),
(646,752,o),
(686,736,o),
(732,704,c),
(732,329,l),
(703,236,o),
(645,182,o),
(533,182,c)
);
}
);
width = 1139;
},
{
layerId = "2C98FBFB-9C5A-4FF8-8654-E7A0DF5B1F27";
shapes = (
{
closed = 1;
nodes = (
(865,1377,l),
(705,1377,l),
(705,901,l),
(633,920,o),
(593,934,o),
(526,934,cs),
(238,934,o),
(72,763,o),
(72,420,cs),
(72,129,o),
(200,-24,o),
(423,-24,cs),
(559,-24,o),
(667,44,o),
(720,136,c),
(737,136,l),
(778,-4,l),
(884,-4,l),
(867,96,o),
(865,196,o),
(865,316,cs)
);
},
{
closed = 1;
nodes = (
(310,112,o),
(239,255,o),
(239,449,cs),
(239,696,o),
(348,798,o),
(536,798,cs),
(596,798,o),
(654,781,o),
(705,746,c),
(705,322,l),
(673,182,o),
(597,112,o),
(456,112,cs)
);
}
);
width = 1024;
}
);
unicode = 100;
},
{
glyphname = e;
layers = (
{
layerId = "01BBB9D0-923D-4A6C-8EB0-69AD5A5509C5";
shapes = (
{
closed = 1;
nodes = (
(743,185,l),
(694,138,o),
(630,97,o),
(531,97,cs),
(350,97,o),
(209,187,o),
(212,445,c),
(825,445,l),
(832,491,o),
(832,539,o),
(832,569,cs),
(832,851,o),
(663,936,o),
(497,936,cs),
(213,936,o),
(73,780,o),
(73,456,cs),
(73,165,o),
(204,-23,o),
(480,-23,cs),
(622,-23,o),
(714,17,o),
(798,79,c)
);
},
{
closed = 1;
nodes = (
(222,550,l),
(242,755,o),
(330,816,o),
(503,816,cs),
(670,816,o),
(701,684,o),
(699,550,c)
);
}
);
width = 909;
},
{
layerId = "2CC194DC-208A-46E6-9B56-B5536ADC1FAA";
shapes = (
{
closed = 1;
nodes = (
(739,264,l),
(690,236,o),
(612,207,o),
(528,207,cs),
(384,207,o),
(370,287,o),
(368,379,c),
(844,379,l),
(857,430,o),
(866,513,o),
(866,588,cs),
(866,799,o),
(765,976,o),
(494,976,cs),
(198,976,o),
(53,710,o),
(53,465,cs),
(53,159,o),
(186,-29,o),
(517,-29,cs),
(651,-29,o),
(774,2,o),
(838,50,c)
);
},
{
closed = 1;
nodes = (
(363,556,l),
(357,613,o),
(367,740,o),
(470,740,cs),
(577,740,o),
(594,640,o),
(580,556,c)
);
}
);
width = 909;
},
{
layerId = "7CF7CDD4-0A84-4151-8A85-E5A01EE42E23";
shapes = (
{
closed = 1;
nodes = (
(740,237,l),
(691,202,o),
(618,169,o),
(529,169,cs),
(372,169,o),
(314,252,o),
(314,402,c),
(837,402,l),
(848,451,o),
(854,522,o),
(854,581,cs),
(854,817,o),
(730,962,o),
(495,962,cs),
(203,962,o),
(60,734,o),
(60,462,cs),
(60,161,o),
(192,-27,o),
(504,-27,cs),
(641,-27,o),
(753,7,o),
(824,60,c)
);
},
{
closed = 1;
nodes = (
(314,554,l),
(317,662,o),
(354,766,o),
(481,766,cs),
(609,766,o),
(631,655,o),
(621,554,c)
);
}
);
width = 909;
},
{
layerId = "2C98FBFB-9C5A-4FF8-8654-E7A0DF5B1F27";
shapes = (
{
closed = 1;
nodes = (
(742,196,l),
(693,151,o),
(627,112,o),
(530,112,cs),
(354,112,o),
(230,200,o),
(233,436,c),
(827,436,l),
(835,483,o),
(836,535,o),
(836,571,cs),
(836,844,o),
(677,941,o),
(496,941,cs),
(211,941,o),
(70,770,o),
(70,457,cs),
(70,164,o),
(201,-24,o),
(485,-24,cs),
(626,-24,o),
(722,15,o),
(803,75,c)
);
},
{
closed = 1;
nodes = (
(241,551,l),
(257,736,o),
(335,805,o),
(498,805,cs),
(657,805,o),
(686,678,o),
(683,551,c)
);
}
);
width = 909;
}
);
unicode = 101;
},
{
glyphname = f;
layers = (
{
layerId = "01BBB9D0-923D-4A6C-8EB0-69AD5A5509C5";
shapes = (
{
closed = 1;
nodes = (
(85,910,l),
(85,791,l),
(242,791,l),
(242,0,l),
(380,0,l),
(380,791,l),
(663,791,l),
(663,910,l),
(381,910,l),
(381,1031,ls),
(381,1149,o),
(420,1259,o),
(541,1259,cs),
(588,1259,o),
(645,1255,o),
(706,1229,c),
(738,1343,l),
(668,1367,o),
(603,1377,o),
(522,1377,cs),
(309,1377,o),
(242,1216,o),
(242,983,cs),
(242,910,l)
);
}
);
width = 682;
},
{
layerId = "2CC194DC-208A-46E6-9B56-B5536ADC1FAA";
shapes = (
{
closed = 1;
nodes = (
(9,950,l),
(9,695,l),
(149,695,l),
(149,0,l),
(457,0,l),
(457,695,l),
(626,695,l),
(626,950,l),
(450,950,l),
(450,1033,ls),
(450,1095,o),
(464,1137,o),
(544,1137,cs),
(607,1137,o),
(624,1122,o),
(679,1107,c),
(734,1343,l),
(656,1367,o),
(620,1377,o),
(487,1377,cs),
(306,1377,o),
(149,1322,o),
(149,1136,cs),
(149,950,l)
);
}
);
width = 682;
},
{
layerId = "7CF7CDD4-0A84-4151-8A85-E5A01EE42E23";
shapes = (
{
closed = 1;
nodes = (
(35,936,l),
(35,728,l),
(181,728,l),
(181,0,l),
(430,0,l),
(430,728,l),
(639,728,l),
(639,936,l),
(426,936,l),
(426,1032,ls),
(426,1114,o),
(449,1179,o),
(543,1179,cs),
(600,1179,o),
(631,1168,o),
(688,1149,c),
(735,1343,l),
(660,1367,o),
(614,1377,o),
(499,1377,cs),
(307,1377,o),
(181,1285,o),
(181,1083,cs),
(181,936,l)
);
}
);
width = 682;
},
{
layerId = "2C98FBFB-9C5A-4FF8-8654-E7A0DF5B1F27";
shapes = (
{
closed = 1;
nodes = (
(74,915,l),
(74,778,l),
(229,778,l),
(229,0,l),
(390,0,l),
(390,778,l),
(658,778,l),
(658,915,l),
(390,915,l),
(390,1031,ls),
(390,1142,o),
(426,1242,o),
(541,1242,cs),
(590,1242,o),
(642,1237,o),
(702,1212,c),
(737,1343,l),
(666,1367,o),
(605,1377,o),
(517,1377,cs),
(308,1377,o),
(229,1230,o),
(229,1003,cs),
(229,915,l)
);
}
);
width = 682;
}
);
unicode = 102;
},
{
glyphname = g;
widthMetricsKey = "=1024";
layers = (
{
layerId = "01BBB9D0-923D-4A6C-8EB0-69AD5A5509C5";
shapes = (
{
closed = 1;
nodes = (
(246,754,o),
(330,829,o),
(470,829,cs),
(611,829,o),
(698,753,o),
(698,629,cs),
(698,504,o),
(611,436,o),
(470,436,cs),
(328,436,o),
(246,503,o),
(246,628,cs)
);
},
{
closed = 1;
nodes = (
(768,-220,o),
(668,-291,o),
(480,-291,cs),
(314,-291,o),
(213,-236,o),
(213,-125,cs),
(213,-28,o),
(292,47,o),
(436,98,c),
(366,91,l),
(660,4,ls),
(738,-20,o),
(768,-50,o),
(768,-109,cs)
);
},
{
closed = 1;
nodes = (
(217,934,o),
(108,787,o),
(108,637,cs),
(108,512,o),
(182,399,o),
(303,354,c),
(267,326,o),
(233,285,o),
(233,218,cs),
(233,162,o),
(259,128,o),
(322,110,c),
(323,134,l),
(165,97,o),
(69,-6,o),
(69,-135,cs),
(69,-299,o),
(224,-395,o),
(478,-395,cs),
(753,-395,o),
(908,-281,o),
(908,-98,cs),
(908,76,o),
(767,98,o),
(632,139,cs),
(377,217,ls),
(359,223,o),
(349,240,o),
(349,263,cs),
(349,288,o),
(361,315,o),
(382,336,c),
(408,336,o),
(432,333,o),
(469,333,cs),
(693,333,o),
(831,447,o),
(831,652,cs),
(831,695,o),
(825,746,o),
(806,786,c),
(991,786,l),
(1018,832,l),
(1021,869,o),
(1027,907,o),
(1001,942,c),
(926,924,o),
(861,906,o),
(769,855,c),
(698,912,o),
(596,934,o),
(489,934,cs)
);
}
);
width = 1024;
},
{
layerId = "2CC194DC-208A-46E6-9B56-B5536ADC1FAA";
shapes = (
{
closed = 1;
nodes = (
(385,714,o),
(426,760,o),
(484,760,cs),
(541,760,o),
(579,716,o),
(579,640,cs),
(579,563,o),
(541,522,o),
(485,522,cs),
(426,522,o),
(385,567,o),
(385,641,cs)
);
},
{
closed = 1;
nodes = (
(673,-125,o),
(606,-167,o),
(511,-167,cs),
(412,-167,o),
(347,-121,o),
(347,-48,cs),
(347,-6,o),
(368,49,o),
(444,86,c),
(378,71,l),
(588,38,ls),
(662,26,o),
(673,-4,o),
(673,-39,cs)
);
},
{
closed = 1;
nodes = (
(291,976,o),
(86,871,o),
(86,614,cs),
(86,504,o),
(124,425,o),
(201,374,c),
(173,340,o),
(161,295,o),
(161,243,cs),
(161,164,o),
(189,108,o),
(250,88,c),
(257,118,l),
(137,59,o),
(75,-26,o),
(75,-125,cs),
(75,-237,o),
(154,-385,o),
(458,-385,cs),
(755,-385,o),
(958,-243,o),
(958,-40,cs),
(958,86,o),
(879,187,o),
(690,221,c),
(425,264,l),
(415,267,o),
(405,274,o),
(405,279,cs),
(405,283,o),
(412,298,o),
(420,308,c),
(434,308,o),
(452,305,o),
(492,305,cs),
(783,305,o),
(881,465,o),
(881,621,cs),
(881,659,o),
(875,682,o),
(872,702,c),
(969,702,l),
(1020,790,l),
(1005,847,o),
(961,987,o),
(937,1014,c),
(916,1006,o),
(819,926,o),
(759,873,c),
(700,924,o),
(622,976,o),
(485,976,cs)
);
}
);
width = 1024;
},
{
layerId = "7CF7CDD4-0A84-4151-8A85-E5A01EE42E23";
shapes = (
{
closed = 1;
nodes = (
(341,723,o),
(394,778,o),
(480,778,cs),
(565,778,o),
(617,724,o),
(617,636,cs),
(617,548,o),
(565,497,o),
(480,497,cs),
(394,497,o),
(341,550,o),
(341,637,cs)
);
},
{
closed = 1;
nodes = (
(703,-152,o),
(627,-204,o),
(502,-204,cs),
(380,-204,o),
(305,-155,o),
(305,-72,cs),
(305,-13,o),
(343,48,o),
(442,90,c),
(374,78,l),
(612,27,ls),
(688,11,o),
(703,-19,o),
(703,-60,cs)
);
},
{
closed = 1;
nodes = (
(267,962,o),
(94,843,o),
(94,624,cs),
(94,507,o),
(144,416,o),
(235,367,c),
(205,335,o),
(185,292,o),
(185,233,cs),
(185,163,o),
(213,115,o),
(274,95,c),
(279,123,l),
(147,72,o),
(73,-19,o),
(73,-128,cs),
(73,-258,o),
(178,-388,o),
(465,-388,cs),
(755,-388,o),
(942,-256,o),
(942,-58,cs),
(942,87,o),
(842,162,o),
(671,198,cs),
(409,253,l),
(397,256,o),
(389,265,o),
(389,275,cs),
(389,284,o),
(396,303,o),
(408,317,c),
(426,317,o),
(446,314,o),
(485,314,cs),
(753,314,o),
(865,459,o),
(865,631,cs),
(865,671,o),
(859,703,o),
(850,730,c),
(977,730,l),
(1020,804,l),
(1011,854,o),
(983,960,o),
(959,990,c),
(920,979,o),
(833,919,o),
(763,867,c),
(700,920,o),
(614,962,o),
(485,962,cs)
);
}
);
width = 1024;
},
{
layerId = "2C98FBFB-9C5A-4FF8-8654-E7A0DF5B1F27";
shapes = (
{
closed = 1;
nodes = (
(270,746,o),
(346,816,o),
(473,816,cs),
(600,816,o),
(678,746,o),
(678,631,cs),
(678,515,o),
(600,451,o),
(473,451,cs),
(345,451,o),
(270,515,o),
(270,630,cs)
);
},
{
closed = 1;
nodes = (
(752,-203,o),
(658,-269,o),
(486,-269,cs),
(331,-269,o),
(236,-216,o),
(236,-112,cs),
(236,-24,o),
(305,47,o),
(438,96,c),
(368,88,l),
(648,10,ls),
(726,-12,o),
(752,-42,o),
(752,-97,cs)
);
},
{
closed = 1;
nodes = (
(230,941,o),
(105,801,o),
(105,634,cs),
(105,511,o),
(173,403,o),
(286,357,c),
(252,328,o),
(221,287,o),
(221,222,cs),
(221,162,o),
(248,125,o),
(310,106,c),
(312,131,l),
(161,91,o),
(70,-9,o),
(70,-133,cs),
(70,-289,o),
(213,-393,o),
(475,-393,cs),
(754,-393,o),
(917,-275,o),
(917,-88,cs),
(917,79,o),
(786,114,o),
(642,154,cs),
(385,226,ls),
(369,231,o),
(359,246,o),
(359,266,cs),
(359,287,o),
(370,312,o),
(389,331,c),
(413,331,o),
(436,328,o),
(473,328,cs),
(708,328,o),
(840,450,o),
(840,647,cs),
(840,689,o),
(834,735,o),
(817,772,c),
(988,772,l),
(1019,825,l),
(1019,865,o),
(1016,920,o),
(991,954,c),
(925,938,o),
(854,909,o),
(768,858,c),
(699,914,o),
(601,941,o),
(488,941,cs)
);
}
);
width = 1024;
}
);
unicode = 103;
},
{
glyphname = h;
layers = (
{
layerId = "01BBB9D0-923D-4A6C-8EB0-69AD5A5509C5";
shapes = (
{
closed = 1;
nodes = (
(734,0,l),
(873,0,l),
(873,533,ls),
(873,848,o),
(805,936,o),
(569,936,cs),
(455,936,o),
(366,883,o),
(294,797,c),
(276,797,l),
(276,1377,l),
(138,1377,l),
(138,0,l),
(276,0,l),
(276,586,l),
(303,725,o),
(418,813,o),
(527,813,cs),
(710,813,o),
(734,725,o),
(734,504,cs)
);
}
);
width = 994;
},
{
layerId = "2CC194DC-208A-46E6-9B56-B5536ADC1FAA";
shapes = (
{
closed = 1;
nodes = (
(763,0,l),
(1072,0,l),
(1072,588,ls),
(1072,885,o),
(903,976,o),
(777,976,cs),
(630,976,o),
(541,904,o),
(488,835,c),
(464,835,l),
(464,1377,l),
(157,1377,l),
(157,0,l),
(464,0,l),
(464,571,l),
(507,652,o),
(553,705,o),
(629,705,cs),
(736,705,o),
(763,561,o),
(763,521,cs)
);
}
);
width = 1216;
},
{
layerId = "7CF7CDD4-0A84-4151-8A85-E5A01EE42E23";
shapes = (
{
closed = 1;
nodes = (
(753,0,l),
(1003,0,l),
(1003,569,ls),
(1003,872,o),
(869,962,o),
(705,962,cs),
(569,962,o),
(480,897,o),
(421,822,c),
(399,822,l),
(399,1377,l),
(150,1377,l),
(150,0,l),
(399,0,l),
(399,576,l),
(436,677,o),
(506,742,o),
(594,742,cs),
(727,742,o),
(753,618,o),
(753,515,cs)
);
}
);
width = 1139;
},
{
layerId = "2C98FBFB-9C5A-4FF8-8654-E7A0DF5B1F27";
shapes = (
{
closed = 1;
nodes = (
(738,0,l),
(899,0,l),
(899,540,ls),
(899,853,o),
(818,941,o),
(597,941,cs),
(478,941,o),
(389,886,o),
(320,802,c),
(301,802,l),
(301,1377,l),
(140,1377,l),
(140,0,l),
(301,0,l),
(301,584,l),
(330,715,o),
(436,798,o),
(541,798,cs),
(713,798,o),
(738,703,o),
(738,506,cs)
);
}
);
width = 1024;
}
);
unicode = 104;
},
{
glyphname = i;
layers = (
{
layerId = "01BBB9D0-923D-4A6C-8EB0-69AD5A5509C5";
shapes = (
{
closed = 1;
nodes = (
(216,910,l),
(216,0,l),
(352,0,l),
(352,910,l)
);
},
{
closed = 1;
nodes = (
(192,1211,o),
(231,1173,o),
(286,1173,cs),
(339,1173,o),
(378,1211,o),
(378,1259,cs),
(378,1308,o),
(339,1346,o),
(286,1346,cs),
(231,1346,o),
(192,1308,o),
(192,1259,cs)
);
}
);
width = 569;
},
{
layerId = "2CC194DC-208A-46E6-9B56-B5536ADC1FAA";
shapes = (
{
closed = 1;
nodes = (
(129,950,l),
(129,0,l),
(439,0,l),
(439,950,l)
);
},
{
closed = 1;
nodes = (
(95,1165,o),
(179,1106,o),
(278,1106,cs),
(396,1106,o),
(474,1163,o),
(474,1284,cs),
(474,1389,o),
(394,1458,o),
(278,1458,cs),
(179,1458,o),
(95,1389,o),
(95,1284,cs)
);
}
);
width = 569;
},
{
layerId = "7CF7CDD4-0A84-4151-8A85-E5A01EE42E23";
shapes = (
{
closed = 1;
nodes = (
(159,936,l),
(159,0,l),
(409,0,l),
(409,936,l)
);
},
{
closed = 1;
nodes = (
(129,1182,o),
(196,1130,o),
(281,1130,cs),
(377,1130,o),
(440,1181,o),
(440,1275,cs),
(440,1360,o),
(376,1419,o),
(281,1419,cs),
(196,1419,o),
(129,1360,o),
(129,1275,cs)
);
}
);
width = 569;
},
{
layerId = "2C98FBFB-9C5A-4FF8-8654-E7A0DF5B1F27";
shapes = (
{
closed = 1;
nodes = (
(204,915,l),
(204,0,l),
(364,0,l),
(364,915,l)
);
},
{
closed = 1;
nodes = (
(180,1208,o),
(222,1166,o),
(286,1166,cs),
(349,1166,o),
(389,1208,o),
(389,1261,cs),
(389,1317,o),
(349,1360,o),
(286,1360,cs),
(222,1360,o),
(180,1317,o),
(180,1261,cs)
);
}
);
width = 569;
}
);
unicode = 105;
},
{
glyphname = j;
layers = (
{
layerId = "01BBB9D0-923D-4A6C-8EB0-69AD5A5509C5";
shapes = (
{
closed = 1;
nodes = (
(222,910,l),
(222,22,ls),
(222,-140,o),
(204,-223,o),
(110,-244,cs),
(94,-247,o),
(78,-248,o),
(56,-249,c),
(56,-362,l),
(77,-364,o),
(92,-362,o),
(105,-362,cs),
(280,-362,o),
(361,-268,o),
(361,-40,cs),
(361,910,l)
);
},
{
closed = 1;
nodes = (
(196,1211,o),
(236,1173,o),
(290,1173,cs),
(344,1173,o),
(382,1211,o),
(382,1259,cs),
(382,1308,o),
(344,1346,o),
(290,1346,cs),
(236,1346,o),
(196,1308,o),
(196,1259,cs)
);
}
);
width = 540;
},
{
layerId = "2CC194DC-208A-46E6-9B56-B5536ADC1FAA";
shapes = (
{
closed = 1;
nodes = (
(243,950,l),
(243,43,ls),
(243,-55,o),
(236,-136,o),
(67,-125,c),
(59,-123,o),
(34,-121,o),
(29,-119,c),
(29,-377,l),
(71,-393,o),
(141,-402,o),
(194,-402,cs),
(472,-402,o),
(551,-200,o),
(551,12,cs),
(551,950,l)
);
},
{
closed = 1;
nodes = (
(210,1165,o),
(293,1106,o),
(392,1106,cs),
(510,1106,o),
(589,1163,o),
(589,1284,cs),
(589,1389,o),
(509,1458,o),
(392,1458,cs),
(293,1458,o),
(210,1389,o),
(210,1284,cs)
);
}
);
width = 757;
},
{
layerId = "7CF7CDD4-0A84-4151-8A85-E5A01EE42E23";
shapes = (
{
closed = 1;
nodes = (
(236,936,l),
(236,36,ls),
(236,-84,o),
(225,-166,o),
(82,-166,cs),
(71,-166,o),
(49,-165,o),
(38,-164,c),
(38,-372,l),
(73,-383,o),
(124,-388,o),
(163,-388,cs),
(405,-388,o),
(485,-223,o),
(485,-6,cs),
(485,936,l)
);
},
{
closed = 1;
nodes = (
(205,1182,o),
(272,1130,o),
(357,1130,cs),
(453,1130,o),
(516,1181,o),
(516,1275,cs),
(516,1360,o),
(452,1419,o),
(357,1419,cs),
(272,1419,o),
(205,1360,o),
(205,1275,cs)
);
}
);
width = 682;
},
{
layerId = "2C98FBFB-9C5A-4FF8-8654-E7A0DF5B1F27";
shapes = (
{
closed = 1;
nodes = (
(225,915,l),
(225,25,ls),
(225,-128,o),
(208,-211,o),
(104,-228,cs),
(89,-230,o),
(72,-231,o),
(52,-231,c),
(52,-364,l),
(76,-368,o),
(98,-367,o),
(117,-367,cs),
(305,-367,o),
(386,-258,o),
(386,-33,cs),
(386,915,l)
);
},
{
closed = 1;
nodes = (
(201,1208,o),
(243,1166,o),
(307,1166,cs),
(370,1166,o),
(410,1208,o),
(410,1261,cs),
(410,1317,o),
(370,1360,o),
(307,1360,cs),
(243,1360,o),
(201,1317,o),
(201,1261,cs)
);
}
);
width = 569;
}
);
unicode = 106;
},
{
glyphname = k;
layers = (
{
layerId = "01BBB9D0-923D-4A6C-8EB0-69AD5A5509C5";
shapes = (
{
closed = 1;
nodes = (
(393,417,l),
(769,0,l),
(947,0,l),
(573,411,l),
(483,491,l),
(554,556,l),
(900,910,l),
(734,910,l),
(383,518,l),
(292,491,l),
(292,1377,l),
(154,1377,l),
(154,0,l),
(292,0,l),
(292,417,l)
);
}
);
width = 994;
},
{
layerId = "2CC194DC-208A-46E6-9B56-B5536ADC1FAA";
shapes = (
{
closed = 1;
nodes = (
(546,373,l),
(850,0,l),
(1216,0,l),
(856,428,l),
(785,505,l),
(860,596,l),
(1168,950,l),
(832,950,l),
(542,590,l),
(459,552,l),
(459,1377,l),
(148,1377,l),
(148,0,l),
(459,0,l),
(459,373,l)
);
}
);
width = 1216;
},
{
layerId = "7CF7CDD4-0A84-4151-8A85-E5A01EE42E23";
shapes = (
{
closed = 1;
nodes = (
(493,388,l),
(822,0,l),
(1123,0,l),
(758,422,l),
(680,500,l),
(754,582,l),
(1075,936,l),
(798,936,l),
(487,565,l),
(401,531,l),
(401,1377,l),
(150,1377,l),
(150,0,l),
(401,0,l),
(401,388,l)
);
}
);
width = 1139;
},
{
layerId = "2C98FBFB-9C5A-4FF8-8654-E7A0DF5B1F27";
shapes = (
{
closed = 1;
nodes = (
(413,411,l),
(780,0,l),
(983,0,l),
(611,413,l),
(523,493,l),
(595,561,l),
(936,915,l),
(747,915,l),
(404,528,l),
(314,499,l),
(314,1377,l),
(153,1377,l),
(153,0,l),
(314,0,l),
(314,411,l)
);
}
);
width = 1024;
}
);
unicode = 107;
},
{
glyphname = l;
layers = (
{
layerId = "01BBB9D0-923D-4A6C-8EB0-69AD5A5509C5";
shapes = (
{
closed = 1;
nodes = (
(327,1377,l),
(190,1377,l),
(190,175,ls),
(190,27,o),
(270,-23,o),
(388,-23,cs),
(439,-23,o),
(517,-5,o),
(560,8,c),
(537,108,l),
(487,92,o),
(469,92,o),
(431,92,cs),
(372,92,o),
(327,124,o),
(327,220,cs)
);
}
);
width = 569;
},
{
layerId = "2CC194DC-208A-46E6-9B56-B5536ADC1FAA";
shapes = (
{
closed = 1;
nodes = (
(375,1377,l),
(68,1377,l),
(68,236,ls),
(68,82,o),
(151,-32,o),
(316,-32,cs),
(418,-32,o),
(479,-16,o),
(566,22,c),
(556,277,l),
(521,261,o),
(478,245,o),
(450,245,cs),
(375,245,o),
(375,295,o),
(375,385,cs)
);
}
);
width = 569;
},
{
layerId = "7CF7CDD4-0A84-4151-8A85-E5A01EE42E23";
shapes = (
{
closed = 1;
nodes = (
(358,1377,l),
(110,1377,l),
(110,215,ls),
(110,63,o),
(192,-29,o),
(341,-29,cs),
(425,-29,o),
(492,-12,o),
(564,17,c),
(549,218,l),
(509,202,o),
(475,192,o),
(443,192,cs),
(374,192,o),
(358,236,o),
(358,328,cs)
);
}
);
width = 569;
},
{
layerId = "2C98FBFB-9C5A-4FF8-8654-E7A0DF5B1F27";
shapes = (
{
closed = 1;
nodes = (
(333,1377,l),
(173,1377,l),
(173,183,ls),
(173,34,o),
(254,-24,o),
(378,-24,cs),
(436,-24,o),
(512,-6,o),
(561,10,c),
(539,130,l),
(491,114,o),
(470,112,o),
(433,112,cs),
(372,112,o),
(333,147,o),
(333,242,cs)
);
}
);
width = 569;
}
);
unicode = 108;
},
{
glyphname = m;
layers = (
{
layerId = "01BBB9D0-923D-4A6C-8EB0-69AD5A5509C5";
shapes = (
{
closed = 1;
nodes = (
(719,0,l),
(856,0,l),
(856,587,l),
(874,666,o),
(895,724,o),
(929,760,cs),
(964,797,o),
(1009,813,o),
(1080,813,cs),
(1166,813,o),
(1218,791,o),
(1248,746,cs),
(1278,700,o),
(1286,629,o),
(1286,533,cs),
(1286,0,l),
(1423,0,l),
(1423,523,ls),
(1423,685,o),
(1403,788,o),
(1355,851,cs),
(1307,914,o),
(1229,936,o),
(1115,936,cs),
(982,936,o),
(898,869,o),
(826,764,c),
(785,887,o),
(705,936,o),
(576,936,cs),
(519,936,o),
(471,924,o),
(426,902,cs),
(380,878,o),
(336,841,o),
(287,790,c),
(271,790,l),
(238,910,l),
(149,910,l),
(149,0,l),
(287,0,l),
(287,618,l),
(306,679,o),
(331,728,o),
(368,761,cs),
(405,794,o),
(452,813,o),
(516,813,cs),
(598,813,o),
(649,791,o),
(680,742,cs),
(710,693,o),
(719,616,o),
(719,506,cs)
);
}
);
width = 1564;
},
{
layerId = "2CC194DC-208A-46E6-9B56-B5536ADC1FAA";
shapes = (
{
closed = 1;
nodes = (
(748,0,l),
(1058,0,l),
(1058,602,l),
(1066,608,o),
(1091,633,o),
(1123,658,c),
(1156,681,o),
(1197,705,o),
(1238,705,cs),
(1279,705,o),
(1308,683,o),
(1327,645,cs),
(1347,607,o),
(1355,550,o),
(1355,483,cs),
(1355,0,l),
(1663,0,l),
(1663,549,ls),
(1663,714,o),
(1630,822,o),
(1572,888,cs),
(1515,952,o),
(1437,976,o),
(1349,976,cs),
(1222,976,o),
(1100,911,o),
(1032,789,c),
(979,925,o),
(881,976,o),
(755,976,cs),
(671,976,o),
(606,953,o),
(556,921,cs),
(507,889,o),
(474,849,o),
(452,815,c),
(424,815,l),
(399,950,l),
(151,950,l),
(151,0,l),
(458,0,l),
(458,604,l),
(465,609,o),
(489,633,o),
(520,659,c),
(551,682,o),
(593,705,o),
(637,705,cs),
(693,705,o),
(721,661,o),
(735,611,c),
(748,560,o),
(748,504,o),
(748,479,cs)
);
}
);
width = 1781;
},
{
layerId = "7CF7CDD4-0A84-4151-8A85-E5A01EE42E23";
shapes = (
{
closed = 1;
nodes = (
(738,0,l),
(988,0,l),
(988,597,l),
(999,628,o),
(1023,664,o),
(1056,693,cs),
(1089,721,o),
(1132,742,o),
(1183,742,cs),
(1240,742,o),
(1277,720,o),
(1300,680,cs),
(1323,639,o),
(1331,577,o),
(1331,500,cs),
(1331,0,l),
(1580,0,l),
(1580,540,ls),
(1580,704,o),
(1551,810,o),
(1497,875,cs),
(1443,939,o),
(1365,962,o),
(1268,962,cs),
(1139,962,o),
(1030,896,o),
(961,780,c),
(912,912,o),
(820,962,o),
(693,962,cs),
(618,962,o),
(559,943,o),
(511,914,cs),
(463,885,o),
(426,846,o),
(395,806,c),
(371,806,l),
(343,936,l),
(150,936,l),
(150,0,l),
(399,0,l),
(399,609,l),
(410,633,o),
(434,666,o),
(467,694,cs),
(500,721,o),
(544,742,o),
(595,742,cs),
(660,742,o),
(696,706,o),
(716,656,cs),
(735,606,o),
(738,543,o),
(738,488,cs)
);
}
);
width = 1706;
},
{
layerId = "2C98FBFB-9C5A-4FF8-8654-E7A0DF5B1F27";
shapes = (
{
closed = 1;
nodes = (
(723,0,l),
(883,0,l),
(883,589,l),
(899,658,o),
(921,711,o),
(955,746,cs),
(989,781,o),
(1034,798,o),
(1101,798,cs),
(1181,798,o),
(1230,776,o),
(1259,732,cs),
(1287,687,o),
(1295,618,o),
(1295,526,cs),
(1295,0,l),
(1455,0,l),
(1455,526,ls),
(1455,689,o),
(1433,792,o),
(1384,856,cs),
(1335,919,o),
(1257,941,o),
(1146,941,cs),
(1014,941,o),
(925,874,o),
(854,767,c),
(811,892,o),
(728,941,o),
(600,941,cs),
(539,941,o),
(489,928,o),
(443,904,cs),
(397,879,o),
(354,842,o),
(309,793,c),
(291,793,l),
(259,915,l),
(149,915,l),
(149,0,l),
(310,0,l),
(310,616,l),
(327,669,o),
(352,715,o),
(388,747,cs),
(424,779,o),
(471,798,o),
(532,798,cs),
(611,798,o),
(659,773,o),
(687,724,cs),
(715,675,o),
(723,601,o),
(723,502,cs)
);
}
);
width = 1593;
}
);
unicode = 109;
},
{
glyphname = n;
layers = (
{
layerId = "01BBB9D0-923D-4A6C-8EB0-69AD5A5509C5";
shapes = (
{
closed = 1;
nodes = (
(732,0,l),
(870,0,l),
(870,533,ls),
(870,849,o),
(768,936,o),
(549,936,cs),
(389,936,o),
(344,875,o),
(274,791,c),
(260,791,l),
(227,910,l),
(138,910,l),
(138,0,l),
(276,0,l),
(276,608,l),
(313,733,o),
(358,813,o),
(509,813,cs),
(709,813,o),
(732,678,o),
(732,504,cs)
);
}
);
width = 994;
},
{
layerId = "2CC194DC-208A-46E6-9B56-B5536ADC1FAA";
shapes = (
{
closed = 1;
nodes = (
(780,0,l),
(1089,0,l),
(1089,582,ls),
(1089,887,o),
(927,976,o),
(763,976,cs),
(657,976,o),
(515,890,o),
(466,808,c),
(433,808,l),
(409,950,l),
(157,950,l),
(157,0,l),
(464,0,l),
(464,575,l),
(486,611,o),
(574,705,o),
(653,705,cs),
(705,705,o),
(780,672,o),
(780,518,cs)
);
}
);
width = 1216;
},
{
layerId = "7CF7CDD4-0A84-4151-8A85-E5A01EE42E23";
shapes = (
{
closed = 1;
nodes = (
(763,0,l),
(1013,0,l),
(1013,565,ls),
(1013,874,o),
(872,962,o),
(689,962,cs),
(564,962,o),
(456,885,o),
(399,802,c),
(373,802,l),
(346,936,l),
(150,936,l),
(150,0,l),
(399,0,l),
(399,586,l),
(426,653,o),
(499,742,o),
(603,742,cs),
(706,742,o),
(763,674,o),
(763,513,cs)
);
}
);
width = 1139;
},
{
layerId = "2C98FBFB-9C5A-4FF8-8654-E7A0DF5B1F27";
shapes = (
{
closed = 1;
nodes = (
(738,0,l),
(899,0,l),
(899,539,ls),
(899,854,o),
(789,941,o),
(578,941,cs),
(425,941,o),
(367,877,o),
(299,793,c),
(283,793,l),
(251,915,l),
(140,915,l),
(140,0,l),
(301,0,l),
(301,603,l),
(336,716,o),
(387,798,o),
(528,798,cs),
(708,798,o),
(738,677,o),
(738,506,cs)
);
}
);
width = 1024;
}
);
unicode = 110;
},
{
glyphname = o;
layers = (
{
layerId = "01BBB9D0-923D-4A6C-8EB0-69AD5A5509C5";
shapes = (
{
closed = 1;
nodes = (
(75,184,o),
(201,-23,o),
(512,-23,cs),
(788,-23,o),
(949,152,o),
(949,455,cs),
(949,729,o),
(812,936,o),
(512,936,cs),
(233,936,o),
(75,762,o),
(75,455,cs)
);
},
{
closed = 1;
nodes = (
(224,703,o),
(317,819,o),
(515,819,cs),
(725,819,o),
(801,639,o),
(801,455,cs),
(801,205,o),
(709,94,o),
(515,94,cs),
(290,94,o),
(224,289,o),
(224,455,cs)
);
}
);
width = 1024;
},
{
layerId = "2CC194DC-208A-46E6-9B56-B5536ADC1FAA";
shapes = (
{
closed = 1;
nodes = (
(52,172,o),
(230,-31,o),
(514,-31,cs),
(826,-31,o),
(972,201,o),
(972,474,cs),
(972,761,o),
(814,976,o),
(514,976,cs),
(214,976,o),
(52,757,o),
(52,474,cs)
);
},
{
closed = 1;
nodes = (
(366,651,o),
(436,718,o),
(512,718,cs),
(615,718,o),
(660,629,o),
(660,474,cs),
(660,353,o),
(624,227,o),
(512,227,cs),
(449,227,o),
(366,254,o),
(366,474,cs)
);
}
);
width = 1024;
},
{
guides = (
{
position = "{0, 935}";
}
);
layerId = "7CF7CDD4-0A84-4151-8A85-E5A01EE42E23";
shapes = (
{
closed = 1;
nodes = (
(60,176,o),
(220,-28,o),
(513,-28,cs),
(813,-28,o),
(964,184,o),
(964,467,cs),
(964,750,o),
(813,962,o),
(513,962,cs),
(220,962,o),
(60,758,o),
(60,467,cs)
);
},
{
closed = 1;
nodes = (
(317,668,o),
(394,753,o),
(513,753,cs),
(653,753,o),
(709,632,o),
(709,467,cs),
(709,302,o),
(653,181,o),
(513,181,cs),
(394,181,o),
(317,266,o),
(317,467,cs)
);
}
);
width = 1024;
},
{
layerId = "2C98FBFB-9C5A-4FF8-8654-E7A0DF5B1F27";
shapes = (
{
closed = 1;
nodes = (
(72,182,o),
(205,-24,o),
(512,-24,cs),
(793,-24,o),
(952,158,o),
(952,457,cs),
(952,733,o),
(812,941,o),
(512,941,cs),
(229,941,o),
(72,760,o),
(72,457,cs)
);
},
{
closed = 1;
nodes = (
(243,693,o),
(331,805,o),
(514,805,cs),
(710,805,o),
(782,637,o),
(782,457,cs),
(782,225,o),
(697,112,o),
(514,112,cs),
(311,112,o),
(243,284,o),
(243,457,cs)
);
}
);
width = 1024;
}
);
unicode = 111;
},
{
glyphname = p;
layers = (
{
layerId = "01BBB9D0-923D-4A6C-8EB0-69AD5A5509C5";
shapes = (
{
closed = 1;
nodes = (
(138,910,l),
(138,-367,l),
(276,-367,l),
(276,22,l),
(347,-12,o),
(398,-23,o),
(495,-23,cs),
(777,-23,o),
(925,167,o),
(925,474,cs),
(925,812,o),
(788,936,o),
(561,936,cs),
(434,936,o),
(335,884,o),
(273,793,c),
(260,793,l),
(228,910,l)
);
},
{
closed = 1;
nodes = (
(675,819,o),
(777,731,o),
(777,480,cs),
(777,228,o),
(689,95,o),
(492,95,cs),
(390,95,o),
(332,117,o),
(276,155,c),
(276,591,l),
(311,745,o),
(388,819,o),
(534,819,cs)
);
}
);
width = 994;
},
{
layerId = "2CC194DC-208A-46E6-9B56-B5536ADC1FAA";
shapes = (
{
closed = 1;
nodes = (
(157,950,l),
(157,-367,l),
(464,-367,l),
(464,10,l),
(518,-14,o),
(588,-32,o),
(659,-32,cs),
(967,-32,o),
(1115,182,o),
(1115,497,cs),
(1115,791,o),
(1021,976,o),
(757,976,cs),
(621,976,o),
(516,932,o),
(437,835,c),
(412,835,l),
(381,950,l)
);
},
{
closed = 1;
nodes = (
(798,718,o),
(800,586,o),
(800,476,cs),
(800,272,o),
(754,225,o),
(613,225,cs),
(551,225,o),
(497,246,o),
(464,274,c),
(464,600,l),
(499,684,o),
(557,718,o),
(652,718,cs)
);
}
);
width = 1216;
},
{
layerId = "7CF7CDD4-0A84-4151-8A85-E5A01EE42E23";
shapes = (
{
closed = 1;
nodes = (
(150,936,l),
(150,-367,l),
(399,-367,l),
(399,14,l),
(459,-13,o),
(522,-29,o),
(602,-29,cs),
(901,-29,o),
(1049,177,o),
(1049,489,cs),
(1049,798,o),
(940,962,o),
(689,962,cs),
(556,962,o),
(453,915,o),
(380,820,c),
(359,820,l),
(328,936,l)
);
},
{
closed = 1;
nodes = (
(755,753,o),
(792,636,o),
(792,477,cs),
(792,257,o),
(731,180,o),
(571,180,cs),
(495,180,o),
(440,201,o),
(399,233,c),
(399,597,l),
(434,705,o),
(498,753,o),
(611,753,cs)
);
}
);
width = 1139;
},
{
layerId = "2C98FBFB-9C5A-4FF8-8654-E7A0DF5B1F27";
shapes = (
{
closed = 1;
nodes = (
(140,915,l),
(140,-367,l),
(301,-367,l),
(301,20,l),
(370,-12,o),
(423,-24,o),
(517,-24,cs),
(802,-24,o),
(950,169,o),
(950,477,cs),
(950,809,o),
(819,941,o),
(587,941,cs),
(459,941,o),
(359,890,o),
(295,798,c),
(280,798,l),
(248,915,l)
);
},
{
closed = 1;
nodes = (
(691,805,o),
(780,711,o),
(780,479,cs),
(780,234,o),
(697,112,o),
(508,112,cs),
(411,112,o),
(354,134,o),
(301,171,c),
(301,592,l),
(336,737,o),
(410,805,o),
(550,805,cs)
);
}
);
width = 1024;
}
);
unicode = 112;
},
{
glyphname = q;
layers = (
{
layerId = "01BBB9D0-923D-4A6C-8EB0-69AD5A5509C5";
shapes = (
{
closed = 1;
nodes = (
(857,-367,l),
(857,872,l),
(799,897,o),
(667,928,o),
(528,928,cs),
(250,928,o),
(78,765,o),
(78,450,cs),
(78,132,o),
(204,-23,o),
(436,-23,cs),
(569,-23,o),
(645,21,o),
(702,103,c),
(719,103,l),
(720,-367,l)
);
},
{
closed = 1;
nodes = (
(719,319,l),
(684,165,o),
(608,94,o),
(461,94,cs),
(313,94,o),
(227,241,o),
(227,452,cs),
(227,698,o),
(351,810,o),
(502,810,cs),
(592,810,o),
(662,797,o),
(719,773,c)
);
}
);
width = 994;
},
{
layerId = "2CC194DC-208A-46E6-9B56-B5536ADC1FAA";
shapes = (
{
closed = 1;
nodes = (
(1059,-367,l),
(1059,920,l),
(968,951,o),
(796,977,o),
(646,977,cs),
(275,977,o),
(97,791,o),
(97,446,cs),
(97,147,o),
(219,-29,o),
(478,-29,cs),
(603,-29,o),
(683,13,o),
(727,80,c),
(750,80,l),
(749,-367,l)
);
},
{
closed = 1;
nodes = (
(750,325,l),
(732,288,o),
(668,229,o),
(574,229,cs),
(457,229,o),
(411,301,o),
(411,460,cs),
(411,605,o),
(438,721,o),
(598,721,cs),
(655,721,o),
(714,718,o),
(750,701,c)
);
}
);
width = 1216;
},
{
layerId = "7CF7CDD4-0A84-4151-8A85-E5A01EE42E23";
shapes = (
{
closed = 1;
nodes = (
(989,-367,l),
(989,903,l),
(909,932,o),
(751,960,o),
(605,960,cs),
(266,960,o),
(90,782,o),
(90,447,cs),
(90,142,o),
(214,-27,o),
(463,-27,cs),
(591,-27,o),
(670,16,o),
(718,88,c),
(739,88,l),
(739,-367,l)
);
},
{
closed = 1;
nodes = (
(739,323,l),
(715,245,o),
(647,182,o),
(535,182,cs),
(407,182,o),
(347,280,o),
(347,457,cs),
(347,637,o),
(408,752,o),
(565,752,cs),
(633,752,o),
(696,745,o),
(739,726,c)
);
}
);
width = 1139;
},
{
layerId = "2C98FBFB-9C5A-4FF8-8654-E7A0DF5B1F27";
shapes = (
{
closed = 1;
nodes = (
(884,-367,l),
(884,878,l),
(821,904,o),
(684,934,o),
(544,934,cs),
(253,934,o),
(80,768,o),
(80,449,cs),
(80,134,o),
(206,-24,o),
(441,-24,cs),
(573,-24,o),
(650,20,o),
(705,100,c),
(723,100,l),
(724,-367,l)
);
},
{
closed = 1;
nodes = (
(723,320,l),
(690,181,o),
(616,112,o),
(476,112,cs),
(332,112,o),
(251,249,o),
(251,453,cs),
(251,685,o),
(363,798,o),
(515,798,cs),
(600,798,o),
(669,786,o),
(723,763,c)
);
}
);
width = 1024;
}
);
unicode = 113;
},
{
glyphname = r;
layers = (
{
layerId = "01BBB9D0-923D-4A6C-8EB0-69AD5A5509C5";
shapes = (
{
closed = 1;
nodes = (
(242,910,l),
(149,910,l),
(149,0,l),
(289,0,l),
(289,629,l),
(292,723,o),
(354,803,o),
(487,803,cs),
(519,803,o),
(552,793,o),
(587,786,c),
(606,920,l),
(565,930,o),
(524,931,o),
(496,931,cs),
(390,931,o),
(328,873,o),
(287,791,c),
(273,791,l)
);
}
);
width = 624;
},
{
layerId = "2CC194DC-208A-46E6-9B56-B5536ADC1FAA";
shapes = (
{
closed = 1;
nodes = (
(409,948,l),
(172,948,l),
(172,0,l),
(479,0,l),
(479,563,l),
(577,671,o),
(669,687,o),
(733,687,cs),
(771,687,o),
(854,656,o),
(904,611,c),
(1016,892,l),
(950,947,o),
(874,969,o),
(808,969,cs),
(699,969,o),
(596,955,o),
(474,803,c),
(446,803,l)
);
}
);
width = 1060;
},
{
layerId = "7CF7CDD4-0A84-4151-8A85-E5A01EE42E23";
shapes = (
{
closed = 1;
nodes = (
(351,935,l),
(164,935,l),
(164,0,l),
(413,0,l),
(413,586,l),
(478,689,o),
(560,727,o),
(648,727,cs),
(684,727,o),
(749,704,o),
(794,672,c),
(874,902,l),
(817,941,o),
(753,956,o),
(700,956,cs),
(592,956,o),
(503,927,o),
(409,799,c),
(386,799,l)
);
}
);
width = 909;
},
{
layerId = "2C98FBFB-9C5A-4FF8-8654-E7A0DF5B1F27";
shapes = (
{
closed = 1;
nodes = (
(264,916,l),
(152,916,l),
(152,0,l),
(314,0,l),
(314,621,l),
(330,717,o),
(396,788,o),
(520,788,cs),
(553,788,o),
(592,776,o),
(629,764,c),
(661,917,l),
(617,933,o),
(571,937,o),
(538,937,cs),
(431,937,o),
(364,885,o),
(312,794,c),
(296,794,l)
);
}
);
width = 682;
}
);
unicode = 114;
},
{
glyphname = s;
layers = (
{
layerId = "01BBB9D0-923D-4A6C-8EB0-69AD5A5509C5";
shapes = (
{
closed = 1;
nodes = (
(80,50,l),
(155,14,o),
(253,-23,o),
(402,-23,cs),
(552,-23,o),
(720,41,o),
(720,262,cs),
(720,412,o),
(612,467,o),
(500,509,cs),
(374,557,o),
(251,583,o),
(251,676,cs),
(251,784,o),
(298,816,o),
(423,816,cs),
(533,816,o),
(601,776,o),
(663,746,c),
(696,869,l),
(632,898,o),
(554,936,o),
(397,936,cs),
(207,936,o),
(113,852,o),
(113,673,cs),
(113,538,o),
(200,482,o),
(305,440,cs),
(440,386,o),
(583,366,o),
(583,258,cs),
(583,126,o),
(500,97,o),
(391,97,cs),
(296,97,o),
(212,132,o),
(118,174,c)
);
}
);
width = 797;
},
{
layerId = "2CC194DC-208A-46E6-9B56-B5536ADC1FAA";
shapes = (
{
closed = 1;
nodes = (
(34,52,l),
(105,10,o),
(232,-29,o),
(369,-29,cs),
(685,-29,o),
(762,137,o),
(762,296,cs),
(762,469,o),
(652,546,o),
(537,581,c),
(474,597,o),
(366,597,o),
(366,685,cs),
(366,714,o),
(400,740,o),
(437,740,cs),
(507,740,o),
(583,720,o),
(660,692,c),
(722,917,l),
(599,967,o),
(527,976,o),
(445,976,cs),
(218,976,o),
(55,866,o),
(55,673,cs),
(55,466,o),
(211,380,o),
(311,353,c),
(367,340,o),
(453,325,o),
(453,248,cs),
(453,245,o),
(454,207,o),
(383,207,cs),
(275,207,o),
(206,230,o),
(126,293,c)
);
}
);
width = 797;
},
{
layerId = "7CF7CDD4-0A84-4151-8A85-E5A01EE42E23";
shapes = (
{
closed = 1;
nodes = (
(50,51,l),
(122,11,o),
(239,-27,o),
(380,-27,cs),
(639,-27,o),
(747,104,o),
(747,284,cs),
(747,449,o),
(638,519,o),
(524,556,cs),
(439,583,o),
(326,592,o),
(326,682,cs),
(326,738,o),
(365,766,o),
(432,766,cs),
(516,766,o),
(589,739,o),
(661,711,c),
(713,900,l),
(610,943,o),
(536,962,o),
(428,962,cs),
(214,962,o),
(75,861,o),
(75,673,cs),
(75,491,o),
(207,415,o),
(309,383,cs),
(392,356,o),
(498,339,o),
(498,251,cs),
(498,204,o),
(470,169,o),
(386,169,cs),
(282,169,o),
(208,196,o),
(123,252,c)
);
}
);
width = 797;
},
{
layerId = "2C98FBFB-9C5A-4FF8-8654-E7A0DF5B1F27";
shapes = (
{
closed = 1;
nodes = (
(74,50,l),
(148,13,o),
(250,-24,o),
(397,-24,cs),
(570,-24,o),
(725,54,o),
(725,266,cs),
(725,419,o),
(617,478,o),
(505,519,cs),
(387,562,o),
(266,585,o),
(266,677,cs),
(266,774,o),
(312,805,o),
(425,805,cs),
(529,805,o),
(598,768,o),
(662,739,c),
(699,875,l),
(627,907,o),
(550,941,o),
(403,941,cs),
(208,941,o),
(105,854,o),
(105,673,cs),
(105,528,o),
(201,468,o),
(306,428,cs),
(430,380,o),
(565,360,o),
(565,256,cs),
(565,142,o),
(494,112,o),
(390,112,cs),
(293,112,o),
(211,145,o),
(119,190,c)
);
}
);
width = 797;
}
);
unicode = 115;
},
{
glyphname = t;
layers = (
{
layerId = "01BBB9D0-923D-4A6C-8EB0-69AD5A5509C5";
shapes = (
{
closed = 1;
nodes = (
(22,910,l),
(22,791,l),
(155,791,l),
(155,258,ls),
(155,58,o),
(204,-23,o),
(364,-23,cs),
(462,-23,o),
(509,-3,o),
(542,18,c),
(506,112,l),
(476,92,o),
(441,92,o),
(420,92,cs),
(329,92,o),
(293,145,o),
(293,291,cs),
(293,791,l),
(517,791,l),
(517,910,l),
(293,910,l),
(293,1213,l),
(155,1116,l),
(155,910,l)
);
}
);
width = 540;
},
{
layerId = "2CC194DC-208A-46E6-9B56-B5536ADC1FAA";
shapes = (
{
closed = 1;
nodes = (
(19,950,l),
(19,695,l),
(164,695,l),
(164,261,ls),
(164,60,o),
(302,-32,o),
(491,-32,cs),
(580,-32,o),
(717,18,o),
(741,39,c),
(693,287,l),
(680,273,o),
(625,245,o),
(568,245,cs),
(482,245,o),
(474,297,o),
(474,447,cs),
(474,695,l),
(709,695,l),
(709,950,l),
(474,950,l),
(474,1213,l),
(164,1165,l),
(164,950,l)
);
}
);
width = 757;
},
{
layerId = "7CF7CDD4-0A84-4151-8A85-E5A01EE42E23";
shapes = (
{
closed = 1;
nodes = (
(20,936,l),
(20,728,l),
(161,728,l),
(161,260,ls),
(161,59,o),
(268,-29,o),
(447,-29,cs),
(539,-29,o),
(645,11,o),
(672,32,c),
(628,226,l),
(609,210,o),
(561,192,o),
(517,192,cs),
(429,192,o),
(411,244,o),
(411,393,cs),
(411,728,l),
(642,728,l),
(642,936,l),
(411,936,l),
(411,1213,l),
(161,1148,l),
(161,936,l)
);
}
);
width = 682;
},
{
layerId = "2C98FBFB-9C5A-4FF8-8654-E7A0DF5B1F27";
shapes = (
{
closed = 1;
nodes = (
(21,915,l),
(21,778,l),
(156,778,l),
(156,258,ls),
(156,58,o),
(217,-24,o),
(381,-24,cs),
(478,-24,o),
(537,0,o),
(568,21,c),
(531,135,l),
(503,116,o),
(465,112,o),
(440,112,cs),
(349,112,o),
(317,165,o),
(317,312,cs),
(317,778,l),
(542,778,l),
(542,915,l),
(317,915,l),
(317,1213,l),
(156,1122,l),
(156,915,l)
);
}
);
width = 569;
}
);
unicode = 116;
},
{
glyphname = u;
layers = (
{
layerId = "01BBB9D0-923D-4A6C-8EB0-69AD5A5509C5";
shapes = (
{
closed = 1;
nodes = (
(263,910,l),
(125,910,l),
(125,378,ls),
(125,67,o),
(222,-23,o),
(400,-23,cs),
(567,-23,o),
(666,89,o),
(704,153,c),
(722,153,l),
(761,0,l),
(849,0,l),
(836,75,o),
(831,168,o),
(831,253,cs),
(831,910,l),
(694,910,l),
(694,313,l),
(643,184,o),
(533,91,o),
(428,91,cs),
(278,91,o),
(263,193,o),
(263,410,cs)
);
}
);
width = 994;
},
{
layerId = "2CC194DC-208A-46E6-9B56-B5536ADC1FAA";
shapes = (
{
closed = 1;
nodes = (
(451,948,l),
(142,948,l),
(142,356,ls),
(142,72,o),
(271,-29,o),
(475,-29,cs),
(590,-29,o),
(704,5,o),
(794,143,c),
(812,143,l),
(867,0,l),
(1101,0,l),
(1078,84,o),
(1065,194,o),
(1065,302,cs),
(1065,948,l),
(755,948,l),
(755,353,l),
(750,341,o),
(698,249,o),
(592,249,cs),
(474,249,o),
(451,380,o),
(451,421,cs)
);
}
);
width = 1216;
},
{
layerId = "7CF7CDD4-0A84-4151-8A85-E5A01EE42E23";
shapes = (
{
closed = 1;
nodes = (
(386,935,l),
(136,935,l),
(136,363,ls),
(136,70,o),
(254,-27,o),
(449,-27,cs),
(582,-27,o),
(691,34,o),
(763,146,c),
(781,146,l),
(830,0,l),
(1014,0,l),
(994,81,o),
(984,185,o),
(984,285,cs),
(984,935,l),
(734,935,l),
(734,339,l),
(713,286,o),
(641,194,o),
(535,194,cs),
(406,194,o),
(386,315,o),
(386,417,cs)
);
}
);
width = 1139;
},
{
layerId = "2C98FBFB-9C5A-4FF8-8654-E7A0DF5B1F27";
shapes = (
{
closed = 1;
nodes = (
(288,916,l),
(127,916,l),
(127,375,ls),
(127,68,o),
(228,-24,o),
(410,-24,cs),
(570,-24,o),
(671,77,o),
(716,151,c),
(734,151,l),
(775,0,l),
(883,0,l),
(868,76,o),
(862,172,o),
(862,260,cs),
(862,916,l),
(702,916,l),
(702,319,l),
(657,205,o),
(555,112,o),
(450,112,cs),
(304,112,o),
(288,218,o),
(288,412,cs)
);
}
);
width = 1024;
}
);
unicode = 117;
},
{
glyphname = v;
layers = (
{
layerId = "01BBB9D0-923D-4A6C-8EB0-69AD5A5509C5";
shapes = (
{
closed = 1;
nodes = (
(461,369,l),
(216,910,l),
(54,910,l),
(490,-23,l),
(541,-23,l),
(971,910,l),
(820,910,l),
(589,372,l),
(528,186,l)
);
}
);
width = 1024;
},
{
layerId = "2CC194DC-208A-46E6-9B56-B5536ADC1FAA";
shapes = (
{
closed = 1;
nodes = (
(506,526,l),
(354,948,l),
(-6,948,l),
(429,0,l),
(620,0,l),
(1031,948,l),
(701,948,l),
(563,529,l),
(529,446,l)
);
}
);
width = 1024;
},
{
layerId = "7CF7CDD4-0A84-4151-8A85-E5A01EE42E23";
shapes = (
{
closed = 1;
nodes = (
(491,470,l),
(306,935,l),
(15,935,l),
(450,-8,l),
(593,-8,l),
(1010,935,l),
(742,935,l),
(572,473,l),
(529,356,l)
);
}
);
width = 1024;
},
{
layerId = "2C98FBFB-9C5A-4FF8-8654-E7A0DF5B1F27";
shapes = (
{
closed = 1;
nodes = (
(468,390,l),
(234,916,l),
(46,916,l),
(482,-20,l),
(552,-20,l),
(979,916,l),
(804,916,l),
(586,393,l),
(529,221,l)
);
}
);
width = 1024;
}
);
unicode = 118;
},
{
glyphname = w;
layers = (
{
layerId = "01BBB9D0-923D-4A6C-8EB0-69AD5A5509C5";
shapes = (
{
closed = 1;
nodes = (
(795,910,l),
(692,910,l),
(478,370,l),
(429,196,l),
(410,196,l),
(376,368,l),
(187,910,l),
(44,910,l),
(392,-24,l),
(439,-24,l),
(692,605,l),
(748,768,l),
(797,604,l),
(1057,-24,l),
(1113,-24,l),
(1444,910,l),
(1303,910,l),
(1132,375,l),
(1089,201,l),
(1076,201,l),
(1025,367,l),
(950,537,l)
);
}
);
width = 1479;
},
{
layerId = "2CC194DC-208A-46E6-9B56-B5536ADC1FAA";
shapes = (
{
closed = 1;
nodes = (
(874,948,l),
(649,948,l),
(515,558,l),
(476,429,l),
(477,429,l),
(441,556,l),
(343,948,l),
(8,948,l),
(298,0,l),
(558,0,l),
(712,409,l),
(743,482,l),
(774,413,l),
(941,0,l),
(1183,0,l),
(1466,948,l),
(1188,948,l),
(1077,523,l),
(1054,418,l),
(1050,418,l),
(1017,524,l),
(943,735,l)
);
}
);
width = 1479;
},
{
layerId = "7CF7CDD4-0A84-4151-8A85-E5A01EE42E23";
shapes = (
{
closed = 1;
nodes = (
(852,935,l),
(668,935,l),
(507,495,l),
(465,351,l),
(459,351,l),
(424,493,l),
(291,935,l),
(20,935,l),
(329,-8,l),
(518,-8,l),
(705,473,l),
(744,576,l),
(781,475,l),
(980,-8,l),
(1160,-8,l),
(1459,935,l),
(1231,935,l),
(1100,472,l),
(1070,345,l),
(1063,345,l),
(1024,470,l),
(950,669,l)
);
}
);
width = 1479;
},
{
layerId = "2C98FBFB-9C5A-4FF8-8654-E7A0DF5B1F27";
shapes = (
{
closed = 1;
nodes = (
(809,916,l),
(686,916,l),
(485,401,l),
(438,235,l),
(422,235,l),
(388,399,l),
(213,916,l),
(38,916,l),
(376,-20,l),
(459,-20,l),
(695,572,l),
(747,720,l),
(793,572,l),
(1038,-20,l),
(1125,-20,l),
(1448,916,l),
(1285,916,l),
(1124,399,l),
(1084,237,l),
(1073,237,l),
(1025,393,l),
(950,570,l)
);
}
);
width = 1479;
}
);
unicode = 119;
},
{
glyphname = x;
layers = (
{
layerId = "01BBB9D0-923D-4A6C-8EB0-69AD5A5509C5";
shapes = (
{
closed = 1;
nodes = (
(421,467,l),
(31,0,l),
(192,0,l),
(439,297,l),
(508,391,l),
(576,297,l),
(822,0,l),
(995,0,l),
(602,473,l),
(971,910,l),
(814,910,l),
(584,638,l),
(514,553,l),
(458,638,l),
(236,910,l),
(56,910,l)
);
}
);
width = 1024;
},
{
layerId = "2CC194DC-208A-46E6-9B56-B5536ADC1FAA";
shapes = (
{
closed = 1;
nodes = (
(286,486,l),
(21,0,l),
(356,0,l),
(418,166,l),
(504,318,l),
(584,162,l),
(643,0,l),
(1003,0,l),
(744,494,l),
(994,948,l),
(658,948,l),
(610,816,l),
(531,655,l),
(446,816,l),
(405,948,l),
(38,948,l)
);
}
);
width = 1024;
},
{
layerId = "7CF7CDD4-0A84-4151-8A85-E5A01EE42E23";
shapes = (
{
closed = 1;
nodes = (
(333,479,l),
(24,0,l),
(299,0,l),
(425,211,l),
(505,343,l),
(581,209,l),
(705,0,l),
(1000,0,l),
(695,487,l),
(986,935,l),
(712,935,l),
(601,754,l),
(525,620,l),
(450,754,l),
(346,935,l),
(44,935,l)
);
}
);
width = 1024;
},
{
layerId = "2C98FBFB-9C5A-4FF8-8654-E7A0DF5B1F27";
shapes = (
{
closed = 1;
nodes = (
(403,469,l),
(29,0,l),
(214,0,l),
(436,279,l),
(507,381,l),
(577,279,l),
(798,0,l),
(996,0,l),
(621,476,l),
(974,916,l),
(793,916,l),
(587,662,l),
(516,567,l),
(456,662,l),
(258,916,l),
(53,916,l)
);
}
);
width = 1024;
}
);
unicode = 120;
},
{
glyphname = y;
layers = (
{
layerId = "01BBB9D0-923D-4A6C-8EB0-69AD5A5509C5";
shapes = (
{
closed = 1;
nodes = (
(480,308,l),
(211,910,l),
(48,910,l),
(481,-10,l),
(448,-93,o),
(382,-275,o),
(271,-270,c),
(219,-270,o),
(168,-249,o),
(156,-232,c),
(96,-322,l),
(116,-358,o),
(185,-395,o),
(280,-395,cs),
(483,-395,o),
(593,-66,o),
(652,86,cs),
(975,910,l),
(836,910,l),
(611,308,l),
(561,135,l),
(545,135,l)
);
}
);
width = 1024;
},
{
layerId = "2CC194DC-208A-46E6-9B56-B5536ADC1FAA";
shapes = (
{
closed = 1;
nodes = (
(534,527,l),
(387,948,l),
(13,948,l),
(429,23,l),
(402,-81,o),
(370,-119,o),
(253,-122,c),
(250,-122,o),
(194,-124,o),
(127,-91,c),
(69,-319,l),
(156,-372,o),
(246,-385,o),
(289,-385,cs),
(578,-385,o),
(647,-138,o),
(725,89,c),
(1019,948,l),
(701,948,l),
(582,527,l),
(561,420,l),
(562,420,l)
);
}
);
width = 1024;
},
{
layerId = "7CF7CDD4-0A84-4151-8A85-E5A01EE42E23";
shapes = (
{
closed = 1;
nodes = (
(515,451,l),
(326,935,l),
(25,935,l),
(447,12,l),
(418,-85,o),
(374,-173,o),
(259,-173,cs),
(239,-173,o),
(185,-167,o),
(137,-140,c),
(78,-320,l),
(142,-367,o),
(225,-388,o),
(286,-388,cs),
(545,-388,o),
(628,-113,o),
(700,88,cs),
(1004,935,l),
(748,935,l),
(592,451,l),
(561,321,l),
(556,321,l)
);
}
);
width = 1024;
},
{
layerId = "2C98FBFB-9C5A-4FF8-8654-E7A0DF5B1F27";
shapes = (
{
closed = 1;
nodes = (
(487,337,l),
(234,916,l),
(43,916,l),
(474,-5,l),
(442,-91,o),
(380,-254,o),
(268,-250,c),
(223,-250,o),
(171,-232,o),
(152,-213,c),
(92,-321,l),
(121,-360,o),
(193,-393,o),
(281,-393,cs),
(496,-393,o),
(600,-76,o),
(662,86,cs),
(981,916,l),
(818,916,l),
(607,337,l),
(561,173,l),
(547,173,l)
);
}
);
width = 1024;
}
);
unicode = 121;
},
{
glyphname = z;
layers = (
{
layerId = "01BBB9D0-923D-4A6C-8EB0-69AD5A5509C5";
shapes = (
{
closed = 1;
nodes = (
(77,119,l),
(77,0,l),
(834,0,l),
(834,117,l),
(210,117,l),
(306,200,l),
(834,792,l),
(834,910,l),
(70,910,l),
(70,792,l),
(693,792,l),
(595,705,l)
);
}
);
width = 909;
},
{
layerId = "2CC194DC-208A-46E6-9B56-B5536ADC1FAA";
shapes = (
{
closed = 1;
nodes = (
(65,263,l),
(65,0,l),
(845,0,l),
(845,258,l),
(416,258,l),
(543,359,l),
(845,687,l),
(845,948,l),
(107,948,l),
(107,695,l),
(506,695,l),
(383,585,l)
);
}
);
width = 909;
},
{
layerId = "7CF7CDD4-0A84-4151-8A85-E5A01EE42E23";
shapes = (
{
closed = 1;
nodes = (
(69,213,l),
(69,0,l),
(841,0,l),
(841,209,l),
(345,209,l),
(461,304,l),
(841,722,l),
(841,935,l),
(94,935,l),
(94,727,l),
(571,727,l),
(456,626,l)
);
}
);
width = 909;
},
{
layerId = "2C98FBFB-9C5A-4FF8-8654-E7A0DF5B1F27";
shapes = (
{
closed = 1;
nodes = (
(75,138,l),
(75,0,l),
(835,0,l),
(835,136,l),
(238,136,l),
(338,221,l),
(835,778,l),
(835,916,l),
(75,916,l),
(75,779,l),
(668,779,l),
(566,689,l)
);
}
);
width = 909;
}
);
unicode = 122;
},
{
glyphname = braceleft;
layers = (
{
layerId = "01BBB9D0-923D-4A6C-8EB0-69AD5A5509C5";
shapes = (
{
closed = 1;
nodes = (
(406,-243,ls),
(406,-376,o),
(481,-445,o),
(604,-445,cs),
(784,-445,l),
(784,-309,l),
(676,-309,ls),
(595,-309,o),
(562,-269,o),
(562,-188,cs),
(562,262,ls),
(562,347,o),
(504,439,o),
(414,452,c),
(414,467,l),
(509,484,o),
(562,552,o),
(562,649,cs),
(562,1101,ls),
(562,1181,o),
(601,1222,o),
(674,1222,cs),
(784,1222,l),
(784,1358,l),
(604,1358,ls),
(472,1358,o),
(405,1270,o),
(406,1151,c),
(406,686,ls),
(406,573,o),
(346,522,o),
(238,522,c),
(238,388,l),
(342,388,o),
(405,352,o),
(406,217,c)
);
}
);
width = 1029;
},
{
layerId = "2CC194DC-208A-46E6-9B56-B5536ADC1FAA";
shapes = (
{
closed = 1;
nodes = (
(186,-185,ls),
(186,-349,o),
(267,-445,o),
(423,-445,cs),
(712,-445,l),
(712,-170,l),
(610,-170,ls),
(535,-170,o),
(502,-134,o),
(502,-53,cs),
(502,258,ls),
(502,350,o),
(452,436,o),
(354,448,c),
(354,470,l),
(449,484,o),
(506,560,o),
(502,652,c),
(502,966,ls),
(502,1051,o),
(533,1083,o),
(608,1083,cs),
(712,1083,l),
(712,1358,l),
(423,1358,ls),
(260,1358,o),
(189,1256,o),
(186,1097,c),
(186,741,ls),
(186,628,o),
(126,577,o),
(18,577,c),
(18,334,l),
(146,334,o),
(189,273,o),
(186,161,c)
);
}
);
width = 690;
},
{
layerId = "7CF7CDD4-0A84-4151-8A85-E5A01EE42E23";
shapes = (
{
closed = 1;
nodes = (
(262,-205,ls),
(262,-358,o),
(341,-445,o),
(486,-445,cs),
(737,-445,l),
(737,-218,l),
(633,-218,ls),
(556,-218,o),
(523,-181,o),
(523,-100,cs),
(523,259,ls),
(523,349,o),
(470,437,o),
(375,449,c),
(375,469,l),
(470,484,o),
(525,557,o),
(523,651,c),
(523,1013,ls),
(523,1096,o),
(556,1131,o),
(631,1131,cs),
(737,1131,l),
(737,1358,l),
(486,1358,ls),
(333,1358,o),
(264,1261,o),
(262,1116,c),
(262,722,ls),
(262,609,o),
(202,558,o),
(94,558,c),
(94,353,l),
(214,353,o),
(264,300,o),
(262,180,c)
);
}
);
width = 807;
},
{
layerId = "2C98FBFB-9C5A-4FF8-8654-E7A0DF5B1F27";
shapes = (
{
closed = 1;
nodes = (
(376,-235,ls),
(376,-372,o),
(452,-445,o),
(580,-445,cs),
(774,-445,l),
(774,-290,l),
(667,-290,ls),
(587,-290,o),
(554,-251,o),
(554,-170,cs),
(554,261,ls),
(554,347,o),
(497,438,o),
(406,451,c),
(406,467,l),
(501,484,o),
(554,553,o),
(554,649,cs),
(554,1083,ls),
(554,1163,o),
(591,1203,o),
(665,1203,cs),
(774,1203,l),
(774,1358,l),
(580,1358,ls),
(443,1358,o),
(376,1268,o),
(376,1144,cs),
(376,693,ls),
(376,580,o),
(316,529,o),
(208,529,c),
(208,381,l),
(316,381,o),
(376,341,o),
(376,209,cs)
);
}
);
width = 983;
}
);
unicode = 123;
},
{
glyphname = bar;
layers = (
{
layerId = "01BBB9D0-923D-4A6C-8EB0-69AD5A5509C5";
shapes = (
{
closed = 1;
nodes = (
(131,1356,l),
(131,-492,l),
(268,-492,l),
(268,1356,l)
);
}
);
width = 399;
},
{
layerId = "2CC194DC-208A-46E6-9B56-B5536ADC1FAA";
shapes = (
{
closed = 1;
nodes = (
(104,1356,l),
(104,-125,l),
(375,-125,l),
(375,1356,l)
);
}
);
width = 478;
},
{
layerId = "7CF7CDD4-0A84-4151-8A85-E5A01EE42E23";
shapes = (
{
closed = 1;
nodes = (
(113,1356,l),
(113,-252,l),
(338,-252,l),
(338,1356,l)
);
}
);
width = 451;
},
{
layerId = "2C98FBFB-9C5A-4FF8-8654-E7A0DF5B1F27";
shapes = (
{
closed = 1;
nodes = (
(127,1356,l),
(127,-442,l),
(282,-442,l),
(282,1356,l)
);
}
);
width = 410;
}
);
unicode = 124;
},
{
glyphname = braceright;
layers = (
{
layerId = "01BBB9D0-923D-4A6C-8EB0-69AD5A5509C5";
shapes = (
{
closed = 1;
nodes = (
(618,1154,ls),
(618,1287,o),
(542,1358,o),
(418,1358,cs),
(244,1358,l),
(244,1222,l),
(348,1222,ls),
(422,1222,o),
(461,1181,o),
(461,1101,cs),
(461,651,ls),
(461,562,o),
(514,473,o),
(608,461,c),
(608,446,l),
(514,431,o),
(461,357,o),
(461,265,cs),
(461,-188,ls),
(461,-267,o),
(424,-309,o),
(350,-309,cs),
(244,-309,l),
(244,-445,l),
(416,-445,ls),
(544,-445,o),
(618,-369,o),
(618,-241,cs),
(618,225,ls),
(618,342,o),
(681,392,o),
(790,392,c),
(790,523,l),
(684,523,o),
(618,560,o),
(618,696,cs)
);
}
);
width = 1029;
},
{
layerId = "2CC194DC-208A-46E6-9B56-B5536ADC1FAA";
shapes = (
{
closed = 1;
nodes = (
(506,1096,ls),
(506,1256,o),
(428,1358,o),
(268,1358,cs),
(-22,1358,l),
(-22,1083,l),
(80,1083,ls),
(164,1083,o),
(192,1046,o),
(192,966,cs),
(192,653,ls),
(192,564,o),
(248,479,o),
(339,463,c),
(339,442,l),
(239,427,o),
(195,357,o),
(192,259,c),
(192,-53,ls),
(192,-140,o),
(158,-170,o),
(82,-170,cs),
(-22,-170,l),
(-22,-445,l),
(260,-445,ls),
(422,-445,o),
(510,-336,o),
(506,-180,c),
(506,171,ls),
(506,282,o),
(565,336,o),
(672,336,c),
(672,580,l),
(545,580,o),
(510,643,o),
(506,751,c)
);
}
);
width = 690;
},
{
layerId = "7CF7CDD4-0A84-4151-8A85-E5A01EE42E23";
shapes = (
{
closed = 1;
nodes = (
(545,1116,ls),
(545,1267,o),
(467,1358,o),
(320,1358,cs),
(70,1358,l),
(70,1131,l),
(173,1131,ls),
(253,1131,o),
(285,1093,o),
(285,1013,cs),
(285,652,ls),
(285,563,o),
(340,477,o),
(432,462,c),
(432,443,l),
(334,428,o),
(287,357,o),
(285,261,c),
(285,-100,ls),
(285,-184,o),
(250,-218,o),
(175,-218,cs),
(70,-218,l),
(70,-445,l),
(314,-445,ls),
(464,-445,o),
(547,-347,o),
(545,-201,c),
(545,190,ls),
(545,303,o),
(605,355,o),
(713,355,c),
(713,560,l),
(593,560,o),
(547,614,o),
(545,732,c)
);
}
);
width = 807;
},
{
layerId = "2C98FBFB-9C5A-4FF8-8654-E7A0DF5B1F27";
shapes = (
{
closed = 1;
nodes = (
(603,1146,ls),
(603,1283,o),
(526,1358,o),
(398,1358,cs),
(208,1358,l),
(208,1203,l),
(312,1203,ls),
(387,1203,o),
(425,1163,o),
(425,1083,cs),
(425,651,ls),
(425,562,o),
(478,474,o),
(572,461,c),
(572,445,l),
(477,430,o),
(425,357,o),
(425,264,cs),
(425,-170,ls),
(425,-250,o),
(388,-290,o),
(314,-290,cs),
(208,-290,l),
(208,-445,l),
(395,-445,ls),
(527,-445,o),
(603,-364,o),
(603,-233,cs),
(603,218,ls),
(603,334,o),
(665,384,o),
(774,384,c),
(774,530,l),
(665,530,o),
(603,571,o),
(603,703,cs)
);
}
);
width = 983;
}
);
unicode = 125;
},
{
glyphname = asciitilde;
layers = (
{
layerId = "01BBB9D0-923D-4A6C-8EB0-69AD5A5509C5";
shapes = (
{
closed = 1;
nodes = (
(158,582,l),
(255,648,o),
(326,677,o),
(390,677,cs),
(457,677,o),
(515,648,o),
(574,622,cs),
(633,595,o),
(692,569,o),
(768,569,cs),
(836,569,o),
(915,593,o),
(1023,659,c),
(958,777,l),
(888,724,o),
(834,708,o),
(781,708,cs),
(718,708,o),
(659,733,o),
(597,759,cs),
(534,785,o),
(470,811,o),
(391,811,cs),
(310,811,o),
(217,785,o),
(95,700,c)
);
}
);
width = 1120;
},
{
layerId = "2CC194DC-208A-46E6-9B56-B5536ADC1FAA";
shapes = (
{
closed = 1;
nodes = (
(114,506,l),
(203,587,o),
(285,609,o),
(357,609,cs),
(430,609,o),
(495,582,o),
(564,550,cs),
(630,519,o),
(700,490,o),
(777,490,cs),
(851,490,o),
(934,512,o),
(1031,587,c),
(914,844,l),
(859,807,o),
(808,792,o),
(758,792,cs),
(689,792,o),
(628,820,o),
(564,846,cs),
(497,872,o),
(426,898,o),
(345,898,cs),
(252,898,o),
(145,858,o),
(8,755,c)
);
}
);
width = 1036;
},
{
layerId = "7CF7CDD4-0A84-4151-8A85-E5A01EE42E23";
shapes = (
{
closed = 1;
nodes = (
(129,532,l),
(221,608,o),
(299,632,o),
(368,632,cs),
(439,632,o),
(502,605,o),
(567,575,cs),
(631,545,o),
(697,517,o),
(774,517,cs),
(846,517,o),
(927,540,o),
(1028,612,c),
(929,821,l),
(869,778,o),
(817,763,o),
(766,763,cs),
(699,763,o),
(639,790,o),
(575,816,cs),
(510,842,o),
(441,868,o),
(361,868,cs),
(272,868,o),
(170,833,o),
(38,736,c)
);
}
);
width = 1065;
},
{
layerId = "2C98FBFB-9C5A-4FF8-8654-E7A0DF5B1F27";
shapes = (
{
closed = 1;
nodes = (
(152,571,l),
(248,640,o),
(320,667,o),
(385,667,cs),
(453,667,o),
(512,639,o),
(572,612,cs),
(632,584,o),
(693,558,o),
(769,558,cs),
(838,558,o),
(917,582,o),
(1024,649,c),
(952,786,l),
(884,735,o),
(830,719,o),
(778,719,cs),
(714,719,o),
(655,745,o),
(592,771,cs),
(529,797,o),
(464,823,o),
(385,823,cs),
(302,823,o),
(207,795,o),
(83,707,c)
);
}
);
width = 1108;
}
);
unicode = 126;
},
{
glyphname = exclamdown;
layers = (
{
layerId = "01BBB9D0-923D-4A6C-8EB0-69AD5A5509C5";
shapes = (
{
closed = 1;
nodes = (
(357,-388,l),
(357,285,l),
(322,626,l),
(222,626,l),
(187,285,l),
(187,-388,l)
);
},
{
closed = 1;
nodes = (
(146,879,o),
(157,852,o),
(179,830,cs),
(200,809,o),
(230,797,o),
(266,797,cs),
(302,797,o),
(330,809,o),
(352,830,c),
(373,852,o),
(385,879,o),
(385,912,cs),
(385,983,o),
(336,1025,o),
(266,1025,cs),
(192,1025,o),
(146,983,o),
(146,912,cs)
);
}
);
width = 682;
},
{
layerId = "2CC194DC-208A-46E6-9B56-B5536ADC1FAA";
shapes = (
{
closed = 1;
nodes = (
(541,-388,l),
(541,225,l),
(472,522,l),
(262,522,l),
(198,225,l),
(198,-388,l)
);
},
{
closed = 1;
nodes = (
(184,746,o),
(203,704,o),
(239,672,cs),
(275,639,o),
(320,624,o),
(378,624,cs),
(438,624,o),
(488,639,o),
(523,672,c),
(560,704,o),
(577,746,o),
(577,798,cs),
(577,907,o),
(500,971,o),
(378,971,cs),
(264,971,o),
(184,907,o),
(184,798,cs)
);
}
);
width = 682;
},
{
layerId = "7CF7CDD4-0A84-4151-8A85-E5A01EE42E23";
shapes = (
{
closed = 1;
nodes = (
(477,-388,l),
(477,246,l),
(420,558,l),
(248,558,l),
(194,246,l),
(194,-388,l)
);
},
{
closed = 1;
nodes = (
(171,792,o),
(187,755,o),
(218,727,cs),
(249,698,o),
(289,684,o),
(339,684,cs),
(391,684,o),
(433,698,o),
(464,727,cs),
(495,755,o),
(510,792,o),
(510,837,cs),
(510,933,o),
(443,990,o),
(339,990,cs),
(239,990,o),
(171,933,o),
(171,837,cs)
);
}
);
width = 682;
},
{
layerId = "2C98FBFB-9C5A-4FF8-8654-E7A0DF5B1F27";
shapes = (
{
closed = 1;
nodes = (
(381,-388,l),
(381,277,l),
(342,612,l),
(227,612,l),
(188,277,l),
(188,-388,l)
);
},
{
closed = 1;
nodes = (
(151,861,o),
(163,832,o),
(187,809,cs),
(210,786,o),
(242,774,o),
(281,774,cs),
(320,774,o),
(351,786,o),
(375,809,cs),
(398,832,o),
(410,861,o),
(410,896,cs),
(410,972,o),
(358,1018,o),
(281,1018,cs),
(202,1018,o),
(151,972,o),
(151,896,cs)
);
}
);
width = 682;
}
);
unicode = 161;
},
{
glyphname = cent;
layers = (
{
layerId = "01BBB9D0-923D-4A6C-8EB0-69AD5A5509C5";
shapes = (
{
closed = 1;
nodes = (
(836,157,l),
(776,121,o),
(699,89,o),
(616,87,c),
(616,829,l),
(681,824,o),
(755,812,o),
(815,781,c),
(859,893,l),
(795,921,o),
(721,939,o),
(630,943,c),
(630,1106,l),
(516,1106,l),
(516,941,l),
(271,915,o),
(137,745,o),
(137,458,cs),
(137,187,o),
(247,-5,o),
(516,-23,c),
(516,-188,l),
(630,-188,l),
(630,-19,l),
(721,-7,o),
(810,21,o),
(878,60,c)
);
},
{
closed = 1;
nodes = (
(529,91,l),
(340,126,o),
(271,294,o),
(272,458,c),
(272,681,o),
(358,805,o),
(529,825,c)
);
}
);
width = 1024;
},
{
layerId = "2CC194DC-208A-46E6-9B56-B5536ADC1FAA";
shapes = (
{
closed = 1;
nodes = (
(857,295,l),
(836,285,o),
(809,277,o),
(762,262,c),
(762,613,l),
(796,608,o),
(820,594,o),
(847,590,c),
(916,843,l),
(878,863,o),
(831,879,o),
(768,889,c),
(768,1050,l),
(473,1050,l),
(473,891,l),
(242,851,o),
(122,695,o),
(122,438,cs),
(122,190,o),
(214,26,o),
(473,-19,c),
(473,-173,l),
(768,-173,l),
(768,-5,l),
(836,8,o),
(891,29,o),
(927,56,c)
);
},
{
closed = 1;
nodes = (
(532,275,l),
(461,305,o),
(435,359,o),
(431,438,c),
(431,539,o),
(464,583,o),
(532,609,c)
);
}
);
width = 1024;
},
{
layerId = "7CF7CDD4-0A84-4151-8A85-E5A01EE42E23";
shapes = (
{
closed = 1;
nodes = (
(850,247,l),
(815,228,o),
(771,212,o),
(711,201,c),
(711,688,l),
(756,683,o),
(797,669,o),
(836,656,c),
(896,860,l),
(849,883,o),
(793,900,o),
(720,908,c),
(720,1069,l),
(488,1069,l),
(488,908,l),
(252,873,o),
(127,712,o),
(127,445,cs),
(127,189,o),
(225,15,o),
(488,-20,c),
(488,-178,l),
(720,-178,l),
(720,-10,l),
(796,3,o),
(863,26,o),
(910,57,c)
);
},
{
closed = 1;
nodes = (
(531,211,l),
(419,243,o),
(378,336,o),
(376,445,c),
(376,588,o),
(427,660,o),
(531,684,c)
);
}
);
width = 1024;
},
{
layerId = "2C98FBFB-9C5A-4FF8-8654-E7A0DF5B1F27";
shapes = (
{
closed = 1;
nodes = (
(839,175,l),
(784,143,o),
(714,114,o),
(635,110,c),
(635,800,l),
(696,795,o),
(763,782,o),
(819,755,c),
(866,886,l),
(806,913,o),
(736,931,o),
(648,936,c),
(648,1098,l),
(510,1098,l),
(510,934,l),
(267,906,o),
(135,738,o),
(135,455,cs),
(135,187,o),
(242,-1,o),
(510,-22,c),
(510,-186,l),
(648,-186,l),
(648,-17,l),
(736,-5,o),
(821,22,o),
(884,59,c)
);
},
{
closed = 1;
nodes = (
(529,115,l),
(356,150,o),
(293,302,o),
(293,455,cs),
(293,662,o),
(372,775,o),
(529,796,c)
);
}
);
width = 1024;
}
);
unicode = 162;
},
{
glyphname = sterling;
layers = (
{
layerId = "01BBB9D0-923D-4A6C-8EB0-69AD5A5509C5";
shapes = (
{
closed = 1;
nodes = (
(45,740,l),
(45,603,l),
(258,603,l),
(281,545,o),
(303,478,o),
(303,393,cs),
(303,277,o),
(229,148,o),
(43,143,c),
(43,0,l),
(1007,0,l),
(1007,143,l),
(440,143,l),
(318,116,l),
(318,128,l),
(395,190,l),
(445,245,o),
(472,332,o),
(472,407,cs),
(472,482,o),
(458,545,o),
(439,603,c),
(712,603,l),
(712,740,l),
(368,740,l),
(323,835,o),
(294,903,o),
(294,1006,cs),
(294,1164,o),
(426,1237,o),
(567,1237,cs),
(740,1237,o),
(859,1201,o),
(915,1171,c),
(966,1315,l),
(882,1350,o),
(745,1381,o),
(571,1381,cs),
(298,1381,o),
(121,1242,o),
(121,987,cs),
(121,882,o),
(146,812,o),
(180,740,c)
);
}
);
width = 1024;
},
{
layerId = "2CC194DC-208A-46E6-9B56-B5536ADC1FAA";
shapes = (
{
closed = 1;
nodes = (
(53,782,l),
(53,518,l),
(323,518,l),
(321,504,o),
(314,497,o),
(314,503,c),
(314,329,o),
(191,296,o),
(69,291,c),
(69,0,l),
(957,0,l),
(957,291,l),
(609,291,l),
(474,258,l),
(474,266,l),
(554,317,l),
(620,375,o),
(651,461,o),
(651,551,c),
(651,536,o),
(656,525,o),
(666,518,c),
(819,518,l),
(819,782,l),
(572,782,l),
(546,797,o),
(493,874,o),
(493,938,cs),
(493,1023,o),
(518,1069,o),
(632,1069,cs),
(680,1069,o),
(741,1031,o),
(822,984,c),
(931,1284,l),
(845,1330,o),
(754,1383,o),
(588,1383,cs),
(329,1383,o),
(163,1227,o),
(163,1008,cs),
(163,905,o),
(201,821,o),
(226,782,c)
);
}
);
width = 1024;
},
{
layerId = "7CF7CDD4-0A84-4151-8A85-E5A01EE42E23";
shapes = (
{
closed = 1;
nodes = (
(50,767,l),
(50,547,l),
(300,547,l),
(307,518,o),
(310,490,o),
(310,465,cs),
(310,311,o),
(204,245,o),
(60,240,c),
(60,0,l),
(974,0,l),
(974,240,l),
(550,240,l),
(420,209,l),
(420,218,l),
(499,273,l),
(559,330,o),
(589,416,o),
(589,501,cs),
(589,517,o),
(587,532,o),
(587,547,c),
(782,547,l),
(782,767,l),
(501,767,l),
(469,810,o),
(424,884,o),
(424,961,cs),
(424,1072,o),
(486,1127,o),
(609,1127,cs),
(701,1127,o),
(782,1090,o),
(854,1049,c),
(943,1295,l),
(858,1337,o),
(751,1382,o),
(582,1382,cs),
(318,1382,o),
(148,1232,o),
(148,1001,cs),
(148,897,o),
(182,818,o),
(210,767,c)
);
}
);
width = 1024;
},
{
layerId = "2C98FBFB-9C5A-4FF8-8654-E7A0DF5B1F27";
shapes = (
{
closed = 1;
nodes = (
(46,745,l),
(46,591,l),
(266,591,l),
(286,539,o),
(304,480,o),
(304,408,cs),
(304,284,o),
(224,168,o),
(46,163,c),
(46,0,l),
(1000,0,l),
(1000,163,l),
(462,163,l),
(339,135,l),
(339,146,l),
(416,207,l),
(468,262,o),
(496,349,o),
(496,426,cs),
(496,489,o),
(484,542,o),
(469,591,c),
(726,591,l),
(726,745,l),
(395,745,l),
(353,830,o),
(320,899,o),
(320,996,cs),
(320,1145,o),
(438,1214,o),
(575,1214,cs),
(732,1214,o),
(843,1178,o),
(902,1146,c),
(961,1311,l),
(877,1347,o),
(746,1381,o),
(573,1381,cs),
(302,1381,o),
(126,1240,o),
(126,990,cs),
(126,885,o),
(153,813,o),
(186,745,c)
);
}
);
width = 1024;
}
);
unicode = 163;
},
{
glyphname = currency;
layers = (
{
layerId = "01BBB9D0-923D-4A6C-8EB0-69AD5A5509C5";
shapes = (
{
closed = 1;
nodes = (
(109,1162,l),
(17,1067,l),
(174,908,l),
(236,869,l),
(200,809,o),
(178,742,o),
(178,669,cs),
(178,596,o),
(197,528,o),
(238,470,c),
(174,430,l),
(15,269,l),
(107,174,l),
(267,333,l),
(309,398,l),
(365,356,o),
(432,336,o),
(512,336,cs),
(588,336,o),
(662,361,o),
(715,398,c),
(757,333,l),
(919,173,l),
(1011,268,l),
(851,430,l),
(784,471,l),
(827,524,o),
(848,591,o),
(848,669,cs),
(848,745,o),
(826,810,o),
(784,864,c),
(851,909,l),
(1007,1067,l),
(915,1162,l),
(757,1006,l),
(714,938,l),
(658,979,o),
(592,999,o),
(512,999,cs),
(436,999,o),
(362,980,o),
(309,938,c),
(267,1006,l)
);
},
{
closed = 1;
nodes = (
(311,787,o),
(392,877,o),
(512,874,c),
(630,874,o),
(716,785,o),
(714,669,c),
(714,550,o),
(632,464,o),
(512,461,c),
(389,461,o),
(311,550,o),
(311,669,cs)
);
}
);
width = 1024;
},
{
layerId = "2CC194DC-208A-46E6-9B56-B5536ADC1FAA";
shapes = (
{
closed = 1;
nodes = (
(186,1193,l),
(-4,999,l),
(95,893,l),
(175,863,l),
(146,803,o),
(126,742,o),
(126,669,cs),
(126,586,o),
(147,528,o),
(168,481,c),
(95,449,l),
(9,356,l),
(199,164,l),
(286,254,l),
(317,326,l),
(368,290,o),
(432,272,o),
(504,272,cs),
(580,272,o),
(654,289,o),
(701,326,c),
(730,254,l),
(818,170,l),
(1007,363,l),
(920,449,l),
(845,474,l),
(876,518,o),
(890,588,o),
(890,669,cs),
(890,741,o),
(880,813,o),
(845,870,c),
(920,889,l),
(1030,999,l),
(842,1196,l),
(730,1090,l),
(696,1017,l),
(648,1051,o),
(578,1071,o),
(504,1071,cs),
(428,1071,o),
(370,1052,o),
(317,1017,c),
(286,1090,l)
);
},
{
closed = 1;
nodes = (
(392,735,o),
(432,809,o),
(508,810,c),
(580,810,o),
(621,748,o),
(623,669,c),
(623,592,o),
(586,531,o),
(508,533,c),
(438,533,o),
(392,594,o),
(392,669,cs)
);
}
);
width = 1024;
},
{
layerId = "7CF7CDD4-0A84-4151-8A85-E5A01EE42E23";
shapes = (
{
closed = 1;
nodes = (
(159,1182,l),
(3,1022,l),
(122,898,l),
(196,865,l),
(165,805,o),
(144,742,o),
(144,669,cs),
(144,589,o),
(164,528,o),
(192,477,c),
(122,442,l),
(11,326,l),
(167,167,l),
(279,281,l),
(314,351,l),
(367,313,o),
(432,294,o),
(507,294,cs),
(583,294,o),
(657,314,o),
(706,351,c),
(739,281,l),
(853,171,l),
(1008,330,l),
(896,442,l),
(824,473,l),
(859,520,o),
(875,589,o),
(875,669,cs),
(875,742,o),
(861,812,o),
(824,868,c),
(896,896,l),
(1022,1022,l),
(867,1184,l),
(739,1061,l),
(702,990,l),
(651,1026,o),
(583,1046,o),
(507,1046,cs),
(431,1046,o),
(367,1027,o),
(314,990,c),
(279,1061,l)
);
},
{
closed = 1;
nodes = (
(364,753,o),
(418,832,o),
(509,832,cs),
(597,832,o),
(654,761,o),
(654,669,cs),
(654,577,o),
(602,508,o),
(509,508,cs),
(421,508,o),
(364,579,o),
(364,669,cs)
);
}
);
width = 1024;
},
{
layerId = "2C98FBFB-9C5A-4FF8-8654-E7A0DF5B1F27";
shapes = (
{
closed = 1;
nodes = (
(119,1166,l),
(14,1057,l),
(163,906,l),
(228,868,l),
(193,808,o),
(171,742,o),
(171,669,cs),
(171,594,o),
(190,528,o),
(228,471,c),
(163,432,l),
(14,281,l),
(119,172,l),
(269,322,l),
(310,388,l),
(365,347,o),
(432,327,o),
(511,327,cs),
(587,327,o),
(661,351,o),
(713,388,c),
(753,322,l),
(905,172,l),
(1010,281,l),
(860,432,l),
(792,471,l),
(833,523,o),
(853,590,o),
(853,669,cs),
(853,744,o),
(833,810,o),
(792,865,c),
(860,906,l),
(1010,1057,l),
(905,1166,l),
(753,1017,l),
(711,949,l),
(656,989,o),
(590,1009,o),
(511,1009,cs),
(435,1009,o),
(363,990,o),
(310,949,c),
(269,1017,l)
);
},
{
closed = 1;
nodes = (
(322,780,o),
(397,867,o),
(511,865,c),
(623,865,o),
(703,780,o),
(701,669,c),
(701,555,o),
(626,473,o),
(511,471,c),
(395,471,o),
(322,556,o),
(322,669,cs)
);
}
);
width = 1024;
}
);
unicode = 164;
},
{
glyphname = yen;
layers = (
{
layerId = "01BBB9D0-923D-4A6C-8EB0-69AD5A5509C5";
shapes = (
{
closed = 1;
nodes = (
(176,638,l),
(176,524,l),
(436,524,l),
(436,375,l),
(176,375,l),
(176,261,l),
(436,261,l),
(436,0,l),
(606,0,l),
(606,261,l),
(866,261,l),
(866,375,l),
(606,375,l),
(606,524,l),
(866,524,l),
(866,638,l),
(667,638,l),
(1042,1356,l),
(861,1356,l),
(571,745,l),
(534,619,l),
(531,619,l),
(489,740,l),
(189,1356,l),
(-18,1356,l),
(369,638,l)
);
}
);
width = 1024;
},
{
layerId = "2CC194DC-208A-46E6-9B56-B5536ADC1FAA";
shapes = (
{
closed = 1;
nodes = (
(26,663,l),
(26,446,l),
(309,446,l),
(309,352,l),
(26,352,l),
(26,134,l),
(309,134,l),
(309,0,l),
(658,0,l),
(658,134,l),
(941,134,l),
(941,352,l),
(658,352,l),
(658,446,l),
(941,446,l),
(941,663,l),
(744,663,l),
(999,1356,l),
(630,1356,l),
(559,1036,l),
(507,894,l),
(493,894,l),
(443,1038,l),
(377,1356,l),
(25,1356,l),
(251,663,l)
);
}
);
width = 1024;
},
{
layerId = "7CF7CDD4-0A84-4151-8A85-E5A01EE42E23";
shapes = (
{
closed = 1;
nodes = (
(78,654,l),
(78,473,l),
(353,473,l),
(353,360,l),
(78,360,l),
(78,178,l),
(353,178,l),
(353,0,l),
(640,0,l),
(640,178,l),
(915,178,l),
(915,360,l),
(640,360,l),
(640,473,l),
(915,473,l),
(915,654,l),
(717,654,l),
(1014,1356,l),
(710,1356,l),
(563,935,l),
(516,799,l),
(506,799,l),
(459,935,l),
(312,1356,l),
(10,1356,l),
(292,654,l)
);
}
);
width = 1024;
},
{
layerId = "2C98FBFB-9C5A-4FF8-8654-E7A0DF5B1F27";
shapes = (
{
closed = 1;
nodes = (
(156,641,l),
(156,513,l),
(419,513,l),
(419,372,l),
(156,372,l),
(156,244,l),
(419,244,l),
(419,0,l),
(613,0,l),
(613,244,l),
(876,244,l),
(876,372,l),
(613,372,l),
(613,513,l),
(876,513,l),
(876,641,l),
(677,641,l),
(1036,1356,l),
(830,1356,l),
(569,784,l),
(530,656,l),
(526,656,l),
(483,780,l),
(214,1356,l),
(-12,1356,l),
(353,641,l)
);
}
);
width = 1024;
}
);
unicode = 165;
},
{
glyphname = brokenbar;
layers = (
{
layerId = "01BBB9D0-923D-4A6C-8EB0-69AD5A5509C5";
shapes = (
{
closed = 1;
nodes = (
(131,401,l),
(131,-252,l),
(268,-252,l),
(268,401,l)
);
},
{
closed = 1;
nodes = (
(268,704,l),
(268,1356,l),
(131,1356,l),
(131,704,l)
);
}
);
width = 399;
},
{
layerId = "2CC194DC-208A-46E6-9B56-B5536ADC1FAA";
shapes = (
{
closed = 1;
nodes = (
(104,418,l),
(104,-252,l),
(375,-252,l),
(375,418,l)
);
},
{
closed = 1;
nodes = (
(375,684,l),
(375,1356,l),
(104,1356,l),
(104,684,l)
);
}
);
width = 478;
},
{
layerId = "7CF7CDD4-0A84-4151-8A85-E5A01EE42E23";
shapes = (
{
closed = 1;
nodes = (
(113,412,l),
(113,-252,l),
(338,-252,l),
(338,412,l)
);
},
{
closed = 1;
nodes = (
(338,691,l),
(338,1356,l),
(113,1356,l),
(113,691,l)
);
}
);
width = 451;
},
{
layerId = "2C98FBFB-9C5A-4FF8-8654-E7A0DF5B1F27";
shapes = (
{
closed = 1;
nodes = (
(127,403,l),
(127,-252,l),
(282,-252,l),
(282,403,l)
);
},
{
closed = 1;
nodes = (
(282,701,l),
(282,1356,l),
(127,1356,l),
(127,701,l)
);
}
);
width = 410;
}
);
unicode = 166;
},
{
glyphname = section;
layers = (
{
layerId = "01BBB9D0-923D-4A6C-8EB0-69AD5A5509C5";
shapes = (
{
closed = 1;
nodes = (
(106,532,o),
(218,456,o),
(347,413,cs),
(361,408,o),
(374,403,o),
(388,400,c),
(461,379,o),
(679,344,o),
(675,230,c),
(675,142,o),
(603,112,o),
(490,112,cs),
(376,112,o),
(289,145,o),
(215,176,c),
(176,45,l),
(211,32,o),
(254,16,o),
(307,-1,cs),
(357,-17,o),
(425,-26,o),
(511,-26,cs),
(703,-26,o),
(835,70,o),
(835,226,cs),
(835,331,o),
(780,392,o),
(703,433,c),
(800,460,l),
(872,523,o),
(917,592,o),
(917,672,cs),
(917,840,o),
(790,918,o),
(633,961,cs),
(575,977,o),
(354,1015,o),
(350,1126,c),
(350,1200,o),
(409,1243,o),
(538,1243,cs),
(592,1243,o),
(642,1237,o),
(692,1223,cs),
(742,1209,o),
(780,1197,o),
(808,1184,c),
(849,1315,l),
(784,1346,o),
(683,1381,o),
(514,1381,cs),
(405,1381,o),
(329,1356,o),
(276,1311,c),
(216,1264,o),
(190,1203,o),
(190,1131,cs),
(190,1027,o),
(241,967,o),
(312,928,c),
(227,900,l),
(158,838,o),
(108,763,o),
(108,684,cs)
);
},
{
closed = 1;
nodes = (
(756,584,o),
(662,518,o),
(589,485,c),
(435,537,o),
(270,552,o),
(270,687,cs),
(270,781,o),
(345,845,o),
(426,874,c),
(583,825,o),
(756,800,o),
(756,669,cs)
);
}
);
width = 1024;
},
{
layerId = "2CC194DC-208A-46E6-9B56-B5536ADC1FAA";
shapes = (
{
closed = 1;
nodes = (
(65,503,o),
(168,410,o),
(332,380,c),
(334,381,o),
(339,380,o),
(347,379,cs),
(428,367,o),
(584,338,o),
(586,293,c),
(586,261,o),
(562,247,o),
(463,247,cs),
(327,247,o),
(223,297,o),
(195,314,c),
(103,70,l),
(168,29,o),
(233,6,o),
(295,-7,cs),
(376,-23,o),
(451,-28,o),
(520,-28,cs),
(676,-28,o),
(918,4,o),
(918,222,cs),
(918,325,o),
(859,389,o),
(786,429,c),
(879,456,l),
(932,488,o),
(977,594,o),
(977,672,cs),
(977,871,o),
(845,941,o),
(716,975,cs),
(534,1023,o),
(437,1021,o),
(439,1065,c),
(439,1092,o),
(464,1110,o),
(553,1110,cs),
(601,1110,o),
(648,1106,o),
(692,1098,cs),
(734,1090,o),
(782,1073,o),
(831,1053,c),
(912,1318,l),
(755,1386,o),
(607,1383,o),
(499,1383,cs),
(416,1383,o),
(294,1371,o),
(208,1317,cs),
(155,1283,o),
(111,1226,o),
(111,1134,cs),
(111,1030,o),
(157,970,o),
(236,928,c),
(146,903,l),
(77,859,o),
(47,763,o),
(47,684,c)
);
},
{
closed = 1;
nodes = (
(648,628,o),
(641,583,o),
(586,552,c),
(417,586,o),
(376,625,o),
(376,687,cs),
(376,729,o),
(393,777,o),
(435,808,c),
(608,761,o),
(648,742,o),
(648,669,cs)
);
}
);
width = 1024;
},
{
layerId = "7CF7CDD4-0A84-4151-8A85-E5A01EE42E23";
shapes = (
{
closed = 1;
nodes = (
(79,513,o),
(185,426,o),
(337,391,cs),
(343,390,o),
(351,388,o),
(361,386,cs),
(439,371,o),
(617,340,o),
(617,271,cs),
(617,220,o),
(576,200,o),
(472,200,cs),
(344,200,o),
(246,244,o),
(202,266,c),
(128,61,l),
(183,30,o),
(240,9,o),
(299,-5,cs),
(369,-21,o),
(442,-27,o),
(517,-27,cs),
(685,-27,o),
(889,27,o),
(889,223,cs),
(889,327,o),
(832,390,o),
(757,430,c),
(852,457,l),
(911,500,o),
(956,593,o),
(956,672,cs),
(956,860,o),
(826,933,o),
(687,970,cs),
(548,1007,o),
(408,1019,o),
(408,1086,cs),
(408,1129,o),
(445,1156,o),
(548,1156,cs),
(598,1156,o),
(646,1151,o),
(692,1141,cs),
(737,1131,o),
(781,1116,o),
(823,1098,c),
(890,1317,l),
(765,1372,o),
(633,1382,o),
(504,1382,cs),
(412,1382,o),
(306,1366,o),
(231,1315,c),
(176,1276,o),
(138,1218,o),
(138,1133,cs),
(138,1029,o),
(186,969,o),
(262,928,c),
(174,902,l),
(105,852,o),
(68,763,o),
(68,684,c)
);
},
{
closed = 1;
nodes = (
(685,613,o),
(648,560,o),
(587,529,c),
(423,569,o),
(339,600,o),
(339,687,cs),
(339,747,o),
(376,800,o),
(432,831,c),
(599,783,o),
(685,762,o),
(685,669,cs)
);
}
);
width = 1024;
},
{
layerId = "2C98FBFB-9C5A-4FF8-8654-E7A0DF5B1F27";
shapes = (
{
closed = 1;
nodes = (
(100,528,o),
(211,450,o),
(345,408,cs),
(357,404,o),
(369,400,o),
(382,397,cs),
(456,377,o),
(666,343,o),
(663,238,c),
(663,158,o),
(597,130,o),
(486,130,cs),
(369,130,o),
(280,165,o),
(212,194,c),
(166,48,l),
(205,31,o),
(251,14,o),
(305,-2,cs),
(359,-18,o),
(428,-26,o),
(512,-26,cs),
(699,-26,o),
(846,61,o),
(846,225,cs),
(846,330,o),
(791,391,o),
(714,432,c),
(811,459,l),
(880,518,o),
(925,592,o),
(925,672,cs),
(925,844,o),
(797,921,o),
(644,963,cs),
(569,983,o),
(365,1016,o),
(362,1118,c),
(362,1185,o),
(416,1225,o),
(540,1225,cs),
(593,1225,o),
(643,1219,o),
(692,1206,cs),
(741,1193,o),
(780,1180,o),
(811,1166,c),
(857,1315,l),
(780,1351,o),
(672,1381,o),
(512,1381,cs),
(406,1381,o),
(324,1358,o),
(266,1312,cs),
(208,1266,o),
(179,1206,o),
(179,1131,cs),
(179,1027,o),
(229,967,o),
(301,928,c),
(216,900,l),
(147,841,o),
(100,763,o),
(100,684,cs)
);
},
{
closed = 1;
nodes = (
(741,590,o),
(659,526,o),
(588,494,c),
(432,543,o),
(284,562,o),
(284,687,cs),
(284,774,o),
(351,835,o),
(427,865,c),
(586,816,o),
(741,792,o),
(741,669,cs)
);
}
);
width = 1024;
}
);
unicode = 167;
},
{
glyphname = dieresis;
layers = (
{
layerId = "01BBB9D0-923D-4A6C-8EB0-69AD5A5509C5";
shapes = (
{
closed = 1;
nodes = (
(48,1233,o),
(57,1211,o),
(74,1194,cs),
(91,1176,o),
(114,1167,o),
(143,1167,cs),
(171,1167,o),
(193,1176,o),
(210,1194,cs),
(227,1211,o),
(235,1233,o),
(235,1258,cs),
(235,1309,o),
(200,1349,o),
(143,1349,cs),
(86,1349,o),
(48,1309,o),
(48,1258,cs)
);
},
{
closed = 1;
nodes = (
(434,1233,o),
(443,1211,o),
(460,1194,cs),
(478,1176,o),
(500,1167,o),
(528,1167,cs),
(558,1167,o),
(581,1176,o),
(598,1194,cs),
(615,1211,o),
(623,1233,o),
(623,1258,cs),
(623,1309,o),
(586,1349,o),
(528,1349,cs),
(471,1349,o),
(434,1309,o),
(434,1258,cs)
);
}
);
width = 682;
},
{
layerId = "2CC194DC-208A-46E6-9B56-B5536ADC1FAA";
shapes = (
{
closed = 1;
nodes = (
(-56,1235,o),
(-39,1196,o),
(-5,1163,cs),
(27,1132,o),
(70,1115,o),
(122,1115,cs),
(174,1115,o),
(216,1132,o),
(248,1163,cs),
(281,1196,o),
(296,1235,o),
(296,1281,cs),
(296,1390,o),
(226,1459,o),
(122,1459,cs),
(18,1459,o),
(-56,1390,o),
(-56,1281,cs)
);
},
{
closed = 1;
nodes = (
(397,1235,o),
(412,1196,o),
(445,1163,cs),
(475,1132,o),
(517,1115,o),
(570,1115,cs),
(623,1115,o),
(665,1132,o),
(698,1163,c),
(730,1196,o),
(746,1235,o),
(746,1281,cs),
(746,1390,o),
(678,1459,o),
(570,1459,cs),
(465,1459,o),
(397,1390,o),
(397,1281,cs)
);
}
);
width = 682;
},
{
layerId = "7CF7CDD4-0A84-4151-8A85-E5A01EE42E23";
shapes = (
{
closed = 1;
nodes = (
(-20,1234,o),
(-6,1201,o),
(22,1174,cs),
(49,1147,o),
(85,1133,o),
(129,1133,cs),
(173,1133,o),
(208,1147,o),
(235,1174,cs),
(262,1201,o),
(275,1234,o),
(275,1273,cs),
(275,1362,o),
(217,1421,o),
(129,1421,cs),
(41,1421,o),
(-20,1362,o),
(-20,1273,cs)
);
},
{
closed = 1;
nodes = (
(410,1234,o),
(423,1201,o),
(450,1174,cs),
(476,1147,o),
(511,1133,o),
(555,1133,cs),
(600,1133,o),
(636,1147,o),
(663,1174,cs),
(690,1201,o),
(703,1234,o),
(703,1273,cs),
(703,1362,o),
(646,1421,o),
(555,1421,cs),
(467,1421,o),
(410,1362,o),
(410,1273,cs)
);
}
);
width = 682;
},
{
layerId = "2C98FBFB-9C5A-4FF8-8654-E7A0DF5B1F27";
shapes = (
{
closed = 1;
nodes = (
(34,1233,o),
(44,1209,o),
(63,1190,cs),
(82,1170,o),
(108,1160,o),
(140,1160,cs),
(171,1160,o),
(196,1170,o),
(215,1190,cs),
(234,1209,o),
(243,1233,o),
(243,1261,cs),
(243,1320,o),
(203,1364,o),
(140,1364,cs),
(76,1364,o),
(34,1320,o),
(34,1261,cs)
);
},
{
closed = 1;
nodes = (
(429,1233,o),
(439,1209,o),
(458,1190,cs),
(477,1170,o),
(502,1160,o),
(533,1160,cs),
(566,1160,o),
(592,1170,o),
(611,1190,cs),
(630,1209,o),
(639,1233,o),
(639,1261,cs),
(639,1320,o),
(598,1364,o),
(533,1364,cs),
(470,1364,o),
(429,1320,o),
(429,1261,cs)
);
}
);
width = 682;
}
);
unicode = 168;
},
{
glyphname = copyright;
layers = (
{
layerId = "01BBB9D0-923D-4A6C-8EB0-69AD5A5509C5";
shapes = (
{
closed = 1;
nodes = (
(92,120,o),
(354,-121,o),
(782,-121,cs),
(1162,-121,o),
(1471,120,o),
(1471,560,cs),
(1471,1000,o),
(1162,1239,o),
(782,1239,cs),
(396,1239,o),
(92,1000,o),
(92,560,cs)
);
},
{
closed = 1;
nodes = (
(227,929,o),
(471,1112,o),
(782,1112,cs),
(1096,1112,o),
(1335,929,o),
(1335,560,cs),
(1335,190,o),
(1096,7,o),
(782,7,cs),
(471,7,o),
(227,190,o),
(227,560,cs)
);
},
{
closed = 1;
nodes = (
(956,352,l),
(913,329,o),
(866,316,o),
(800,316,cs),
(662,316,o),
(593,408,o),
(593,559,cs),
(593,653,o),
(613,716,o),
(647,752,c),
(683,787,o),
(728,805,o),
(782,805,cs),
(825,805,o),
(875,791,o),
(934,763,c),
(982,874,l),
(903,907,o),
(862,926,o),
(768,926,cs),
(670,926,o),
(593,894,o),
(535,830,c),
(477,769,o),
(447,678,o),
(447,559,cs),
(447,446,o),
(475,356,o),
(529,293,cs),
(584,226,o),
(664,194,o),
(768,194,cs),
(865,194,o),
(935,211,o),
(995,245,c)
);
}
);
width = 1563;
},
{
layerId = "2CC194DC-208A-46E6-9B56-B5536ADC1FAA";
shapes = (
{
closed = 1;
nodes = (
(31,149,o),
(380,-236,o),
(756,-236,cs),
(1158,-236,o),
(1482,149,o),
(1482,548,cs),
(1482,946,o),
(1158,1334,o),
(756,1334,cs),
(358,1334,o),
(31,946,o),
(31,548,cs)
);
},
{
closed = 1;
nodes = (
(275,819,o),
(492,1100,o),
(756,1100,cs),
(1018,1100,o),
(1239,819,o),
(1239,550,cs),
(1239,280,o),
(1018,-1,o),
(756,-1,cs),
(492,-1,o),
(275,280,o),
(275,550,cs)
);
},
{
closed = 1;
nodes = (
(1019,444,l),
(974,421,o),
(945,416,o),
(906,416,cs),
(837,416,o),
(803,456,o),
(803,551,cs),
(803,601,o),
(809,637,o),
(826,653,c),
(842,673,o),
(864,681,o),
(892,681,cs),
(925,681,o),
(958,681,o),
(999,659,c),
(1078,885,l),
(1009,928,o),
(917,958,o),
(808,958,cs),
(702,958,o),
(616,923,o),
(550,851,cs),
(485,778,o),
(453,680,o),
(453,551,cs),
(453,426,o),
(483,327,o),
(544,252,c),
(605,180,o),
(693,144,o),
(808,144,cs),
(917,144,o),
(1033,173,o),
(1093,218,c)
);
}
);
width = 1513;
},
{
layerId = "7CF7CDD4-0A84-4151-8A85-E5A01EE42E23";
shapes = (
{
closed = 1;
nodes = (
(52,139,o),
(371,-196,o),
(765,-196,cs),
(1159,-196,o),
(1478,139,o),
(1478,552,cs),
(1478,965,o),
(1159,1301,o),
(765,1301,cs),
(371,1301,o),
(52,965,o),
(52,552,cs)
);
},
{
closed = 1;
nodes = (
(258,857,o),
(485,1104,o),
(765,1104,cs),
(1045,1104,o),
(1272,857,o),
(1272,553,cs),
(1272,249,o),
(1045,2,o),
(765,2,cs),
(485,2,o),
(258,249,o),
(258,553,cs)
);
},
{
closed = 1;
nodes = (
(997,412,l),
(953,389,o),
(918,381,o),
(869,381,cs),
(776,381,o),
(730,439,o),
(730,554,cs),
(730,619,o),
(741,664,o),
(764,687,c),
(787,712,o),
(817,724,o),
(854,724,cs),
(890,724,o),
(929,719,o),
(976,695,c),
(1045,881,l),
(972,921,o),
(898,947,o),
(794,947,cs),
(691,947,o),
(608,913,o),
(545,844,cs),
(482,775,o),
(451,679,o),
(451,554,cs),
(451,433,o),
(480,337,o),
(539,266,cs),
(598,196,o),
(683,161,o),
(794,161,cs),
(899,161,o),
(999,186,o),
(1059,227,c)
);
}
);
width = 1530;
},
{
layerId = "2C98FBFB-9C5A-4FF8-8654-E7A0DF5B1F27";
shapes = (
{
closed = 1;
nodes = (
(84,124,o),
(357,-136,o),
(778,-136,cs),
(1161,-136,o),
(1472,124,o),
(1472,558,cs),
(1472,993,o),
(1161,1252,o),
(778,1252,cs),
(391,1252,o),
(84,993,o),
(84,558,cs)
);
},
{
closed = 1;
nodes = (
(233,914,o),
(474,1110,o),
(778,1110,cs),
(1085,1110,o),
(1322,914,o),
(1322,558,cs),
(1322,202,o),
(1085,6,o),
(778,6,cs),
(474,6,o),
(233,202,o),
(233,558,cs)
);
},
{
closed = 1;
nodes = (
(964,364,l),
(921,341,o),
(877,329,o),
(814,329,cs),
(685,329,o),
(621,414,o),
(621,558,cs),
(621,646,o),
(639,705,o),
(671,738,cs),
(704,771,o),
(746,788,o),
(797,788,cs),
(838,788,o),
(886,776,o),
(942,749,c),
(995,875,l),
(917,910,o),
(869,930,o),
(773,930,cs),
(674,930,o),
(596,898,o),
(537,833,cs),
(478,770,o),
(448,678,o),
(448,558,cs),
(448,443,o),
(476,352,o),
(531,287,cs),
(587,220,o),
(668,187,o),
(773,187,cs),
(872,187,o),
(948,206,o),
(1008,241,c)
);
}
);
width = 1556;
}
);
unicode = 169;
},
